<?xml version="1.0" standalone="no"?>
<!DOCTYPE svg PUBLIC "-//W3C//DTD SVG 1.1//EN" "http://www.w3.org/Graphics/SVG/1.1/DTD/svg11.dtd" >
<svg xmlns="http://www.w3.org/2000/svg" xmlns:xlink="http://www.w3.org/1999/xlink" version="1.1">
<metadata>
Created by FontForge 20141024 at Tue Mar  8 17:52:36 2016
 By Jimmy Warting
Copyright (c) 2015 by Svet Simov. All rights reserved.
</metadata>
<defs>
<font id="GUERRILLA-Normal" horiz-adv-x="451" >
  <font-face 
    font-family="GUERRILLA Normal"
    font-weight="400"
    font-stretch="normal"
    units-per-em="1000"
    panose-1="0 0 5 0 0 0 0 0 0 0"
    ascent="750"
    descent="-250"
    x-height="503"
    cap-height="626"
    bbox="-1438 -409 2002 954.523"
    underline-thickness="50"
    underline-position="-50"
    unicode-range="U+0020-2122"
  />
<missing-glyph horiz-adv-x="500" 
d="M410 750v-1000h-317v1000h317zM333 683h-165v-33h65v-37h-66v-33h166v33h-66v37h66v33zM267 554h-100v-104h166v34h-66v70zM233 520v-36h-33v36h33zM333 423h-166v-33h66v-37h-66v-33h100v70h66v33zM333 363h-33v-66h-133v-34h166v100zM333 241h-100v-56h34v23h33v-47
h-100v80h-33v-113h166v113zM333 68h-166v-113h166v113zM300 35v-47h-100v47h100zM333 -68h-166v-33h70l-70 -47v-33h166v33h-102l70 47h32v33z" />
    <glyph glyph-name=".notdef" horiz-adv-x="500" 
d="M410 750v-1000h-317v1000h317zM333 683h-165v-33h65v-37h-66v-33h166v33h-66v37h66v33zM267 554h-100v-104h166v34h-66v70zM233 520v-36h-33v36h33zM333 423h-166v-33h66v-37h-66v-33h100v70h66v33zM333 363h-33v-66h-133v-34h166v100zM333 241h-100v-56h34v23h33v-47
h-100v80h-33v-113h166v113zM333 68h-166v-113h166v113zM300 35v-47h-100v47h100zM333 -68h-166v-33h70l-70 -47v-33h166v33h-102l70 47h32v33z" />
    <glyph glyph-name="space" unicode=" " horiz-adv-x="250" 
 />
    <glyph glyph-name="A" unicode="A" horiz-adv-x="530" 
d="M464 147c18 -25 37 -46 56 -65c-3 2 -6 3 -7 3c-3 0 -4 0 -5 -1c-4 -1 -5 -3 -9 -8c-3 -5 -7 -11 -8 -15c-2 -3 -3 -6 -3 -9c-3 -3 -5 -12 -16 -12l-11 1c-3 0 -4 0 -5 -1c-4 -4 -6 -8 -7 -13c-1 -7 -2 -12 -2 -17c-1 -4 -3 -7 -8 -10c-3 -3 -3 -4 -5 -7
c-28 24 -50 52 -69 83l-23 35l-187 -39l-3 -24c-4 -35 -6 -68 -9 -101c-6 5 -4 13 -11 13l-7 -1c-11 -3 -21 -9 -24 -9c-2 -1 -5 -1 -10 -1c-3 0 -6 1 -8 2c-7 5 -8 12 -13 15l-5 1c-11 0 -43 -11 -45 -15c1 39 5 73 10 108s9 69 16 104c11 60 24 117 35 174l2 12
c8 43 16 84 23 125c7 47 11 89 12 136c5 2 10 3 15 3s8 -1 15 -2c11 -3 20 -5 29 -5l13 -1c5 0 8 2 11 5c5 4 6 16 9 16c1 0 3 -2 4 -6c1 -8 1 -14 1 -25l29 1c8 3 19 0 23 11c3 4 2 15 5 15c2 0 4 -2 5 -6l12 -44c5 -11 12 -11 19 -14c-7 27 -14 53 -9 68
c7 -31 17 -56 24 -88c11 -47 21 -92 36 -137l21 -69c5 -19 11 -37 18 -53l12 -30l34 6c-4 -10 -11 -5 -10 -12c1 -4 2 -7 4 -9c4 -10 11 -20 11 -21c1 -2 1 -5 2 -10c1 -4 1 -7 0 -8c0 -5 -8 -11 -8 -15l1 -3c6 -11 13 -21 20 -31zM180 205c25 4 49 7 75 12c11 3 22 5 33 7
l-19 44c-7 20 -14 38 -19 57c-11 31 -18 103 -26 134l-17 -90c-6 -31 -6 -72 -14 -104z" />
    <glyph glyph-name="Aacute" unicode="&#xc1;" horiz-adv-x="530" 
d="M334 781c-15 -12 -26 -30 -41 -46c-9 -11 -18 -19 -27 -30c-11 -12 -22 -25 -35 -36c-3 4 -9 6 -13 13s-8 14 -15 19l-12 6c-3 3 -8 7 -11 12c-3 3 -21 25 -27 25c4 7 10 10 17 15c9 8 16 19 23 28l24 32c8 8 18 16 27 27c7 7 15 8 22 15c-4 -5 -6 -10 -11 -17
c4 -3 9 -6 13 -6l10 7c3 0 4 -1 5 -3l1 -6c3 -5 7 -10 13 -15c12 -13 28 -25 37 -40zM464 147c18 -25 37 -46 56 -65c-3 2 -6 3 -7 3c-3 0 -4 0 -5 -1c-4 -1 -5 -3 -9 -8c-3 -5 -7 -11 -8 -15c-2 -3 -3 -6 -3 -9c-3 -3 -5 -12 -16 -12l-11 1c-3 0 -4 0 -5 -1
c-4 -4 -6 -8 -7 -13c-1 -7 -2 -12 -2 -17c-1 -4 -3 -7 -8 -10c-3 -3 -3 -4 -5 -7c-28 24 -50 52 -69 83l-23 35l-187 -39l-3 -24c-4 -35 -6 -68 -9 -101c-6 5 -4 13 -11 13l-7 -1c-11 -3 -21 -9 -24 -9c-2 -1 -5 -1 -10 -1c-3 0 -6 1 -8 2c-7 5 -8 12 -13 15l-5 1
c-11 0 -43 -11 -45 -15c1 39 5 73 10 108s9 69 16 104c11 60 24 117 35 174l2 12c8 43 16 84 23 125c7 47 11 89 12 136c5 2 10 3 15 3s8 -1 15 -2c11 -3 20 -5 29 -5l13 -1c5 0 8 2 11 5c5 4 6 16 9 16c1 0 3 -2 4 -6c1 -8 1 -14 1 -25l29 1c8 3 19 0 23 11c3 4 2 15 5 15
c2 0 4 -2 5 -6l12 -44c5 -11 12 -11 19 -14c-7 27 -14 53 -9 68c7 -31 17 -56 24 -88c11 -47 21 -92 36 -137l21 -69c5 -19 11 -37 18 -53l12 -30l34 6c-4 -10 -11 -5 -10 -12c1 -4 2 -7 4 -9c4 -10 11 -20 11 -21c1 -2 1 -5 2 -10c1 -4 1 -7 0 -8c0 -5 -8 -11 -8 -15l1 -3
c6 -11 13 -21 20 -31zM180 205c25 4 49 7 75 12c11 3 22 5 33 7l-19 44c-7 20 -14 38 -19 57c-11 31 -18 103 -26 134l-17 -90c-6 -31 -6 -72 -14 -104z" />
    <glyph glyph-name="Abreve" unicode="&#x102;" horiz-adv-x="530" 
d="M66 741c2 3 4 6 9 11l17 19l12 15c3 3 4 6 6 9c-1 5 -4 9 -2 12c0 0 2 0 5 -1c2 0 4 -2 9 -5l6 -6c2 -3 5 -4 6 -5c14 -3 10 6 -9 34c34 -37 59 -59 100 -59c39 0 59 14 91 55c6 -5 4 -9 10 -15c6 -7 15 -13 17 -15c4 -2 9 -14 13 -16l3 -4c0 -5 1 -10 6 -17
c4 -5 9 -3 15 -9c2 -2 3 -2 6 -4c-61 -54 -111 -78 -163 -78c-53 0 -101 24 -157 79zM464 147c18 -25 37 -46 56 -65c-3 2 -6 3 -7 3c-3 0 -4 0 -5 -1c-4 -1 -5 -3 -9 -8c-3 -5 -7 -11 -8 -15c-2 -3 -3 -6 -3 -9c-3 -3 -5 -12 -16 -12l-11 1c-3 0 -4 0 -5 -1
c-4 -4 -6 -8 -7 -13c-1 -7 -2 -12 -2 -17c-1 -4 -3 -7 -8 -10c-3 -3 -3 -4 -5 -7c-28 24 -50 52 -69 83l-23 35l-187 -39l-3 -24c-4 -35 -6 -68 -9 -101c-6 5 -4 13 -11 13l-7 -1c-11 -3 -21 -9 -24 -9c-2 -1 -5 -1 -10 -1c-3 0 -6 1 -8 2c-7 5 -8 12 -13 15l-5 1
c-11 0 -43 -11 -45 -15c1 39 5 73 10 108s9 69 16 104c11 60 24 117 35 174l2 12c8 43 16 84 23 125c7 47 11 89 12 136c5 2 10 3 15 3s8 -1 15 -2c11 -3 20 -5 29 -5l13 -1c5 0 8 2 11 5c5 4 6 16 9 16c1 0 3 -2 4 -6c1 -8 1 -14 1 -25l29 1c8 3 19 0 23 11c3 4 2 15 5 15
c2 0 4 -2 5 -6l12 -44c5 -11 12 -11 19 -14c-7 27 -14 53 -9 68c7 -31 17 -56 24 -88c11 -47 21 -92 36 -137l21 -69c5 -19 11 -37 18 -53l12 -30l34 6c-4 -10 -11 -5 -10 -12c1 -4 2 -7 4 -9c4 -10 11 -20 11 -21c1 -2 1 -5 2 -10c1 -4 1 -7 0 -8c0 -5 -8 -11 -8 -15l1 -3
c6 -11 13 -21 20 -31zM180 205c25 4 49 7 75 12c11 3 22 5 33 7l-19 44c-7 20 -14 38 -19 57c-11 31 -18 103 -26 134l-17 -90c-6 -31 -6 -72 -14 -104z" />
    <glyph glyph-name="Acircumflex" unicode="&#xc2;" horiz-adv-x="530" 
d="M91 779c-12 -8 -26 -18 -37 -14c12 8 28 19 43 26c26 11 47 23 70 35l51 25h17c13 -9 38 -23 52 -30c13 -6 23 -9 35 -16c20 -9 35 -21 52 -27c-2 -16 -12 -32 -18 -47c-3 -7 -5 -13 -6 -18l1 -6c0 -3 -1 -4 -4 -5l-11 3c-3 -2 -6 -7 -9 -9c7 -5 11 -9 16 -12
c-9 4 -17 1 -25 6c-12 6 -23 9 -34 14l-63 29c-60 -22 -90 -37 -110 -48c-8 8 -1 2 -5 9c-2 10 -8 18 -11 27c-4 6 -6 13 -15 17c-4 2 -9 3 -11 3c-1 0 -1 3 -1 4c5 9 17 10 24 18c3 6 -1 10 -1 16zM464 147c18 -25 37 -46 56 -65c-3 2 -6 3 -7 3c-3 0 -4 0 -5 -1
c-4 -1 -5 -3 -9 -8c-3 -5 -7 -11 -8 -15c-2 -3 -3 -6 -3 -9c-3 -3 -5 -12 -16 -12l-11 1c-3 0 -4 0 -5 -1c-4 -4 -6 -8 -7 -13c-1 -7 -2 -12 -2 -17c-1 -4 -3 -7 -8 -10c-3 -3 -3 -4 -5 -7c-28 24 -50 52 -69 83l-23 35l-187 -39l-3 -24c-4 -35 -6 -68 -9 -101
c-6 5 -4 13 -11 13l-7 -1c-11 -3 -21 -9 -24 -9c-2 -1 -5 -1 -10 -1c-3 0 -6 1 -8 2c-7 5 -8 12 -13 15l-5 1c-11 0 -43 -11 -45 -15c1 39 5 73 10 108s9 69 16 104c11 60 24 117 35 174l2 12c8 43 16 84 23 125c7 47 11 89 12 136c5 2 10 3 15 3s8 -1 15 -2
c11 -3 20 -5 29 -5l13 -1c5 0 8 2 11 5c5 4 6 16 9 16c1 0 3 -2 4 -6c1 -8 1 -14 1 -25l29 1c8 3 19 0 23 11c3 4 2 15 5 15c2 0 4 -2 5 -6l12 -44c5 -11 12 -11 19 -14c-7 27 -14 53 -9 68c7 -31 17 -56 24 -88c11 -47 21 -92 36 -137l21 -69c5 -19 11 -37 18 -53l12 -30
l34 6c-4 -10 -11 -5 -10 -12c1 -4 2 -7 4 -9c4 -10 11 -20 11 -21c1 -2 1 -5 2 -10c1 -4 1 -7 0 -8c0 -5 -8 -11 -8 -15l1 -3c6 -11 13 -21 20 -31zM180 205c25 4 49 7 75 12c11 3 22 5 33 7l-19 44c-7 20 -14 38 -19 57c-11 31 -18 103 -26 134l-17 -90
c-6 -31 -6 -72 -14 -104z" />
    <glyph glyph-name="Adieresis" unicode="&#xc4;" horiz-adv-x="530" 
d="M202 810c-3 -22 -3 -38 -2 -56c1 -17 2 -34 -1 -51c-4 2 -10 -1 -18 1c-8 3 -16 5 -23 4l-14 -4c-5 0 -10 0 -16 2c-4 -1 -32 3 -37 -2c-2 9 1 16 2 24c2 11 -3 24 -1 36c0 19 0 32 1 32c-1 11 4 17 5 27c0 -6 2 -12 4 -20c4 0 11 1 13 4l3 13c1 1 3 1 5 0l6 -4
c5 -1 11 -2 19 -1c18 -2 37 0 54 -5zM244 819c2 -4 3 -9 15 -12l2 12c2 2 3 2 5 1l6 -4c6 -1 11 -2 20 -1c17 -1 36 0 54 -6c-5 -21 -3 -37 -2 -55c0 -16 1 -34 -1 -51l-8 5l-5 10c-3 -9 -22 -9 -29 -10l-14 -3c-4 0 -9 -2 -16 1c-3 -1 -32 3 -36 -1c-3 8 0 15 2 23
c1 12 -4 24 -2 36c0 19 1 32 1 32c0 9 3 14 4 21zM464 147c18 -25 37 -46 56 -65c-3 2 -6 3 -7 3c-3 0 -4 0 -5 -1c-4 -1 -5 -3 -9 -8c-3 -5 -7 -11 -8 -15c-2 -3 -3 -6 -3 -9c-3 -3 -5 -12 -16 -12l-11 1c-3 0 -4 0 -5 -1c-4 -4 -6 -8 -7 -13c-1 -7 -2 -12 -2 -17
c-1 -4 -3 -7 -8 -10c-3 -3 -3 -4 -5 -7c-28 24 -50 52 -69 83l-23 35l-187 -39l-3 -24c-4 -35 -6 -68 -9 -101c-6 5 -4 13 -11 13l-7 -1c-11 -3 -21 -9 -24 -9c-2 -1 -5 -1 -10 -1c-3 0 -6 1 -8 2c-7 5 -8 12 -13 15l-5 1c-11 0 -43 -11 -45 -15c1 39 5 73 10 108
s9 69 16 104c11 60 24 117 35 174l2 12c8 43 16 84 23 125c7 47 11 89 12 136c5 2 10 3 15 3s8 -1 15 -2c11 -3 20 -5 29 -5l13 -1c5 0 8 2 11 5c5 4 6 16 9 16c1 0 3 -2 4 -6c1 -8 1 -14 1 -25l29 1c8 3 19 0 23 11c3 4 2 15 5 15c2 0 4 -2 5 -6l12 -44
c5 -11 12 -11 19 -14c-7 27 -14 53 -9 68c7 -31 17 -56 24 -88c11 -47 21 -92 36 -137l21 -69c5 -19 11 -37 18 -53l12 -30l34 6c-4 -10 -11 -5 -10 -12c1 -4 2 -7 4 -9c4 -10 11 -20 11 -21c1 -2 1 -5 2 -10c1 -4 1 -7 0 -8c0 -5 -8 -11 -8 -15l1 -3c6 -11 13 -21 20 -31z
M180 205c25 4 49 7 75 12c11 3 22 5 33 7l-19 44c-7 20 -14 38 -19 57c-11 31 -18 103 -26 134l-17 -90c-6 -31 -6 -72 -14 -104z" />
    <glyph glyph-name="Agrave" unicode="&#xc0;" horiz-adv-x="530" 
d="M144 781c9 15 25 27 37 40c6 5 10 10 13 15l1 6c1 2 2 3 5 3l10 -7c4 0 9 3 13 6c-5 7 -7 12 -11 17c7 -7 15 -8 22 -15c9 -11 19 -19 27 -27l24 -32c7 -9 14 -20 23 -28c7 -5 13 -8 17 -15c-6 0 -24 -22 -27 -25c-3 -5 -8 -9 -11 -12l-12 -6c-7 -5 -11 -12 -15 -19
s-10 -9 -13 -13c-13 11 -24 24 -35 36c-9 11 -18 19 -27 30c-15 16 -26 34 -41 46zM464 147c18 -25 37 -46 56 -65c-3 2 -6 3 -7 3c-3 0 -4 0 -5 -1c-4 -1 -5 -3 -9 -8c-3 -5 -7 -11 -8 -15c-2 -3 -3 -6 -3 -9c-3 -3 -5 -12 -16 -12l-11 1c-3 0 -4 0 -5 -1
c-4 -4 -6 -8 -7 -13c-1 -7 -2 -12 -2 -17c-1 -4 -3 -7 -8 -10c-3 -3 -3 -4 -5 -7c-28 24 -50 52 -69 83l-23 35l-187 -39l-3 -24c-4 -35 -6 -68 -9 -101c-6 5 -4 13 -11 13l-7 -1c-11 -3 -21 -9 -24 -9c-2 -1 -5 -1 -10 -1c-3 0 -6 1 -8 2c-7 5 -8 12 -13 15l-5 1
c-11 0 -43 -11 -45 -15c1 39 5 73 10 108s9 69 16 104c11 60 24 117 35 174l2 12c8 43 16 84 23 125c7 47 11 89 12 136c5 2 10 3 15 3s8 -1 15 -2c11 -3 20 -5 29 -5l13 -1c5 0 8 2 11 5c5 4 6 16 9 16c1 0 3 -2 4 -6c1 -8 1 -14 1 -25l29 1c8 3 19 0 23 11c3 4 2 15 5 15
c2 0 4 -2 5 -6l12 -44c5 -11 12 -11 19 -14c-7 27 -14 53 -9 68c7 -31 17 -56 24 -88c11 -47 21 -92 36 -137l21 -69c5 -19 11 -37 18 -53l12 -30l34 6c-4 -10 -11 -5 -10 -12c1 -4 2 -7 4 -9c4 -10 11 -20 11 -21c1 -2 1 -5 2 -10c1 -4 1 -7 0 -8c0 -5 -8 -11 -8 -15l1 -3
c6 -11 13 -21 20 -31zM180 205c25 4 49 7 75 12c11 3 22 5 33 7l-19 44c-7 20 -14 38 -19 57c-11 31 -18 103 -26 134l-17 -90c-6 -31 -6 -72 -14 -104z" />
    <glyph glyph-name="Amacron" unicode="&#x100;" horiz-adv-x="530" 
d="M70 707c0 3 -1 7 0 13l1 29l-1 12c0 4 0 7 -1 14c-4 3 -8 4 -8 7l3 3c2 0 6 1 10 1h8c2 -2 5 -1 7 -1c6 3 6 9 10 13c-14 0 -23 2 -37 6l49 3c38 -8 74 -5 111 -7l143 -1c1 -6 -2 -8 -2 -14c-1 -9 2 -24 2 -26c1 -3 0 -6 1 -10v-5c-2 -4 -5 -6 -7 -14c1 -7 6 -8 6 -15
c0 -10 0 -11 1 -14h-115c-32 2 -61 6 -95 6h-86zM464 147c18 -25 37 -46 56 -65c-3 2 -6 3 -7 3c-3 0 -4 0 -5 -1c-4 -1 -5 -3 -9 -8c-3 -5 -7 -11 -8 -15c-2 -3 -3 -6 -3 -9c-3 -3 -5 -12 -16 -12l-11 1c-3 0 -4 0 -5 -1c-4 -4 -6 -8 -7 -13c-1 -7 -2 -12 -2 -17
c-1 -4 -3 -7 -8 -10c-3 -3 -3 -4 -5 -7c-28 24 -50 52 -69 83l-23 35l-187 -39l-3 -24c-4 -35 -6 -68 -9 -101c-6 5 -4 13 -11 13l-7 -1c-11 -3 -21 -9 -24 -9c-2 -1 -5 -1 -10 -1c-3 0 -6 1 -8 2c-7 5 -8 12 -13 15l-5 1c-11 0 -43 -11 -45 -15c1 39 5 73 10 108
s9 69 16 104c11 60 24 117 35 174l2 12c8 43 16 84 23 125c7 47 11 89 12 136c5 2 10 3 15 3s8 -1 15 -2c11 -3 20 -5 29 -5l13 -1c5 0 8 2 11 5c5 4 6 16 9 16c1 0 3 -2 4 -6c1 -8 1 -14 1 -25l29 1c8 3 19 0 23 11c3 4 2 15 5 15c2 0 4 -2 5 -6l12 -44
c5 -11 12 -11 19 -14c-7 27 -14 53 -9 68c7 -31 17 -56 24 -88c11 -47 21 -92 36 -137l21 -69c5 -19 11 -37 18 -53l12 -30l34 6c-4 -10 -11 -5 -10 -12c1 -4 2 -7 4 -9c4 -10 11 -20 11 -21c1 -2 1 -5 2 -10c1 -4 1 -7 0 -8c0 -5 -8 -11 -8 -15l1 -3c6 -11 13 -21 20 -31z
M180 205c25 4 49 7 75 12c11 3 22 5 33 7l-19 44c-7 20 -14 38 -19 57c-11 31 -18 103 -26 134l-17 -90c-6 -31 -6 -72 -14 -104z" />
    <glyph glyph-name="Aogonek" unicode="&#x104;" horiz-adv-x="530" 
d="M513 -188c3 -3 3 -6 7 -7c-46 -33 -87 -54 -136 -55c-80 0 -117 57 -122 102c-2 18 9 60 20 77c17 27 42 59 69 90l31 31c-6 9 -12 17 -17 26l-23 35l-187 -39l-3 -24c-4 -35 -6 -68 -9 -101c-6 5 -4 13 -11 13l-7 -1c-11 -3 -21 -9 -24 -9c-2 -1 -5 -1 -10 -1
c-3 0 -6 1 -8 2c-7 5 -8 12 -13 15l-5 1c-11 0 -43 -11 -45 -15c1 39 5 73 10 108s9 69 16 104c11 60 24 117 35 174l2 12c8 43 16 84 23 125c7 47 11 89 12 136c5 2 10 3 15 3s8 -1 15 -2c11 -3 20 -5 29 -5l13 -1c5 0 8 2 11 5c5 4 6 16 9 16c1 0 3 -2 4 -6
c1 -8 1 -14 1 -25l29 1c8 3 19 0 23 11c3 4 2 15 5 15c2 0 4 -2 5 -6l12 -44c5 -11 12 -11 19 -14c-7 27 -14 53 -9 68c7 -31 17 -56 24 -88c11 -47 21 -92 36 -137l21 -69c5 -19 11 -37 18 -53l12 -30l34 6c-4 -10 -11 -5 -10 -12c1 -4 2 -7 4 -9c4 -10 11 -20 11 -21
c1 -2 1 -5 2 -10c1 -4 1 -7 0 -8c0 -5 -8 -11 -8 -15l1 -3c6 -11 13 -21 20 -31c18 -25 37 -46 56 -65c-3 2 -6 3 -7 3c-3 0 -4 0 -5 -1c-4 -1 -5 -3 -9 -8c-3 -5 -7 -11 -8 -15c-2 -3 -3 -6 -3 -9c-2 -2 -4 -7 -7 -9c-17 -18 -76 -89 -90 -109s-26 -39 -26 -59
c0 -16 8 -31 26 -31c19 0 38 11 70 33l9 -3l8 -12c-3 -2 16 -29 23 -30c5 -1 9 -16 12 -20zM255 217c11 3 22 5 33 7l-19 44c-7 20 -14 38 -19 57c-11 31 -18 103 -26 134l-17 -90c-6 -31 -6 -72 -14 -104l-13 -60c25 4 49 7 75 12z" />
    <glyph glyph-name="Aring" unicode="&#xc5;" horiz-adv-x="530" 
d="M464 147c18 -25 37 -46 56 -65c-3 2 -6 3 -7 3c-3 0 -4 0 -5 -1c-4 -1 -5 -3 -9 -8c-3 -5 -7 -11 -8 -15c-2 -3 -3 -6 -3 -9c-3 -3 -5 -12 -16 -12l-11 1c-3 0 -4 0 -5 -1c-4 -4 -6 -8 -7 -13c-1 -7 -2 -12 -2 -17c-1 -4 -3 -7 -8 -10c-3 -3 -3 -4 -5 -7
c-28 24 -50 52 -69 83l-23 35l-187 -39l-3 -24c-4 -35 -6 -68 -9 -101c-6 5 -4 13 -11 13l-7 -1c-11 -3 -21 -9 -24 -9c-2 -1 -5 -1 -10 -1c-3 0 -6 1 -8 2c-7 5 -8 12 -13 15l-5 1c-11 0 -43 -11 -45 -15c1 39 5 73 10 108s9 69 16 104c11 60 24 117 35 174l2 12
c8 43 16 84 23 125c4 30 8 57 10 85c-25 29 -31 71 -26 101c3 44 25 70 33 80c17 20 49 37 74 47h7l27 5c10 1 18 1 24 1c9 0 12 2 17 2l11 -3l14 -8l5 -6c3 -1 5 -4 8 -8l13 -15c10 -19 20 -35 26 -59c2 -11 -3 -49 -3 -53c-4 -30 -14 -56 -31 -76c3 -9 6 -19 8 -29
c11 -47 21 -92 36 -137l21 -69c5 -19 11 -37 18 -53l12 -30l34 6c-4 -10 -11 -5 -10 -12c1 -4 2 -7 4 -9c4 -10 11 -20 11 -21c1 -2 1 -5 2 -10c1 -4 1 -7 0 -8c0 -5 -8 -11 -8 -15l1 -3c6 -11 13 -21 20 -31zM222 707c-25 0 -47 -23 -47 -51s5 -50 47 -50c25 0 52 23 47 63
c-5 38 -22 38 -47 38zM180 205c25 4 49 7 75 12c11 3 22 5 33 7l-19 44c-7 20 -14 38 -19 57c-11 31 -18 103 -26 134l-17 -90c-6 -31 -6 -72 -14 -104z" />
    <glyph glyph-name="Atilde" unicode="&#xc3;" horiz-adv-x="530" 
d="M109 839c18 -19 42 -33 66 -33c36 0 62 32 107 32c42 0 91 -29 106 -48c-3 -3 -4 -3 -5 -7c-5 -5 -10 -4 -14 -9c-4 -7 -3 -12 -3 -17l-3 -5c-4 -3 -7 -16 -10 -19c-2 -1 -10 -8 -16 -16c-4 -8 -2 -10 -6 -17c-19 17 -35 33 -70 33c-37 0 -53 -32 -99 -32
c-41 0 -90 23 -109 51c2 3 3 7 8 13l14 21l12 24c2 5 2 8 4 11c-1 5 -5 8 -4 11c0 0 3 0 5 1c2 -1 6 -2 10 -5l7 -4c2 -3 5 -4 7 -5l-9 19zM464 147c18 -25 37 -46 56 -65c-3 2 -6 3 -7 3c-3 0 -4 0 -5 -1c-4 -1 -5 -3 -9 -8c-3 -5 -7 -11 -8 -15c-2 -3 -3 -6 -3 -9
c-3 -3 -5 -12 -16 -12l-11 1c-3 0 -4 0 -5 -1c-4 -4 -6 -8 -7 -13c-1 -7 -2 -12 -2 -17c-1 -4 -3 -7 -8 -10c-3 -3 -3 -4 -5 -7c-28 24 -50 52 -69 83l-23 35l-187 -39l-3 -24c-4 -35 -6 -68 -9 -101c-6 5 -4 13 -11 13l-7 -1c-11 -3 -21 -9 -24 -9c-2 -1 -5 -1 -10 -1
c-3 0 -6 1 -8 2c-7 5 -8 12 -13 15l-5 1c-11 0 -43 -11 -45 -15c1 39 5 73 10 108s9 69 16 104c11 60 24 117 35 174l2 12c8 43 16 84 23 125c7 47 11 89 12 136c5 2 10 3 15 3s8 -1 15 -2c11 -3 20 -5 29 -5l13 -1c5 0 8 2 11 5c5 4 6 16 9 16c1 0 3 -2 4 -6
c1 -8 1 -14 1 -25l29 1c8 3 19 0 23 11c3 4 2 15 5 15c2 0 4 -2 5 -6l12 -44c5 -11 12 -11 19 -14c-7 27 -14 53 -9 68c7 -31 17 -56 24 -88c11 -47 21 -92 36 -137l21 -69c5 -19 11 -37 18 -53l12 -30l34 6c-4 -10 -11 -5 -10 -12c1 -4 2 -7 4 -9c4 -10 11 -20 11 -21
c1 -2 1 -5 2 -10c1 -4 1 -7 0 -8c0 -5 -8 -11 -8 -15l1 -3c6 -11 13 -21 20 -31zM180 205c25 4 49 7 75 12c11 3 22 5 33 7l-19 44c-7 20 -14 38 -19 57c-11 31 -18 103 -26 134l-17 -90c-6 -31 -6 -72 -14 -104z" />
    <glyph glyph-name="AE" unicode="&#xc6;" horiz-adv-x="735" 
d="M512 124c72 -9 109 -16 203 -42v-4c0 -9 -1 -17 -4 -25c-4 -11 -8 -19 -11 -30c-1 -5 -4 -11 -4 -18l1 -5c3 -4 6 -6 6 -9c0 -1 -1 -2 -4 -3c-1 -1 -2 -1 -4 -1c-7 0 -13 5 -20 5c-7 -3 -9 -8 -14 -12c15 -5 36 -7 35 -16c-3 1 -59 11 -103 22c-68 17 -87 18 -127 18h-9
l-10 -2l-8 -2c-11 -3 -19 -9 -22 -9c-3 -1 -7 -3 -10 -3c-1 0 -3 1 -6 2l-17 14c-9 0 -15 -8 -23 -15c-3 -1 -5 -2 -6 -2l-8 1c-2 0 -4 0 -5 -1c-1 36 -2 72 -2 108v13h-6c-67 -14 -127 -18 -158 -11c-3 -12 -7 -27 -17 -56c-11 -34 -20 -66 -29 -97c1 9 -2 13 -8 15h-8
c-11 0 -22 -4 -25 -4c-2 0 -5 1 -10 2c-3 0 -6 2 -7 3c-6 7 -6 14 -10 18l-5 2c-8 1 -17 -5 -26 -7c-2 -2 -4 -2 -6 -2l-10 5c-2 1 -3 0 -5 -2c9 38 20 73 33 104c14 33 25 65 39 98c23 57 46 110 68 163l5 11c16 41 34 74 50 115c20 53 37 88 58 135l19 3l3 -1
c5 0 8 2 11 5c5 4 6 16 9 16c1 0 3 -2 4 -6c1 -8 1 -14 1 -25h19l3 1h7c4 1 8 1 13 2c-1 6 -1 12 -1 18c5 3 11 4 18 4l9 -1c9 -1 16 -3 24 -3h4l11 -1c4 0 7 2 10 6c4 5 4 15 7 15c1 0 3 -2 4 -6c3 -7 3 -17 3 -26h57c76 0 127 -5 192 -19v-5c0 -8 -1 -16 -3 -24
c-3 -11 -4 -20 -7 -29c-1 -7 -2 -12 -2 -17c0 -3 0 -6 1 -8c1 -3 5 -5 5 -8c0 -1 -1 -2 -3 -3c-1 -1 -3 -1 -6 -1l-15 1c-7 -1 -7 -8 -10 -13c12 -3 28 -1 30 -10c-1 0 -6 1 -87 5c-31 3 -62 7 -99 7c-9 1 -18 2 -27 2v-102l14 1c23 3 44 2 65 2l41 4c15 3 28 4 40 5
c-2 0 -3 -3 -3 -8c0 -12 6 -32 6 -35c1 -4 1 -9 1 -13v-5c-1 -7 -5 -9 -5 -18s4 -17 7 -25l1 -20l-124 -11c-16 -3 -34 -4 -51 -5l-1 -18c-3 -35 -5 -69 -5 -105c19 0 40 -1 59 -2zM353 480v10l-1 4l-67 -162c-13 -32 -42 -89 -56 -119c11 -1 21 -2 75 19c14 1 26 1 40 1
l5 116c1 44 4 88 4 131zM627 389v0z" />
    <glyph glyph-name="B" unicode="B" horiz-adv-x="566" 
d="M531 198c0 -31 -6 -61 -19 -88c-6 -12 -10 -23 -18 -34s-18 -19 -29 -29c-9 -8 -18 -19 -29 -26c-37 -24 -82 -40 -133 -43h-198c7 0 12 1 15 4c1 3 2 4 2 5c0 2 -1 4 -2 7c-3 8 -13 16 -13 19c-1 3 -3 6 -3 9l-3 1c-4 -3 -4 -4 -9 -6c-2 -2 -4 -3 -7 -3s-6 2 -10 2
c-1 0 -3 0 -4 -1c-1 60 -1 119 -1 183v46c0 37 0 76 1 113c3 85 11 172 24 261c2 1 5 1 10 1c6 0 13 -1 20 -3c9 -3 19 -6 28 -7l18 -4c0 1 0 1 -1 2h-1c-4 3 -14 4 -14 7c0 1 2 2 7 4c7 1 14 2 21 2c1 2 2 3 4 3s3 -1 3 -3h17c13 3 13 8 20 12c-24 1 -55 -4 -72 4l47 3
c11 1 22 1 34 1h15c27 -1 52 -4 79 -8c13 -3 28 -4 43 -8c16 -6 31 -14 45 -22c7 -4 14 -7 21 -12s14 -12 20 -18c7 -6 12 -13 17 -20c8 -12 13 -25 16 -39c1 -6 3 -19 3 -26c0 -12 -2 -24 -4 -35c-2 -13 -7 -32 -12 -43c-14 -32 -51 -60 -72 -65c24 -10 44 -18 60 -27
c12 -7 23 -15 30 -25c28 -36 34 -81 34 -94zM207 538c0 -3 0 -6 -1 -7c-3 -35 -4 -113 -5 -150c67 -5 112 1 138 19c8 6 15 13 19 22c17 31 5 52 5 63c0 12 -15 21 -26 28c-22 16 -56 24 -103 25h-27zM405 196c0 25 -3 40 -21 55c-10 7 -27 21 -44 24c-21 4 -41 9 -70 9
c-1 3 -3 6 -3 9c-16 -7 -34 -11 -50 -16c0 12 13 10 5 18c-7 9 -16 16 -16 17c-4 4 -6 9 -6 14c1 5 7 10 7 15c-1 3 -3 7 -7 11c-4 -48 -8 -65 -7 -104c1 -25 -2 -51 -2 -76c0 -9 1 -18 2 -27v-11l1 -54h48c62 0 98 12 126 43c4 5 18 19 21 24c11 16 16 32 16 49z" />
    <glyph glyph-name="C" unicode="C" horiz-adv-x="537" 
d="M482 558c0 -9 -6 -16 -13 -21c-8 -7 -18 -14 -22 -22l-9 -8c-1 -1 -1 -3 -1 -6c0 -4 1 -8 4 -11l16 -15c1 -1 1 -2 1 -4c-2 0 -5 1 -10 3c-11 3 -24 11 -37 18c-13 8 -26 14 -37 17c-6 2 -11 3 -15 3c-3 0 -4 -1 -5 -1c-7 -1 -9 -3 -13 -4c9 -3 22 -14 31 -14l28 -12
c15 -11 51 -20 43 -32c-22 14 -45 26 -69 35c-13 5 -23 8 -35 13c-11 4 -23 5 -35 8c-10 3 -21 4 -32 4c-7 0 -11 0 -14 -1c-7 -1 -12 -3 -17 -6c-7 -3 -11 -6 -15 -10c-5 -4 -10 -9 -13 -14c-6 -6 -10 -12 -13 -19c-7 -15 -12 -30 -19 -49c-5 -20 -8 -40 -11 -61
c-3 -23 -5 -43 -5 -64s1 -41 3 -61c3 -19 7 -36 14 -52c8 -15 14 -26 25 -35s21 -16 36 -20c11 -3 23 -5 36 -5l12 1c16 1 34 3 53 9c30 9 46 21 94 54c-1 -12 -11 -14 -11 -19c0 -3 -1 -5 4 -9c4 -3 12 -5 16 -6c7 -3 10 -2 11 -5c5 -3 11 -5 11 -14c-3 -3 -5 -9 -9 -14
c-3 -5 -5 -8 -5 -11c1 -4 5 -7 14 -9c7 -1 15 -1 22 -1c5 -1 5 -4 8 -8c3 -3 4 -6 8 -7c-59 -38 -92 -55 -122 -65c-15 -7 -32 -9 -51 -13c-16 -3 -35 -4 -54 -4c-20 0 -38 1 -59 5c-19 5 -40 12 -57 23c-16 8 -30 20 -45 32c-12 13 -24 27 -32 42c-11 15 -18 29 -23 44
c-5 16 -10 31 -14 46c-7 31 -10 60 -10 88v21c0 21 1 42 3 64l1 6c3 19 6 39 11 62s10 45 21 68l18 36c7 11 16 22 24 34c10 11 21 21 32 29c13 9 25 17 40 24c13 7 28 9 41 12c15 4 29 5 44 5c27 0 53 -5 77 -12c23 -7 44 -14 67 -23c19 -9 40 -19 60 -31z" />
    <glyph glyph-name="Cacute" unicode="&#x106;" horiz-adv-x="537" 
d="M401 781c-15 -12 -26 -30 -41 -46c-9 -11 -18 -19 -27 -30c-11 -12 -22 -25 -35 -36c-3 4 -9 6 -13 13s-8 14 -15 19l-12 6c-3 3 -8 7 -11 12c-3 3 -21 25 -27 25c4 7 10 10 17 15c9 8 16 19 23 28l24 32c8 8 18 16 27 27c7 7 15 8 22 15c-4 -5 -6 -10 -11 -17
c4 -3 9 -6 13 -6l10 7c3 0 4 -1 5 -3l1 -6c3 -5 7 -10 13 -15c12 -13 28 -25 37 -40zM482 558c0 -9 -6 -16 -13 -21c-8 -7 -18 -14 -22 -22l-9 -8c-1 -1 -1 -3 -1 -6c0 -4 1 -8 4 -11l16 -15c1 -1 1 -2 1 -4c-2 0 -5 1 -10 3c-11 3 -24 11 -37 18c-13 8 -26 14 -37 17
c-6 2 -11 3 -15 3c-3 0 -4 -1 -5 -1c-7 -1 -9 -3 -13 -4c9 -3 22 -14 31 -14l28 -12c15 -11 51 -20 43 -32c-22 14 -45 26 -69 35c-13 5 -23 8 -35 13c-11 4 -23 5 -35 8c-10 3 -21 4 -32 4c-7 0 -11 0 -14 -1c-7 -1 -12 -3 -17 -6c-7 -3 -11 -6 -15 -10
c-5 -4 -10 -9 -13 -14c-6 -6 -10 -12 -13 -19c-7 -15 -12 -30 -19 -49c-5 -20 -8 -40 -11 -61c-3 -23 -5 -43 -5 -64s1 -41 3 -61c3 -19 7 -36 14 -52c8 -15 14 -26 25 -35s21 -16 36 -20c11 -3 23 -5 36 -5l12 1c16 1 34 3 53 9c30 9 46 21 94 54c-1 -12 -11 -14 -11 -19
c0 -3 -1 -5 4 -9c4 -3 12 -5 16 -6c7 -3 10 -2 11 -5c5 -3 11 -5 11 -14c-3 -3 -5 -9 -9 -14c-3 -5 -5 -8 -5 -11c1 -4 5 -7 14 -9c7 -1 15 -1 22 -1c5 -1 5 -4 8 -8c3 -3 4 -6 8 -7c-59 -38 -92 -55 -122 -65c-15 -7 -32 -9 -51 -13c-16 -3 -35 -4 -54 -4
c-20 0 -38 1 -59 5c-19 5 -40 12 -57 23c-16 8 -30 20 -45 32c-12 13 -24 27 -32 42c-11 15 -18 29 -23 44c-5 16 -10 31 -14 46c-7 31 -10 60 -10 88v21c0 21 1 42 3 64l1 6c3 19 6 39 11 62s10 45 21 68l18 36c7 11 16 22 24 34c10 11 21 21 32 29c13 9 25 17 40 24
c13 7 28 9 41 12c15 4 29 5 44 5c27 0 53 -5 77 -12c23 -7 44 -14 67 -23c19 -9 40 -19 60 -31z" />
    <glyph glyph-name="Ccaron" unicode="&#x10c;" horiz-adv-x="537" 
d="M418 748c12 8 26 18 37 14c-12 -8 -28 -19 -43 -26c-26 -11 -47 -23 -70 -35l-51 -25h-17c-13 9 -38 23 -52 30c-13 6 -23 9 -35 16c-20 9 -35 21 -52 27c2 16 12 32 18 47c3 7 5 13 6 18l-1 6c0 3 1 4 4 5l11 -3c3 2 6 7 9 9c-7 5 -11 9 -16 12c9 -4 17 -1 25 -6
c12 -6 23 -9 34 -14l63 -29c60 22 90 37 110 48c8 -8 1 -2 5 -9c2 -10 8 -18 11 -27c4 -6 6 -13 15 -17c4 -2 9 -3 11 -3c1 0 1 -3 1 -4c-5 -9 -17 -10 -24 -18c-3 -6 1 -10 1 -16zM482 558c0 -9 -6 -16 -13 -21c-8 -7 -18 -14 -22 -22l-9 -8c-1 -1 -1 -3 -1 -6
c0 -4 1 -8 4 -11l16 -15c1 -1 1 -2 1 -4c-2 0 -5 1 -10 3c-11 3 -24 11 -37 18c-13 8 -26 14 -37 17c-6 2 -11 3 -15 3c-3 0 -4 -1 -5 -1c-7 -1 -9 -3 -13 -4c9 -3 22 -14 31 -14l28 -12c15 -11 51 -20 43 -32c-22 14 -45 26 -69 35c-13 5 -23 8 -35 13c-11 4 -23 5 -35 8
c-10 3 -21 4 -32 4c-7 0 -11 0 -14 -1c-7 -1 -12 -3 -17 -6c-7 -3 -11 -6 -15 -10c-5 -4 -10 -9 -13 -14c-6 -6 -10 -12 -13 -19c-7 -15 -12 -30 -19 -49c-5 -20 -8 -40 -11 -61c-3 -23 -5 -43 -5 -64s1 -41 3 -61c3 -19 7 -36 14 -52c8 -15 14 -26 25 -35s21 -16 36 -20
c11 -3 23 -5 36 -5l12 1c16 1 34 3 53 9c30 9 46 21 94 54c-1 -12 -11 -14 -11 -19c0 -3 -1 -5 4 -9c4 -3 12 -5 16 -6c7 -3 10 -2 11 -5c5 -3 11 -5 11 -14c-3 -3 -5 -9 -9 -14c-3 -5 -5 -8 -5 -11c1 -4 5 -7 14 -9c7 -1 15 -1 22 -1c5 -1 5 -4 8 -8c3 -3 4 -6 8 -7
c-59 -38 -92 -55 -122 -65c-15 -7 -32 -9 -51 -13c-16 -3 -35 -4 -54 -4c-20 0 -38 1 -59 5c-19 5 -40 12 -57 23c-16 8 -30 20 -45 32c-12 13 -24 27 -32 42c-11 15 -18 29 -23 44c-5 16 -10 31 -14 46c-7 31 -10 60 -10 88v21c0 21 1 42 3 64l1 6c3 19 6 39 11 62
s10 45 21 68l18 36c7 11 16 22 24 34c10 11 21 21 32 29c13 9 25 17 40 24c13 7 28 9 41 12c15 4 29 5 44 5c27 0 53 -5 77 -12c23 -7 44 -14 67 -23c19 -9 40 -19 60 -31z" />
    <glyph glyph-name="Ccedilla" unicode="&#xc7;" horiz-adv-x="537" 
d="M369 -74c11 -17 20 -35 21 -60c1 -28 -5 -47 -10 -57c-14 -50 -75 -59 -114 -59c-49 1 -91 23 -138 56c4 1 5 4 8 7c3 4 3 7 8 8c7 0 22 28 19 31l8 11l10 3c28 -20 51 -34 83 -34c23 0 33 11 37 30c4 21 -18 49 -58 23c-4 2 -8 6 -15 14c-3 3 -8 7 -11 12
c-3 3 -21 25 -27 25l32 54l3 5c-1 0 -3 1 -4 1c-19 5 -40 12 -57 23c-16 8 -30 20 -45 32c-12 13 -24 27 -32 42c-11 15 -18 29 -23 44c-5 16 -10 31 -14 46c-7 31 -10 60 -10 88v21c0 21 1 42 3 64l1 6c3 19 6 39 11 62s10 45 21 68l18 36c7 11 16 22 24 34
c10 11 21 21 32 29c13 9 25 17 40 24c13 7 28 9 41 12c15 4 29 5 44 5c27 0 53 -5 77 -12c23 -7 44 -14 67 -23c19 -9 40 -19 60 -31l3 -8c0 -9 -6 -16 -13 -21c-8 -7 -18 -14 -22 -22l-9 -8c-1 -1 -1 -3 -1 -6c0 -4 1 -8 4 -11l16 -15c1 -1 1 -2 1 -4c-2 0 -5 1 -10 3
c-11 3 -24 11 -37 18c-13 8 -26 14 -37 17c-6 2 -11 3 -15 3c-3 0 -4 -1 -5 -1c-7 -1 -9 -3 -13 -4c9 -3 22 -14 31 -14l28 -12c15 -11 51 -20 43 -32c-22 14 -45 26 -69 35c-13 5 -23 8 -35 13c-11 4 -23 5 -35 8c-10 3 -21 4 -32 4c-7 0 -11 0 -14 -1c-7 -1 -12 -3 -17 -6
c-7 -3 -11 -6 -15 -10c-5 -4 -10 -9 -13 -14c-6 -6 -10 -12 -13 -19c-7 -15 -12 -30 -19 -49c-5 -20 -8 -40 -11 -61c-3 -23 -5 -43 -5 -64s1 -41 3 -61c3 -19 7 -36 14 -52c8 -15 14 -26 25 -35s21 -16 36 -20c11 -3 23 -5 36 -5l12 1c16 1 34 3 53 9c30 9 46 21 94 54
c-1 -12 -11 -14 -11 -19c0 -3 -1 -5 4 -9c4 -3 12 -5 16 -6c7 -3 10 -2 11 -5c5 -3 11 -5 11 -14c-3 -3 -5 -9 -9 -14c-3 -5 -5 -8 -5 -11c1 -4 5 -7 14 -9c7 -1 15 -1 22 -1c5 -1 5 -4 8 -8c3 -3 4 -6 8 -7c-59 -38 -92 -55 -122 -65c-15 -7 -32 -9 -51 -13
c-8 -2 -17 -3 -26 -3c-5 -8 -12 -18 -20 -29c17 3 35 -2 50 -10c14 -8 25 -11 31 -27z" />
    <glyph glyph-name="Cdotaccent" unicode="&#x10a;" horiz-adv-x="537" 
d="M340 812c-5 -22 -3 -40 -2 -58c0 -18 1 -36 -1 -53c-5 1 -12 -2 -20 0c-8 3 -16 5 -24 4l-14 -3c-5 0 -11 -1 -18 1c-3 -1 -33 3 -38 -1c-2 9 0 16 2 24c2 13 -3 25 -2 38c0 20 1 34 1 34c0 11 5 17 6 28c0 -6 2 -12 4 -21c5 0 11 1 15 4l2 13c2 2 3 2 6 1l5 -4
c6 -2 12 -3 21 -2c19 -1 39 0 57 -5zM482 558c0 -9 -6 -16 -13 -21c-8 -7 -18 -14 -22 -22l-9 -8c-1 -1 -1 -3 -1 -6c0 -4 1 -8 4 -11l16 -15c1 -1 1 -2 1 -4c-2 0 -5 1 -10 3c-11 3 -24 11 -37 18c-13 8 -26 14 -37 17c-6 2 -11 3 -15 3c-3 0 -4 -1 -5 -1
c-7 -1 -9 -3 -13 -4c9 -3 22 -14 31 -14l28 -12c15 -11 51 -20 43 -32c-22 14 -45 26 -69 35c-13 5 -23 8 -35 13c-11 4 -23 5 -35 8c-10 3 -21 4 -32 4c-7 0 -11 0 -14 -1c-7 -1 -12 -3 -17 -6c-7 -3 -11 -6 -15 -10c-5 -4 -10 -9 -13 -14c-6 -6 -10 -12 -13 -19
c-7 -15 -12 -30 -19 -49c-5 -20 -8 -40 -11 -61c-3 -23 -5 -43 -5 -64s1 -41 3 -61c3 -19 7 -36 14 -52c8 -15 14 -26 25 -35s21 -16 36 -20c11 -3 23 -5 36 -5l12 1c16 1 34 3 53 9c30 9 46 21 94 54c-1 -12 -11 -14 -11 -19c0 -3 -1 -5 4 -9c4 -3 12 -5 16 -6
c7 -3 10 -2 11 -5c5 -3 11 -5 11 -14c-3 -3 -5 -9 -9 -14c-3 -5 -5 -8 -5 -11c1 -4 5 -7 14 -9c7 -1 15 -1 22 -1c5 -1 5 -4 8 -8c3 -3 4 -6 8 -7c-59 -38 -92 -55 -122 -65c-15 -7 -32 -9 -51 -13c-16 -3 -35 -4 -54 -4c-20 0 -38 1 -59 5c-19 5 -40 12 -57 23
c-16 8 -30 20 -45 32c-12 13 -24 27 -32 42c-11 15 -18 29 -23 44c-5 16 -10 31 -14 46c-7 31 -10 60 -10 88v21c0 21 1 42 3 64l1 6c3 19 6 39 11 62s10 45 21 68l18 36c7 11 16 22 24 34c10 11 21 21 32 29c13 9 25 17 40 24c13 7 28 9 41 12c15 4 29 5 44 5
c27 0 53 -5 77 -12c23 -7 44 -14 67 -23c19 -9 40 -19 60 -31z" />
    <glyph glyph-name="D" unicode="D" horiz-adv-x="581" 
d="M140 7c-3 -3 -7 -6 -10 -8l-23 -3c-7 60 -14 119 -19 180l-9 126c-1 9 -3 18 0 29l-19 253c7 3 11 4 18 4l49 -2l13 1c1 3 2 5 2 7c-1 3 -3 7 -11 10c-7 4 -27 4 -27 7l11 3l12 2c11 1 22 0 41 1h31l8 1c13 1 21 3 24 5c7 1 8 4 15 7c-31 4 -50 4 -73 5
c-12 1 -22 1 -22 2s6 1 46 4c97 2 126 -15 201 -61c31 -19 53 -45 75 -73c25 -33 41 -67 53 -112c9 -35 14 -73 14 -114c0 -37 5 -74 -10 -104c-13 -26 -28 -47 -38 -70c-9 -21 -30 -39 -49 -56c-16 -15 -31 -51 -115 -81c-34 -12 -58 -10 -91 -14l-96 -8c12 11 25 7 25 15
c0 3 -2 4 -3 7c-5 8 -15 19 -18 22s-5 6 -5 9v6zM404 287c0 16 1 57 -19 103c-8 20 -14 44 -30 62c-30 35 -96 68 -158 68l7 -87c1 -17 3 -35 3 -51l16 -213c3 -23 3 -45 6 -68l3 -24c27 3 41 5 65 9c30 8 39 17 59 39c14 15 27 40 36 58c16 31 12 58 12 104z" />
    <glyph glyph-name="Eth" unicode="&#xd0;" horiz-adv-x="624" 
d="M583 281c0 -37 5 -74 -10 -104c-13 -26 -28 -47 -38 -70c-9 -21 -30 -39 -49 -56c-16 -15 -31 -51 -115 -81c-34 -12 -58 -10 -91 -14l-96 -8c12 11 25 7 25 15c0 3 -2 4 -3 7c-5 8 -15 19 -18 22s-5 6 -5 9v6c-3 -3 -7 -6 -10 -8l-23 -3c-7 60 -14 119 -19 180l-4 60
l-61 -5l-25 -3c-4 5 -2 29 -3 41v11c0 4 -2 7 -5 10c-4 3 -10 3 -10 6c-1 1 0 2 3 3c4 2 8 3 11 3l15 1l6 1c9 4 9 10 12 15c-20 -2 -30 1 -50 4l102 9l-19 252c7 3 11 4 18 4l49 -2l13 1c1 3 2 5 2 7c-1 3 -3 7 -11 10c-7 4 -27 4 -27 7l11 3l12 2c11 1 22 0 41 1h31l8 1
c13 1 21 3 24 5c7 1 8 4 15 7c-31 4 -50 4 -73 5c-12 1 -22 1 -22 2s6 1 46 4c97 2 126 -15 201 -61c31 -19 53 -45 75 -73c25 -33 41 -67 53 -112c9 -35 14 -73 14 -114zM435 183c16 31 12 58 12 104c0 16 1 57 -19 103c-8 20 -14 44 -30 62c-30 35 -96 68 -158 68l7 -87
c1 -17 3 -35 3 -51l3 -39l108 10c-6 -1 -9 -4 -8 -11c1 -11 8 -24 9 -27c1 -2 2 -5 2 -9c0 -3 1 -6 0 -7c-3 -4 -8 -9 -8 -16c1 -8 5 -3 13 -26l-109 -9l6 -79c3 -23 3 -45 6 -68l3 -24c27 3 41 5 65 9c30 8 39 17 59 39c14 15 27 40 36 58z" />
    <glyph glyph-name="Dcaron" unicode="&#x10e;" horiz-adv-x="581" 
d="M419 748c12 8 26 18 37 14c-12 -8 -28 -19 -43 -26c-26 -11 -47 -23 -70 -35l-51 -25h-17c-13 9 -38 23 -52 30c-13 6 -23 9 -35 16c-20 9 -35 21 -52 27c2 16 12 32 18 47c3 7 5 13 6 18l-1 6c0 3 1 4 4 5l11 -3c3 2 6 7 9 9c-7 5 -11 9 -16 12c9 -4 17 -1 25 -6
c12 -6 23 -9 34 -14l63 -29c60 22 90 37 110 48c8 -8 1 -2 5 -9c2 -10 8 -18 11 -27c4 -6 6 -13 15 -17c4 -2 9 -3 11 -3c1 0 1 -3 1 -4c-5 -9 -17 -10 -24 -18c-3 -6 1 -10 1 -16zM140 7c-3 -3 -7 -6 -10 -8l-23 -3c-7 60 -14 119 -19 180l-9 126c-1 9 -3 18 0 29l-19 253
c7 3 11 4 18 4l49 -2l13 1c1 3 2 5 2 7c-1 3 -3 7 -11 10c-7 4 -27 4 -27 7l11 3l12 2c11 1 22 0 41 1h31l8 1c13 1 21 3 24 5c7 1 8 4 15 7c-31 4 -50 4 -73 5c-12 1 -22 1 -22 2s6 1 46 4c97 2 126 -15 201 -61c31 -19 53 -45 75 -73c25 -33 41 -67 53 -112
c9 -35 14 -73 14 -114c0 -37 5 -74 -10 -104c-13 -26 -28 -47 -38 -70c-9 -21 -30 -39 -49 -56c-16 -15 -31 -51 -115 -81c-34 -12 -58 -10 -91 -14l-96 -8c12 11 25 7 25 15c0 3 -2 4 -3 7c-5 8 -15 19 -18 22s-5 6 -5 9v6zM404 287c0 16 1 57 -19 103c-8 20 -14 44 -30 62
c-30 35 -96 68 -158 68l7 -87c1 -17 3 -35 3 -51l16 -213c3 -23 3 -45 6 -68l3 -24c27 3 41 5 65 9c30 8 39 17 59 39c14 15 27 40 36 58c16 31 12 58 12 104z" />
    <glyph glyph-name="Dcroat" unicode="&#x110;" horiz-adv-x="624" 
d="M583 281c0 -37 5 -74 -10 -104c-13 -26 -28 -47 -38 -70c-9 -21 -30 -39 -49 -56c-16 -15 -31 -51 -115 -81c-34 -12 -58 -10 -91 -14l-96 -8c12 11 25 7 25 15c0 3 -2 4 -3 7c-5 8 -15 19 -18 22s-5 6 -5 9v6c-3 -3 -7 -6 -10 -8l-23 -3c-7 60 -14 119 -19 180l-4 60
l-61 -5l-25 -3c-4 5 -2 29 -3 41v11c0 4 -2 7 -5 10c-4 3 -10 3 -10 6c-1 1 0 2 3 3c4 2 8 3 11 3l15 1l6 1c9 4 9 10 12 15c-20 -2 -30 1 -50 4l102 9l-19 252c7 3 11 4 18 4l49 -2l13 1c1 3 2 5 2 7c-1 3 -3 7 -11 10c-7 4 -27 4 -27 7l11 3l12 2c11 1 22 0 41 1h31l8 1
c13 1 21 3 24 5c7 1 8 4 15 7c-31 4 -50 4 -73 5c-12 1 -22 1 -22 2s6 1 46 4c97 2 126 -15 201 -61c31 -19 53 -45 75 -73c25 -33 41 -67 53 -112c9 -35 14 -73 14 -114zM435 183c16 31 12 58 12 104c0 16 1 57 -19 103c-8 20 -14 44 -30 62c-30 35 -96 68 -158 68l7 -87
c1 -17 3 -35 3 -51l3 -39l108 10c-6 -1 -9 -4 -8 -11c1 -11 8 -24 9 -27c1 -2 2 -5 2 -9c0 -3 1 -6 0 -7c-3 -4 -8 -9 -8 -16c1 -8 5 -3 13 -26l-109 -9l6 -79c3 -23 3 -45 6 -68l3 -24c27 3 41 5 65 9c30 8 39 17 59 39c14 15 27 40 36 58z" />
    <glyph glyph-name="E" unicode="E" horiz-adv-x="485" 
d="M391 101c25 -7 49 -12 74 -19v-4c0 -9 -1 -17 -4 -25c-4 -11 -8 -19 -11 -30c-1 -5 -4 -11 -4 -18l1 -5c3 -4 6 -6 6 -9c0 -1 -1 -2 -4 -3c-1 -1 -2 -1 -4 -1c-7 0 -13 5 -20 5c-7 -3 -9 -8 -14 -12c15 -5 36 -7 35 -16c-16 4 -31 4 -48 9c-25 7 -51 9 -75 13
c-69 12 -87 18 -127 18h-9l-10 -2l-8 -2c-11 -3 -19 -9 -22 -9c-3 -1 -7 -3 -10 -3c-1 0 -3 1 -6 2l-17 14c-9 0 -15 -8 -23 -15c-3 -1 -5 -2 -6 -2l-8 1c-2 0 -4 0 -5 -1c-1 36 -2 72 -2 108c0 31 1 59 2 88l7 166c1 44 4 88 4 131v55c0 27 -1 51 -2 78c5 3 11 4 18 4l9 -1
c9 -1 16 -3 24 -3h4l11 -1c4 0 7 2 10 6c4 5 4 15 7 15c1 0 3 -2 4 -6c3 -7 3 -17 3 -26h57c27 0 53 -1 80 -2c21 -1 44 -2 65 -5c23 -4 44 -7 67 -12v-5c0 -8 -1 -16 -3 -24c-3 -11 -4 -20 -7 -29c-1 -7 -2 -12 -2 -17c0 -3 0 -6 1 -8c1 -3 5 -5 5 -8c0 -1 -1 -2 -3 -3
c-1 -1 -3 -1 -6 -1l-15 1c-7 -1 -7 -8 -10 -13c12 -3 28 -1 30 -10l-41 2c-23 3 -43 2 -66 3c-31 3 -62 7 -99 7c-9 1 -18 2 -27 2v-102l14 1c23 3 44 2 65 2l61 4c15 3 28 4 40 5c-2 0 -3 -3 -3 -8c0 -12 6 -32 6 -35c1 -4 1 -9 1 -13v-5c-1 -7 -5 -9 -5 -18s4 -17 7 -25
l1 -20l-144 -11c-16 -3 -34 -4 -51 -5l-1 -18c-3 -35 -5 -69 -5 -105c19 0 40 -1 59 -2c31 -3 42 -3 74 -8c24 -3 49 -8 75 -15zM377 389h1h-1z" />
    <glyph glyph-name="Eacute" unicode="&#xc9;" horiz-adv-x="485" 
d="M226 719c-3 3 -21 25 -27 25c4 7 10 10 17 15c9 8 16 19 23 28l24 32c8 8 18 16 27 27c7 7 15 8 22 15c-4 -5 -6 -10 -11 -17c4 -3 9 -6 13 -6l10 7c3 0 4 -1 5 -3l1 -6c3 -5 7 -10 13 -15c12 -13 28 -25 37 -40c-15 -12 -26 -30 -41 -46c-9 -11 -18 -19 -27 -30
c-11 -12 -22 -25 -35 -36c-3 4 -9 6 -13 13s-8 14 -15 19l-12 6c-3 3 -8 7 -11 12zM391 101c25 -7 49 -12 74 -19v-4c0 -9 -1 -17 -4 -25c-4 -11 -8 -19 -11 -30c-1 -5 -4 -11 -4 -18l1 -5c3 -4 6 -6 6 -9c0 -1 -1 -2 -4 -3c-1 -1 -2 -1 -4 -1c-7 0 -13 5 -20 5
c-7 -3 -9 -8 -14 -12c15 -5 36 -7 35 -16c-16 4 -31 4 -48 9c-25 7 -51 9 -75 13c-69 12 -87 18 -127 18h-9l-10 -2l-8 -2c-11 -3 -19 -9 -22 -9c-3 -1 -7 -3 -10 -3c-1 0 -3 1 -6 2l-17 14c-9 0 -15 -8 -23 -15c-3 -1 -5 -2 -6 -2l-8 1c-2 0 -4 0 -5 -1c-1 36 -2 72 -2 108
c0 31 1 59 2 88l7 166c1 44 4 88 4 131v55c0 27 -1 51 -2 78c5 3 11 4 18 4l9 -1c9 -1 16 -3 24 -3h4l11 -1c4 0 7 2 10 6c4 5 4 15 7 15c1 0 3 -2 4 -6c3 -7 3 -17 3 -26h57c27 0 53 -1 80 -2c21 -1 44 -2 65 -5c23 -4 44 -7 67 -12v-5c0 -8 -1 -16 -3 -24
c-3 -11 -4 -20 -7 -29c-1 -7 -2 -12 -2 -17c0 -3 0 -6 1 -8c1 -3 5 -5 5 -8c0 -1 -1 -2 -3 -3c-1 -1 -3 -1 -6 -1l-15 1c-7 -1 -7 -8 -10 -13c12 -3 28 -1 30 -10l-41 2c-23 3 -43 2 -66 3c-31 3 -62 7 -99 7c-9 1 -18 2 -27 2v-102l14 1c23 3 44 2 65 2l61 4
c15 3 28 4 40 5c-2 0 -3 -3 -3 -8c0 -12 6 -32 6 -35c1 -4 1 -9 1 -13v-5c-1 -7 -5 -9 -5 -18s4 -17 7 -25l1 -20l-144 -11c-16 -3 -34 -4 -51 -5l-1 -18c-3 -35 -5 -69 -5 -105c19 0 40 -1 59 -2c31 -3 42 -3 74 -8c24 -3 49 -8 75 -15zM377 389h1h-1z" />
    <glyph glyph-name="Ecaron" unicode="&#x11a;" horiz-adv-x="485" 
d="M201 706c-13 6 -23 9 -35 16c-20 9 -35 21 -52 27c2 16 12 32 18 47c3 7 5 13 6 18l-1 6c0 3 1 4 4 5l11 -3c3 2 6 7 9 9c-7 5 -11 9 -16 12c9 -4 17 -1 25 -6c12 -6 23 -9 34 -14l63 -29c60 22 90 37 110 48c8 -8 1 -2 5 -9c2 -10 8 -18 11 -27c4 -6 6 -13 15 -17
c4 -2 9 -3 11 -3c1 0 1 -3 1 -4c-5 -9 -17 -10 -24 -18c-3 -6 1 -10 1 -16c12 8 26 18 37 14c-12 -8 -28 -19 -43 -26c-26 -11 -47 -23 -70 -35l-51 -25h-17c-13 9 -38 23 -52 30zM391 101c25 -7 49 -12 74 -19v-4c0 -9 -1 -17 -4 -25c-4 -11 -8 -19 -11 -30
c-1 -5 -4 -11 -4 -18l1 -5c3 -4 6 -6 6 -9c0 -1 -1 -2 -4 -3c-1 -1 -2 -1 -4 -1c-7 0 -13 5 -20 5c-7 -3 -9 -8 -14 -12c15 -5 36 -7 35 -16c-16 4 -31 4 -48 9c-25 7 -51 9 -75 13c-69 12 -87 18 -127 18h-9l-10 -2l-8 -2c-11 -3 -19 -9 -22 -9c-3 -1 -7 -3 -10 -3
c-1 0 -3 1 -6 2l-17 14c-9 0 -15 -8 -23 -15c-3 -1 -5 -2 -6 -2l-8 1c-2 0 -4 0 -5 -1c-1 36 -2 72 -2 108c0 31 1 59 2 88l7 166c1 44 4 88 4 131v55c0 27 -1 51 -2 78c5 3 11 4 18 4l9 -1c9 -1 16 -3 24 -3h4l11 -1c4 0 7 2 10 6c4 5 4 15 7 15c1 0 3 -2 4 -6
c3 -7 3 -17 3 -26h57c27 0 53 -1 80 -2c21 -1 44 -2 65 -5c23 -4 44 -7 67 -12v-5c0 -8 -1 -16 -3 -24c-3 -11 -4 -20 -7 -29c-1 -7 -2 -12 -2 -17c0 -3 0 -6 1 -8c1 -3 5 -5 5 -8c0 -1 -1 -2 -3 -3c-1 -1 -3 -1 -6 -1l-15 1c-7 -1 -7 -8 -10 -13c12 -3 28 -1 30 -10l-41 2
c-23 3 -43 2 -66 3c-31 3 -62 7 -99 7c-9 1 -18 2 -27 2v-102l14 1c23 3 44 2 65 2l61 4c15 3 28 4 40 5c-2 0 -3 -3 -3 -8c0 -12 6 -32 6 -35c1 -4 1 -9 1 -13v-5c-1 -7 -5 -9 -5 -18s4 -17 7 -25l1 -20l-144 -11c-16 -3 -34 -4 -51 -5l-1 -18c-3 -35 -5 -69 -5 -105
c19 0 40 -1 59 -2c31 -3 42 -3 74 -8c24 -3 49 -8 75 -15zM377 389h1h-1z" />
    <glyph glyph-name="Ecircumflex" unicode="&#xca;" horiz-adv-x="485" 
d="M137 779c-12 -8 -26 -18 -37 -14c12 8 28 19 43 26c26 11 47 23 70 35l51 25h17c13 -9 38 -23 52 -30c13 -6 23 -9 35 -16c20 -9 35 -21 52 -27c-2 -16 -12 -32 -18 -47c-3 -7 -5 -13 -6 -18l1 -6c0 -3 -1 -4 -4 -5l-11 3c-3 -2 -6 -7 -9 -9c7 -5 11 -9 16 -12
c-9 4 -17 1 -25 6c-12 6 -23 9 -34 14l-63 29c-60 -22 -90 -37 -110 -48c-8 8 -1 2 -5 9c-2 10 -8 18 -11 27c-4 6 -6 13 -15 17c-4 2 -9 3 -11 3c-1 0 -1 3 -1 4c5 9 17 10 24 18c3 6 -1 10 -1 16zM391 101c25 -7 49 -12 74 -19v-4c0 -9 -1 -17 -4 -25
c-4 -11 -8 -19 -11 -30c-1 -5 -4 -11 -4 -18l1 -5c3 -4 6 -6 6 -9c0 -1 -1 -2 -4 -3c-1 -1 -2 -1 -4 -1c-7 0 -13 5 -20 5c-7 -3 -9 -8 -14 -12c15 -5 36 -7 35 -16c-16 4 -31 4 -48 9c-25 7 -51 9 -75 13c-69 12 -87 18 -127 18h-9l-10 -2l-8 -2c-11 -3 -19 -9 -22 -9
c-3 -1 -7 -3 -10 -3c-1 0 -3 1 -6 2l-17 14c-9 0 -15 -8 -23 -15c-3 -1 -5 -2 -6 -2l-8 1c-2 0 -4 0 -5 -1c-1 36 -2 72 -2 108c0 31 1 59 2 88l7 166c1 44 4 88 4 131v55c0 27 -1 51 -2 78c5 3 11 4 18 4l9 -1c9 -1 16 -3 24 -3h4l11 -1c4 0 7 2 10 6c4 5 4 15 7 15
c1 0 3 -2 4 -6c3 -7 3 -17 3 -26h57c27 0 53 -1 80 -2c21 -1 44 -2 65 -5c23 -4 44 -7 67 -12v-5c0 -8 -1 -16 -3 -24c-3 -11 -4 -20 -7 -29c-1 -7 -2 -12 -2 -17c0 -3 0 -6 1 -8c1 -3 5 -5 5 -8c0 -1 -1 -2 -3 -3c-1 -1 -3 -1 -6 -1l-15 1c-7 -1 -7 -8 -10 -13
c12 -3 28 -1 30 -10l-41 2c-23 3 -43 2 -66 3c-31 3 -62 7 -99 7c-9 1 -18 2 -27 2v-102l14 1c23 3 44 2 65 2l61 4c15 3 28 4 40 5c-2 0 -3 -3 -3 -8c0 -12 6 -32 6 -35c1 -4 1 -9 1 -13v-5c-1 -7 -5 -9 -5 -18s4 -17 7 -25l1 -20l-144 -11c-16 -3 -34 -4 -51 -5l-1 -18
c-3 -35 -5 -69 -5 -105c19 0 40 -1 59 -2c31 -3 42 -3 74 -8c24 -3 49 -8 75 -15zM377 389h1h-1z" />
    <glyph glyph-name="Edieresis" unicode="&#xcb;" horiz-adv-x="485" 
d="M137 704c-2 9 1 16 2 24c2 11 -3 24 -1 36c0 19 0 32 1 32c-1 11 4 17 5 27c0 -6 2 -12 4 -20c4 0 11 1 13 4l3 13c1 1 3 1 5 0l6 -4c5 -1 11 -2 19 -1c18 -2 37 0 54 -5c-3 -22 -3 -38 -2 -56c1 -17 2 -34 -1 -51c-4 2 -10 -1 -18 1c-8 3 -16 5 -23 4l-14 -4
c-5 0 -10 0 -16 2c-4 -1 -32 3 -37 -2zM281 705c-3 8 0 15 2 23c1 12 -4 24 -2 36c0 19 1 32 1 32c0 9 3 14 4 21l4 2c2 -4 3 -9 15 -12l2 12c2 2 3 2 5 1l6 -4c6 -1 11 -2 20 -1c17 -1 36 0 54 -6c-5 -21 -3 -37 -2 -55c0 -16 1 -34 -1 -51l-8 5l-5 10
c-3 -9 -22 -9 -29 -10l-14 -3c-4 0 -9 -2 -16 1c-3 -1 -32 3 -36 -1zM391 101c25 -7 49 -12 74 -19v-4c0 -9 -1 -17 -4 -25c-4 -11 -8 -19 -11 -30c-1 -5 -4 -11 -4 -18l1 -5c3 -4 6 -6 6 -9c0 -1 -1 -2 -4 -3c-1 -1 -2 -1 -4 -1c-7 0 -13 5 -20 5c-7 -3 -9 -8 -14 -12
c15 -5 36 -7 35 -16c-16 4 -31 4 -48 9c-25 7 -51 9 -75 13c-69 12 -87 18 -127 18h-9l-10 -2l-8 -2c-11 -3 -19 -9 -22 -9c-3 -1 -7 -3 -10 -3c-1 0 -3 1 -6 2l-17 14c-9 0 -15 -8 -23 -15c-3 -1 -5 -2 -6 -2l-8 1c-2 0 -4 0 -5 -1c-1 36 -2 72 -2 108c0 31 1 59 2 88
l7 166c1 44 4 88 4 131v55c0 27 -1 51 -2 78c5 3 11 4 18 4l9 -1c9 -1 16 -3 24 -3h4l11 -1c4 0 7 2 10 6c4 5 4 15 7 15c1 0 3 -2 4 -6c3 -7 3 -17 3 -26h57c27 0 53 -1 80 -2c21 -1 44 -2 65 -5c23 -4 44 -7 67 -12v-5c0 -8 -1 -16 -3 -24c-3 -11 -4 -20 -7 -29
c-1 -7 -2 -12 -2 -17c0 -3 0 -6 1 -8c1 -3 5 -5 5 -8c0 -1 -1 -2 -3 -3c-1 -1 -3 -1 -6 -1l-15 1c-7 -1 -7 -8 -10 -13c12 -3 28 -1 30 -10l-41 2c-23 3 -43 2 -66 3c-31 3 -62 7 -99 7c-9 1 -18 2 -27 2v-102l14 1c23 3 44 2 65 2l61 4c15 3 28 4 40 5c-2 0 -3 -3 -3 -8
c0 -12 6 -32 6 -35c1 -4 1 -9 1 -13v-5c-1 -7 -5 -9 -5 -18s4 -17 7 -25l1 -20l-144 -11c-16 -3 -34 -4 -51 -5l-1 -18c-3 -35 -5 -69 -5 -105c19 0 40 -1 59 -2c31 -3 42 -3 74 -8c24 -3 49 -8 75 -15zM377 389h1h-1z" />
    <glyph glyph-name="Edotaccent" unicode="&#x116;" horiz-adv-x="485" 
d="M202 702c-2 9 0 16 2 24c2 13 -3 25 -2 38c0 20 1 34 1 34c0 11 5 17 6 28c0 -6 2 -12 4 -21c5 0 11 1 15 4l2 13c2 2 3 2 6 1l5 -4c6 -2 12 -3 21 -2c19 -1 39 0 57 -5c-5 -22 -3 -40 -2 -58c0 -18 1 -36 -1 -53c-5 1 -12 -2 -20 0c-8 3 -16 5 -24 4l-14 -3
c-5 0 -11 -1 -18 1c-3 -1 -33 3 -38 -1zM391 101c25 -7 49 -12 74 -19v-4c0 -9 -1 -17 -4 -25c-4 -11 -8 -19 -11 -30c-1 -5 -4 -11 -4 -18l1 -5c3 -4 6 -6 6 -9c0 -1 -1 -2 -4 -3c-1 -1 -2 -1 -4 -1c-7 0 -13 5 -20 5c-7 -3 -9 -8 -14 -12c15 -5 36 -7 35 -16
c-16 4 -31 4 -48 9c-25 7 -51 9 -75 13c-69 12 -87 18 -127 18h-9l-10 -2l-8 -2c-11 -3 -19 -9 -22 -9c-3 -1 -7 -3 -10 -3c-1 0 -3 1 -6 2l-17 14c-9 0 -15 -8 -23 -15c-3 -1 -5 -2 -6 -2l-8 1c-2 0 -4 0 -5 -1c-1 36 -2 72 -2 108c0 31 1 59 2 88l7 166c1 44 4 88 4 131
v55c0 27 -1 51 -2 78c5 3 11 4 18 4l9 -1c9 -1 16 -3 24 -3h4l11 -1c4 0 7 2 10 6c4 5 4 15 7 15c1 0 3 -2 4 -6c3 -7 3 -17 3 -26h57c27 0 53 -1 80 -2c21 -1 44 -2 65 -5c23 -4 44 -7 67 -12v-5c0 -8 -1 -16 -3 -24c-3 -11 -4 -20 -7 -29c-1 -7 -2 -12 -2 -17
c0 -3 0 -6 1 -8c1 -3 5 -5 5 -8c0 -1 -1 -2 -3 -3c-1 -1 -3 -1 -6 -1l-15 1c-7 -1 -7 -8 -10 -13c12 -3 28 -1 30 -10l-41 2c-23 3 -43 2 -66 3c-31 3 -62 7 -99 7c-9 1 -18 2 -27 2v-102l14 1c23 3 44 2 65 2l61 4c15 3 28 4 40 5c-2 0 -3 -3 -3 -8c0 -12 6 -32 6 -35
c1 -4 1 -9 1 -13v-5c-1 -7 -5 -9 -5 -18s4 -17 7 -25l1 -20l-144 -11c-16 -3 -34 -4 -51 -5l-1 -18c-3 -35 -5 -69 -5 -105c19 0 40 -1 59 -2c31 -3 42 -3 74 -8c24 -3 49 -8 75 -15zM377 389h1h-1z" />
    <glyph glyph-name="Egrave" unicode="&#xc8;" horiz-adv-x="485" 
d="M231 735c-15 16 -26 34 -41 46c9 15 25 27 37 40c6 5 10 10 13 15l1 6c1 2 2 3 5 3l10 -7c4 0 9 3 13 6c-5 7 -7 12 -11 17c7 -7 15 -8 22 -15c9 -11 19 -19 27 -27l24 -32c7 -9 14 -20 23 -28c7 -5 13 -8 17 -15c-6 0 -24 -22 -27 -25c-3 -5 -8 -9 -11 -12l-12 -6
c-7 -5 -11 -12 -15 -19s-10 -9 -13 -13c-13 11 -24 24 -35 36c-9 11 -18 19 -27 30zM391 101c25 -7 49 -12 74 -19v-4c0 -9 -1 -17 -4 -25c-4 -11 -8 -19 -11 -30c-1 -5 -4 -11 -4 -18l1 -5c3 -4 6 -6 6 -9c0 -1 -1 -2 -4 -3c-1 -1 -2 -1 -4 -1c-7 0 -13 5 -20 5
c-7 -3 -9 -8 -14 -12c15 -5 36 -7 35 -16c-16 4 -31 4 -48 9c-25 7 -51 9 -75 13c-69 12 -87 18 -127 18h-9l-10 -2l-8 -2c-11 -3 -19 -9 -22 -9c-3 -1 -7 -3 -10 -3c-1 0 -3 1 -6 2l-17 14c-9 0 -15 -8 -23 -15c-3 -1 -5 -2 -6 -2l-8 1c-2 0 -4 0 -5 -1c-1 36 -2 72 -2 108
c0 31 1 59 2 88l7 166c1 44 4 88 4 131v55c0 27 -1 51 -2 78c5 3 11 4 18 4l9 -1c9 -1 16 -3 24 -3h4l11 -1c4 0 7 2 10 6c4 5 4 15 7 15c1 0 3 -2 4 -6c3 -7 3 -17 3 -26h57c27 0 53 -1 80 -2c21 -1 44 -2 65 -5c23 -4 44 -7 67 -12v-5c0 -8 -1 -16 -3 -24
c-3 -11 -4 -20 -7 -29c-1 -7 -2 -12 -2 -17c0 -3 0 -6 1 -8c1 -3 5 -5 5 -8c0 -1 -1 -2 -3 -3c-1 -1 -3 -1 -6 -1l-15 1c-7 -1 -7 -8 -10 -13c12 -3 28 -1 30 -10l-41 2c-23 3 -43 2 -66 3c-31 3 -62 7 -99 7c-9 1 -18 2 -27 2v-102l14 1c23 3 44 2 65 2l61 4
c15 3 28 4 40 5c-2 0 -3 -3 -3 -8c0 -12 6 -32 6 -35c1 -4 1 -9 1 -13v-5c-1 -7 -5 -9 -5 -18s4 -17 7 -25l1 -20l-144 -11c-16 -3 -34 -4 -51 -5l-1 -18c-3 -35 -5 -69 -5 -105c19 0 40 -1 59 -2c31 -3 42 -3 74 -8c24 -3 49 -8 75 -15zM377 389h1h-1z" />
    <glyph glyph-name="Emacron" unicode="&#x112;" horiz-adv-x="485" 
d="M135 785c6 3 6 9 10 13c-14 0 -23 2 -37 6l49 3c38 -8 74 -5 111 -7l143 -1c1 -6 -2 -8 -2 -14c-1 -9 2 -24 2 -26c1 -3 0 -6 1 -10v-5c-2 -4 -5 -6 -7 -14c1 -7 6 -8 6 -15c0 -10 0 -11 1 -14h-115c-32 2 -61 6 -95 6h-86c0 3 -1 7 0 13l1 29l-1 12c0 4 0 7 -1 14
c-4 3 -8 4 -8 7l3 3c2 0 6 1 10 1h8c2 -2 5 -1 7 -1zM391 101c25 -7 49 -12 74 -19v-4c0 -9 -1 -17 -4 -25c-4 -11 -8 -19 -11 -30c-1 -5 -4 -11 -4 -18l1 -5c3 -4 6 -6 6 -9c0 -1 -1 -2 -4 -3c-1 -1 -2 -1 -4 -1c-7 0 -13 5 -20 5c-7 -3 -9 -8 -14 -12c15 -5 36 -7 35 -16
c-16 4 -31 4 -48 9c-25 7 -51 9 -75 13c-69 12 -87 18 -127 18h-9l-10 -2l-8 -2c-11 -3 -19 -9 -22 -9c-3 -1 -7 -3 -10 -3c-1 0 -3 1 -6 2l-17 14c-9 0 -15 -8 -23 -15c-3 -1 -5 -2 -6 -2l-8 1c-2 0 -4 0 -5 -1c-1 36 -2 72 -2 108c0 31 1 59 2 88l7 166c1 44 4 88 4 131
v55c0 27 -1 51 -2 78c5 3 11 4 18 4l9 -1c9 -1 16 -3 24 -3h4l11 -1c4 0 7 2 10 6c4 5 4 15 7 15c1 0 3 -2 4 -6c3 -7 3 -17 3 -26h57c27 0 53 -1 80 -2c21 -1 44 -2 65 -5c23 -4 44 -7 67 -12v-5c0 -8 -1 -16 -3 -24c-3 -11 -4 -20 -7 -29c-1 -7 -2 -12 -2 -17
c0 -3 0 -6 1 -8c1 -3 5 -5 5 -8c0 -1 -1 -2 -3 -3c-1 -1 -3 -1 -6 -1l-15 1c-7 -1 -7 -8 -10 -13c12 -3 28 -1 30 -10l-41 2c-23 3 -43 2 -66 3c-31 3 -62 7 -99 7c-9 1 -18 2 -27 2v-102l14 1c23 3 44 2 65 2l61 4c15 3 28 4 40 5c-2 0 -3 -3 -3 -8c0 -12 6 -32 6 -35
c1 -4 1 -9 1 -13v-5c-1 -7 -5 -9 -5 -18s4 -17 7 -25l1 -20l-144 -11c-16 -3 -34 -4 -51 -5l-1 -18c-3 -35 -5 -69 -5 -105c19 0 40 -1 59 -2c31 -3 42 -3 74 -8c24 -3 49 -8 75 -15zM377 389h1h-1z" />
    <glyph glyph-name="Eogonek" unicode="&#x118;" horiz-adv-x="465" 
d="M371 101c25 -7 49 -12 74 -19v-4c0 -9 -1 -20 -4 -28c-4 -11 -8 -19 -11 -30c-1 -5 -4 -11 -4 -18l1 -5c-12 -11 -78 -32 -119 -60c-42 -29 -53 -42 -53 -62c0 -16 8 -31 26 -31c19 0 38 11 70 33l9 -3l8 -12c-3 -2 16 -29 23 -30c5 -1 9 -16 12 -20c3 -3 3 -6 7 -7
c-46 -33 -87 -54 -136 -55c-80 0 -117 57 -122 102c-2 18 6 61 20 77c33 40 65 56 104 76c-27 3 -59 7 -68 7h-9l-10 -2l-8 -2c-11 -3 -31 -17 -34 -17c-3 -1 -7 -3 -10 -3c-1 0 -3 1 -6 2l-17 14c-9 0 -15 -8 -23 -15c-3 -1 -5 -2 -6 -2l-8 1c-2 0 -4 0 -5 -1
c-1 36 -2 72 -2 108c0 31 1 59 2 88l7 166c1 44 4 88 4 131v55c0 27 -1 51 -2 78c5 3 11 4 18 4l9 -1c9 -1 16 -3 24 -3h4l11 -1c4 0 7 2 10 6c4 5 4 15 7 15c1 0 3 -2 4 -6c3 -7 3 -17 3 -26h57c27 0 53 -1 80 -2c21 -1 44 -2 65 -5c23 -4 44 -7 67 -12v-5
c0 -8 -1 -16 -3 -24c-3 -11 -4 -20 -7 -29c-1 -7 -2 -12 -2 -17c0 -3 0 -6 1 -8c1 -3 5 -5 5 -8c0 -1 -1 -2 -3 -3c-1 -1 -3 -1 -6 -1l-15 1c-7 -1 -7 -8 -10 -13c12 -3 28 -1 30 -10l-41 2c-23 3 -43 2 -66 3c-31 3 -62 7 -99 7c-9 1 -18 2 -27 2v-102l14 1c23 3 44 2 65 2
l61 4c15 3 28 4 40 5c-2 0 -3 -3 -3 -8c0 -12 6 -32 6 -35c1 -4 1 -9 1 -13v-5c-1 -7 -5 -9 -5 -18s4 -17 7 -25l1 -20l-144 -11c-16 -3 -34 -4 -51 -5l-1 -18c-3 -35 -5 -69 -5 -105c35 0 80 -5 113 -10c24 -3 49 -8 75 -15zM377 389v0z" />
    <glyph glyph-name="F" unicode="F" horiz-adv-x="481" 
d="M442 533c-9 -4 -8 -11 -11 -15c15 -3 32 -2 32 -10h-111c-24 1 -48 5 -95 5c-16 1 -29 1 -44 1h-18c1 -27 1 -51 4 -78l14 1c7 0 12 -1 19 -2h120c1 -3 1 -8 1 -14c0 -16 -3 -30 -3 -45v-9c0 -7 0 -11 3 -16c1 -3 5 -5 5 -8c0 -1 -1 -2 -3 -3c-1 -1 -3 -2 -4 -2l-7 1
c-2 0 -4 -1 -5 -2c-5 -3 -5 -9 -9 -14c12 -1 23 1 27 -6c-6 -3 -16 -4 -27 -4c-3 0 -6 0 -8 1l-74 -4c-16 0 -31 1 -44 4l2 -61c0 -51 3 -99 8 -150l9 -103c-4 2 -11 12 -18 12c-12 0 -22 -12 -25 -13c-4 -1 -8 -2 -12 -2c-3 0 -5 0 -6 1c-5 3 -9 12 -17 13
c-11 0 -16 -8 -25 -15c-1 -1 -4 -2 -7 -2h-5c-2 0 -4 -1 -7 -2c-7 65 -11 131 -15 198c-4 57 -5 114 -16 171v281c5 3 10 4 17 4l13 -1c11 -3 20 -6 29 -6l12 -1c5 0 10 2 13 7s4 14 7 14c1 0 2 -2 3 -6c2 -5 3 -11 3 -18h68c47 0 72 0 99 -1c41 0 84 -5 127 -6
c1 -4 1 -9 1 -13l-5 -60c0 -4 1 -7 2 -9c1 -4 5 -5 5 -8c0 -1 -1 -2 -2 -3c-2 -2 -5 -3 -8 -3z" />
    <glyph glyph-name="G" unicode="G" horiz-adv-x="575" 
d="M529 88v-55c1 -15 2 -30 2 -46c-6 0 -5 7 -12 7c-12 0 -28 -5 -32 -6h-16c-7 3 -9 7 -14 7h-5c-9 0 -15 -4 -23 -7l-21 -1v38c-12 -3 -14 -8 -26 -12c-17 -4 -34 -9 -51 -12s-34 -5 -54 -5c-19 0 -38 2 -57 6c-19 7 -38 11 -57 22c-16 8 -31 21 -43 32
c-15 13 -23 26 -34 41c-8 15 -16 29 -23 44c-5 16 -8 30 -12 46c-7 29 -8 57 -11 86c0 11 1 21 4 32v51c3 23 5 43 12 66c4 23 11 47 22 70c4 11 9 23 17 34c5 12 13 22 24 33c8 11 19 22 30 30c12 11 25 16 40 24c13 5 26 10 41 13c14 2 28 3 42 3c27 0 52 -3 75 -10
c24 -7 45 -16 66 -25s41 -20 62 -31c1 -1 1 -4 1 -7c0 -9 -6 -14 -13 -21s-17 -13 -21 -20c-3 -5 -7 -7 -8 -10c-1 -1 -1 -3 -1 -6c0 -2 1 -5 4 -10c5 -5 11 -11 14 -15c1 -1 2 -3 2 -6c-1 0 -4 2 -9 5c-11 3 -24 11 -37 19c-13 7 -26 13 -37 16c-7 1 -11 2 -14 2l-7 -1
l-12 -4c11 -4 20 -8 29 -12l23 -10c19 -9 50 -25 50 -36c-23 15 -46 27 -69 36c-12 4 -23 10 -34 13l-35 9c-8 3 -18 2 -26 2c-7 0 -14 0 -19 -1c-7 -1 -11 -2 -18 -5l-14 -10c-7 -5 -10 -8 -13 -13c-5 -5 -8 -13 -12 -20c-7 -13 -13 -29 -18 -48c-6 -19 -10 -40 -13 -61
c-3 -20 -3 -40 -4 -63c0 -21 1 -41 3 -59c3 -19 8 -37 15 -52s13 -24 24 -35c9 -8 22 -16 34 -19c10 -3 22 -4 35 -4h14c15 1 32 4 51 11c25 6 39 16 63 30l6 1v84h-92c-1 2 -1 5 -1 9c0 5 0 8 1 10v52c0 5 0 9 -1 12s-4 4 -4 7c0 1 1 2 2 3s2 2 4 2h5c2 0 3 0 4 1
c3 3 2 11 5 15c-7 0 -12 3 -20 6c9 0 17 4 26 5h40c15 0 29 -3 44 -4l27 -1c4 0 9 0 13 1c11 1 19 3 27 3c-3 0 -3 -5 -3 -12c0 -13 2 -28 2 -32v-13l6 2c3 3 3 7 6 7c1 0 2 -1 4 -3c1 -3 2 -5 2 -8l-1 -12c0 -3 1 -4 1 -5c3 -7 10 -7 15 -11c0 15 3 24 7 39l4 -51v-61
c0 -27 -2 -52 -3 -83c0 -3 0 -6 1 -6c5 -3 6 -5 7 -8c3 -4 4 -8 8 -8z" />
    <glyph glyph-name="Gbreve" unicode="&#x11e;" horiz-adv-x="575" 
d="M137 741c2 3 4 6 9 11l17 19l12 15c3 3 4 6 6 9c-1 5 -4 9 -2 12c0 0 2 0 5 -1c2 0 4 -2 9 -5l6 -6c2 -3 5 -4 6 -5c14 -3 10 6 -9 34c34 -37 59 -59 100 -59c39 0 59 14 91 55c6 -5 4 -9 10 -15c6 -7 15 -13 17 -15c4 -2 9 -14 13 -16l3 -4c0 -5 1 -10 6 -17
c4 -5 9 -3 15 -9c2 -2 3 -2 6 -4c-61 -54 -111 -78 -163 -78c-53 0 -101 24 -157 79zM529 88v-55c1 -15 2 -30 2 -46c-6 0 -5 7 -12 7c-12 0 -28 -5 -32 -6h-16c-7 3 -9 7 -14 7h-5c-9 0 -15 -4 -23 -7l-21 -1v38c-12 -3 -14 -8 -26 -12c-17 -4 -34 -9 -51 -12
s-34 -5 -54 -5c-19 0 -38 2 -57 6c-19 7 -38 11 -57 22c-16 8 -31 21 -43 32c-15 13 -23 26 -34 41c-8 15 -16 29 -23 44c-5 16 -8 30 -12 46c-7 29 -8 57 -11 86c0 11 1 21 4 32v51c3 23 5 43 12 66c4 23 11 47 22 70c4 11 9 23 17 34c5 12 13 22 24 33c8 11 19 22 30 30
c12 11 25 16 40 24c13 5 26 10 41 13c14 2 28 3 42 3c27 0 52 -3 75 -10c24 -7 45 -16 66 -25s41 -20 62 -31c1 -1 1 -4 1 -7c0 -9 -6 -14 -13 -21s-17 -13 -21 -20c-3 -5 -7 -7 -8 -10c-1 -1 -1 -3 -1 -6c0 -2 1 -5 4 -10c5 -5 11 -11 14 -15c1 -1 2 -3 2 -6
c-1 0 -4 2 -9 5c-11 3 -24 11 -37 19c-13 7 -26 13 -37 16c-7 1 -11 2 -14 2l-7 -1l-12 -4c11 -4 20 -8 29 -12l23 -10c19 -9 50 -25 50 -36c-23 15 -46 27 -69 36c-12 4 -23 10 -34 13l-35 9c-8 3 -18 2 -26 2c-7 0 -14 0 -19 -1c-7 -1 -11 -2 -18 -5l-14 -10
c-7 -5 -10 -8 -13 -13c-5 -5 -8 -13 -12 -20c-7 -13 -13 -29 -18 -48c-6 -19 -10 -40 -13 -61c-3 -20 -3 -40 -4 -63c0 -21 1 -41 3 -59c3 -19 8 -37 15 -52s13 -24 24 -35c9 -8 22 -16 34 -19c10 -3 22 -4 35 -4h14c15 1 32 4 51 11c25 6 39 16 63 30l6 1v84h-92
c-1 2 -1 5 -1 9c0 5 0 8 1 10v52c0 5 0 9 -1 12s-4 4 -4 7c0 1 1 2 2 3s2 2 4 2h5c2 0 3 0 4 1c3 3 2 11 5 15c-7 0 -12 3 -20 6c9 0 17 4 26 5h40c15 0 29 -3 44 -4l27 -1c4 0 9 0 13 1c11 1 19 3 27 3c-3 0 -3 -5 -3 -12c0 -13 2 -28 2 -32v-13l6 2c3 3 3 7 6 7
c1 0 2 -1 4 -3c1 -3 2 -5 2 -8l-1 -12c0 -3 1 -4 1 -5c3 -7 10 -7 15 -11c0 15 3 24 7 39l4 -51v-61c0 -27 -2 -52 -3 -83c0 -3 0 -6 1 -6c5 -3 6 -5 7 -8c3 -4 4 -8 8 -8z" />
    <glyph glyph-name="Gcommaaccent" unicode="&#x122;" horiz-adv-x="575" 
d="M529 88v-55c1 -15 2 -30 2 -46c-6 0 -5 7 -12 7c-12 0 -28 -5 -32 -6h-16c-7 3 -9 7 -14 7h-5c-9 0 -15 -4 -23 -7l-21 -1v38c-12 -3 -14 -8 -26 -12c-17 -4 -34 -9 -51 -12s-34 -5 -54 -5c-19 0 -38 2 -57 6c-19 7 -38 11 -57 22c-16 8 -31 21 -43 32
c-15 13 -23 26 -34 41c-8 15 -16 29 -23 44c-5 16 -8 30 -12 46c-7 29 -8 57 -11 86c0 11 1 21 4 32v51c3 23 5 43 12 66c4 23 11 47 22 70c4 11 9 23 17 34c5 12 13 22 24 33c8 11 19 22 30 30c12 11 25 16 40 24c13 5 26 10 41 13c14 2 28 3 42 3c27 0 52 -3 75 -10
c24 -7 45 -16 66 -25s41 -20 62 -31c1 -1 1 -4 1 -7c0 -9 -6 -14 -13 -21s-17 -13 -21 -20c-3 -5 -7 -7 -8 -10c-1 -1 -1 -3 -1 -6c0 -2 1 -5 4 -10c5 -5 11 -11 14 -15c1 -1 2 -3 2 -6c-1 0 -4 2 -9 5c-11 3 -24 11 -37 19c-13 7 -26 13 -37 16c-7 1 -11 2 -14 2l-7 -1
l-12 -4c11 -4 20 -8 29 -12l23 -10c19 -9 50 -25 50 -36c-23 15 -46 27 -69 36c-12 4 -23 10 -34 13l-35 9c-8 3 -18 2 -26 2c-7 0 -14 0 -19 -1c-7 -1 -11 -2 -18 -5l-14 -10c-7 -5 -10 -8 -13 -13c-5 -5 -8 -13 -12 -20c-7 -13 -13 -29 -18 -48c-6 -19 -10 -40 -13 -61
c-3 -20 -3 -40 -4 -63c0 -21 1 -41 3 -59c3 -19 8 -37 15 -52s13 -24 24 -35c9 -8 22 -16 34 -19c10 -3 22 -4 35 -4h14c15 1 32 4 51 11c25 6 39 16 63 30l6 1v84h-92c-1 2 -1 5 -1 9c0 5 0 8 1 10v52c0 5 0 9 -1 12s-4 4 -4 7c0 1 1 2 2 3s2 2 4 2h5c2 0 3 0 4 1
c3 3 2 11 5 15c-7 0 -12 3 -20 6c9 0 17 4 26 5h40c15 0 29 -3 44 -4l27 -1c4 0 9 0 13 1c11 1 19 3 27 3c-3 0 -3 -5 -3 -12c0 -13 2 -28 2 -32v-13l6 2c3 3 3 7 6 7c1 0 2 -1 4 -3c1 -3 2 -5 2 -8l-1 -12c0 -3 1 -4 1 -5c3 -7 10 -7 15 -11c0 15 3 24 7 39l4 -51v-61
c0 -27 -2 -52 -3 -83c0 -3 0 -6 1 -6c5 -3 6 -5 7 -8c3 -4 4 -8 8 -8zM373 -132c-15 -12 -26 -30 -41 -46c-9 -11 -18 -19 -27 -30c-11 -12 -22 -25 -35 -36c-3 4 -9 6 -13 13s-8 14 -15 19l-12 6c-3 3 -8 7 -11 12c-3 3 -21 25 -27 25c4 7 10 10 17 15c9 8 16 19 23 28
l24 32c8 8 18 16 27 27c7 7 15 8 22 15c-4 -5 -6 -10 -11 -17c4 -3 9 -6 13 -6l10 7c3 0 4 -1 5 -3l1 -6c3 -5 7 -10 13 -15c12 -13 28 -25 37 -40z" />
    <glyph glyph-name="Gdotaccent" unicode="&#x120;" horiz-adv-x="575" 
d="M344 812c-5 -22 -3 -40 -2 -58c0 -18 1 -36 -1 -53c-5 1 -12 -2 -20 0c-8 3 -16 5 -24 4l-14 -3c-5 0 -11 -1 -18 1c-3 -1 -33 3 -38 -1c-2 9 0 16 2 24c2 13 -3 25 -2 38c0 20 1 34 1 34c0 11 5 17 6 28c0 -6 2 -12 4 -21c5 0 11 1 15 4l2 13c2 2 3 2 6 1l5 -4
c6 -2 12 -3 21 -2c19 -1 39 0 57 -5zM529 88v-55c1 -15 2 -30 2 -46c-6 0 -5 7 -12 7c-12 0 -28 -5 -32 -6h-16c-7 3 -9 7 -14 7h-5c-9 0 -15 -4 -23 -7l-21 -1v38c-12 -3 -14 -8 -26 -12c-17 -4 -34 -9 -51 -12s-34 -5 -54 -5c-19 0 -38 2 -57 6c-19 7 -38 11 -57 22
c-16 8 -31 21 -43 32c-15 13 -23 26 -34 41c-8 15 -16 29 -23 44c-5 16 -8 30 -12 46c-7 29 -8 57 -11 86c0 11 1 21 4 32v51c3 23 5 43 12 66c4 23 11 47 22 70c4 11 9 23 17 34c5 12 13 22 24 33c8 11 19 22 30 30c12 11 25 16 40 24c13 5 26 10 41 13c14 2 28 3 42 3
c27 0 52 -3 75 -10c24 -7 45 -16 66 -25s41 -20 62 -31c1 -1 1 -4 1 -7c0 -9 -6 -14 -13 -21s-17 -13 -21 -20c-3 -5 -7 -7 -8 -10c-1 -1 -1 -3 -1 -6c0 -2 1 -5 4 -10c5 -5 11 -11 14 -15c1 -1 2 -3 2 -6c-1 0 -4 2 -9 5c-11 3 -24 11 -37 19c-13 7 -26 13 -37 16
c-7 1 -11 2 -14 2l-7 -1l-12 -4c11 -4 20 -8 29 -12l23 -10c19 -9 50 -25 50 -36c-23 15 -46 27 -69 36c-12 4 -23 10 -34 13l-35 9c-8 3 -18 2 -26 2c-7 0 -14 0 -19 -1c-7 -1 -11 -2 -18 -5l-14 -10c-7 -5 -10 -8 -13 -13c-5 -5 -8 -13 -12 -20c-7 -13 -13 -29 -18 -48
c-6 -19 -10 -40 -13 -61c-3 -20 -3 -40 -4 -63c0 -21 1 -41 3 -59c3 -19 8 -37 15 -52s13 -24 24 -35c9 -8 22 -16 34 -19c10 -3 22 -4 35 -4h14c15 1 32 4 51 11c25 6 39 16 63 30l6 1v84h-92c-1 2 -1 5 -1 9c0 5 0 8 1 10v52c0 5 0 9 -1 12s-4 4 -4 7c0 1 1 2 2 3s2 2 4 2
h5c2 0 3 0 4 1c3 3 2 11 5 15c-7 0 -12 3 -20 6c9 0 17 4 26 5h40c15 0 29 -3 44 -4l27 -1c4 0 9 0 13 1c11 1 19 3 27 3c-3 0 -3 -5 -3 -12c0 -13 2 -28 2 -32v-13l6 2c3 3 3 7 6 7c1 0 2 -1 4 -3c1 -3 2 -5 2 -8l-1 -12c0 -3 1 -4 1 -5c3 -7 10 -7 15 -11c0 15 3 24 7 39
l4 -51v-61c0 -27 -2 -52 -3 -83c0 -3 0 -6 1 -6c5 -3 6 -5 7 -8c3 -4 4 -8 8 -8z" />
    <glyph glyph-name="H" unicode="H" horiz-adv-x="611" 
d="M531 571c1 21 3 31 6 31s4 -11 4 -32c0 -11 -1 -21 -1 -24c-4 -55 -6 -107 -10 -159c-4 -57 -10 -110 -17 -166c-5 -52 -10 -103 -10 -155v-107c-6 4 -4 15 -13 15c-3 0 -4 -1 -7 -1c-11 -4 -20 -11 -23 -11c-5 -1 -9 -2 -11 -2c-1 0 -3 1 -6 2c-7 4 -9 12 -14 15l-3 1
c-9 0 -17 -9 -26 -16c-1 -1 -2 -1 -3 -1l-9 1c-3 0 -6 -1 -7 -2c0 71 3 140 8 209l8 113h-206v-98c0 -25 0 -50 1 -75l5 -104c-6 1 -5 12 -12 12c-12 0 -28 -10 -31 -11c-4 -1 -7 -2 -11 -2c-2 0 -4 1 -7 2c-5 3 -8 11 -16 14c-8 0 -18 -8 -26 -15c-1 -1 -2 -1 -4 -1l-9 1
c-1 0 -3 -1 -6 -2c-3 67 -3 133 -4 201c-1 57 -1 114 -1 173c0 93 5 186 9 281c5 2 10 3 15 3l57 -9c4 0 7 2 10 5c3 5 5 15 8 15c1 0 2 -2 3 -7l1 -5l-1 -7v-36c3 -13 10 -15 14 -20c3 29 0 60 10 73v-71c0 -9 0 -17 -1 -26c-1 -25 -1 -49 -1 -76v-111l107 -3
c75 -2 89 -1 104 -1c8 84 15 167 18 252c5 2 10 3 15 3c15 0 31 -7 44 -7l13 -2c4 0 7 2 10 6c4 5 6 15 9 15c1 0 2 -2 4 -7v-52c3 -12 9 -12 13 -19z" />
    <glyph glyph-name="Hbar" unicode="&#x126;" horiz-adv-x="616" 
d="M595 471c0 -8 5 -3 11 -27l-72 2c-1 -20 -2 -39 -4 -59c-4 -57 -10 -110 -17 -166c-5 -52 -10 -103 -10 -155v-107c-6 4 -4 15 -13 15c-3 0 -4 -1 -7 -1c-11 -4 -20 -11 -23 -11c-5 -1 -9 -2 -11 -2c-1 0 -3 1 -6 2c-7 4 -9 12 -14 15l-3 1c-9 0 -17 -9 -26 -16
c-1 -1 -2 -1 -3 -1l-9 1c-3 0 -6 -1 -7 -2c0 71 3 140 8 209l8 113h-206v-98c0 -25 0 -50 1 -75l5 -104c-6 1 -5 12 -12 12c-12 0 -28 -10 -31 -11c-4 -1 -7 -2 -11 -2c-2 0 -4 1 -7 2c-5 3 -8 11 -16 14c-8 0 -18 -8 -26 -15c-1 -1 -2 -1 -4 -1l-9 1c-1 0 -3 -1 -6 -2
c-3 67 -3 133 -4 201c-1 57 -1 114 -1 173c0 27 0 55 1 82l-23 1h-26c-3 5 1 29 1 41l1 11c0 4 -1 7 -4 10c-4 3 -10 4 -10 7c0 1 1 2 4 3c4 1 8 2 11 2l15 -1l6 4l-17 14l45 -1c2 36 3 72 5 108c5 2 10 3 15 3l57 -9c4 0 7 2 10 5c3 5 5 15 8 15c1 0 2 -2 3 -7l1 -5l-1 -7
v-36c3 -13 10 -15 14 -20c3 29 0 60 10 73v-71c0 -9 0 -17 -1 -26c0 -9 -1 -18 -1 -27l224 -7c2 31 4 63 5 95c5 2 10 3 15 3c15 0 31 -7 44 -7l13 -2c4 0 7 2 10 6c4 5 6 15 9 15c1 0 2 -2 4 -7v-52c3 -12 9 -12 13 -19c1 21 3 31 6 31s4 -11 4 -32c0 -11 -1 -21 -1 -24
c0 -4 -1 -7 -1 -11l67 -2c0 -7 -9 -3 -9 -10c0 -11 6 -18 7 -21c1 -2 1 -5 1 -9c0 -3 0 -6 -1 -7c-3 -4 -8 -8 -9 -15zM405 382l6 68l-217 6v-70l107 -3c75 -2 89 -1 104 -1z" />
    <glyph glyph-name="I" unicode="I" horiz-adv-x="296" 
d="M91 614c21 9 45 -3 66 -3c8 0 35 26 40 13c4 -13 -1 -35 2 -48c4 -12 10 -13 17 -20c1 31 -5 56 6 72c0 -31 5 -61 4 -94c-1 -51 0 -98 -1 -149c-1 -52 -6 -103 -9 -156c-5 -48 -8 -96 -8 -145c0 -35 1 -66 0 -101c-14 24 -44 4 -47 4c-7 -1 -14 -3 -21 0
c-5 4 -9 14 -16 15c-11 3 -20 -5 -31 -12c-7 -5 -15 1 -23 -3c1 67 4 131 7 195c3 56 3 109 6 165c3 89 9 178 8 266v1z" />
    <glyph glyph-name="IJ" unicode="&#x132;" horiz-adv-x="732" 
d="M91 614c21 9 45 -3 66 -3c8 0 35 26 40 13c4 -13 -1 -35 2 -48c4 -12 10 -13 17 -20c1 31 -5 56 6 72c0 -31 5 -61 4 -94c-1 -51 0 -98 -1 -149c-1 -52 -6 -103 -9 -156c-5 -48 -8 -96 -8 -145c0 -35 1 -66 0 -101c-14 24 -44 4 -47 4c-7 -1 -14 -3 -21 0
c-5 4 -9 14 -16 15c-11 3 -20 -5 -31 -12c-7 -5 -15 1 -23 -3c1 67 4 131 7 195c3 56 3 109 6 165c3 89 9 178 8 266v1zM630 332c1 -9 4 -39 4 -78c0 -107 -43 -285 -195 -285c-17 0 -32 3 -45 10c-15 7 -25 17 -34 30c-5 7 -8 13 -11 20l-6 11l-1 5l-2 6c-3 10 -5 20 -6 31
c-4 20 -5 38 -6 57v22c0 17 -1 34 2 51v33l2 18v10l4 -2c3 -1 2 -4 3 -5c3 -1 3 -5 5 -5l6 1c11 3 19 11 22 12c2 1 5 1 8 1s6 -1 8 -2c4 -5 6 -16 11 -19c1 -1 2 -1 4 -1c3 0 6 1 10 4l13 13c2 3 4 4 7 4l3 -1c1 -1 2 -1 3 -1c2 0 4 1 5 2c0 -7 0 -12 -1 -19l-1 -16
c-1 -15 -2 -29 -2 -48c-1 -16 -2 -31 -2 -46l1 -28l3 -25l2 -6l4 -3c3 1 5 2 8 5l3 1l4 3c5 3 8 6 10 10c7 7 12 17 16 30s7 28 10 45c3 15 2 31 2 47v33c0 29 -2 58 -5 87l-11 90c-3 15 -4 29 -7 44l-3 32h-126c-1 3 -2 8 -2 15l3 38v11c0 5 -1 8 -2 11c-4 3 -9 4 -9 7
c0 1 1 2 3 3s6 2 11 2h8c4 0 7 0 8 1c7 3 7 9 10 13c-15 1 -24 2 -39 5l52 6h83c29 0 58 -1 87 -3h46c12 0 24 1 36 2c19 1 37 3 56 3c0 -7 -4 -9 -4 -16c0 -11 3 -21 3 -24c1 -3 1 -6 1 -11v-5c-3 -4 -6 -7 -7 -16c0 -7 4 -14 7 -22c1 -1 1 -4 1 -7v-7c0 -3 1 -4 1 -7h-98
c1 -5 2 -9 2 -12c3 -21 8 -40 11 -63zM586 486c7 -15 11 -16 18 -23c-3 19 -4 33 -5 46h-16z" />
    <glyph glyph-name="Iacute" unicode="&#xcd;" horiz-adv-x="296" 
d="M277 775c-15 -12 -26 -30 -41 -46c-9 -11 -18 -19 -27 -30c-11 -12 -22 -25 -35 -36c-3 4 -9 6 -13 13s-8 14 -15 19l-12 6c-3 3 -8 7 -11 12c-3 3 -21 25 -27 25c4 7 10 10 17 15c9 8 16 19 23 28l24 32c8 8 18 16 27 27c7 7 15 8 22 15c-4 -5 -6 -10 -11 -17
c4 -3 9 -6 13 -6l10 7c3 0 4 -1 5 -3l1 -6c3 -5 7 -10 13 -15c12 -13 28 -25 37 -40zM91 614c21 9 45 -3 66 -3c8 0 35 26 40 13c4 -13 -1 -35 2 -48c4 -12 10 -13 17 -20c1 31 -5 56 6 72c0 -31 5 -61 4 -94c-1 -51 0 -98 -1 -149c-1 -52 -6 -103 -9 -156
c-5 -48 -8 -96 -8 -145c0 -35 1 -66 0 -101c-14 24 -44 4 -47 4c-7 -1 -14 -3 -21 0c-5 4 -9 14 -16 15c-11 3 -20 -5 -31 -12c-7 -5 -15 1 -23 -3c1 67 4 131 7 195c3 56 3 109 6 165c3 89 9 178 8 266v1z" />
    <glyph glyph-name="Icircumflex" unicode="&#xce;" horiz-adv-x="296" 
d="M34 773c-12 -8 -26 -18 -37 -14c12 8 28 19 43 26c26 11 47 23 70 35l51 25h17c13 -9 38 -23 52 -30c13 -6 23 -9 35 -16c20 -9 35 -21 52 -27c-2 -16 -12 -32 -18 -47c-3 -7 -5 -13 -6 -18l1 -6c0 -3 -1 -4 -4 -5l-11 3c-3 -2 -6 -7 -9 -9c7 -5 11 -9 16 -12
c-9 4 -17 1 -25 6c-12 6 -23 9 -34 14l-63 29c-60 -22 -90 -37 -110 -48c-8 8 -1 2 -5 9c-2 10 -8 18 -11 27c-4 6 -6 13 -15 17c-4 2 -9 3 -11 3c-1 0 -1 3 -1 4c5 9 17 10 24 18c3 6 -1 10 -1 16zM91 614c21 9 45 -3 66 -3c8 0 35 26 40 13c4 -13 -1 -35 2 -48
c4 -12 10 -13 17 -20c1 31 -5 56 6 72c0 -31 5 -61 4 -94c-1 -51 0 -98 -1 -149c-1 -52 -6 -103 -9 -156c-5 -48 -8 -96 -8 -145c0 -35 1 -66 0 -101c-14 24 -44 4 -47 4c-7 -1 -14 -3 -21 0c-5 4 -9 14 -16 15c-11 3 -20 -5 -31 -12c-7 -5 -15 1 -23 -3c1 67 4 131 7 195
c3 56 3 109 6 165c3 89 9 178 8 266v1z" />
    <glyph glyph-name="Idieresis" unicode="&#xcf;" horiz-adv-x="296" 
d="M145 804c-3 -22 -3 -38 -2 -56c1 -17 2 -34 -1 -51c-4 2 -10 -1 -18 1c-8 3 -16 5 -23 4l-14 -4c-5 0 -10 0 -16 2c-4 -1 -32 3 -37 -2c-2 9 1 16 2 24c2 11 -3 24 -1 36c0 19 0 32 1 32c-1 11 4 17 5 27c0 -6 2 -12 4 -20c4 0 11 1 13 4l3 13c1 1 3 1 5 0l6 -4
c5 -1 11 -2 19 -1c18 -2 37 0 54 -5zM187 813c2 -4 3 -9 15 -12l2 12c2 2 3 2 5 1l6 -4c6 -1 11 -2 20 -1c17 -1 36 0 54 -6c-5 -21 -3 -37 -2 -55c0 -16 1 -34 -1 -51l-8 5l-5 10c-3 -9 -22 -9 -29 -10l-14 -3c-4 0 -9 -2 -16 1c-3 -1 -32 3 -36 -1c-3 8 0 15 2 23
c1 12 -4 24 -2 36c0 19 1 32 1 32c0 9 3 14 4 21zM91 614c21 9 45 -3 66 -3c8 0 35 26 40 13c4 -13 -1 -35 2 -48c4 -12 10 -13 17 -20c1 31 -5 56 6 72c0 -31 5 -61 4 -94c-1 -51 0 -98 -1 -149c-1 -52 -6 -103 -9 -156c-5 -48 -8 -96 -8 -145c0 -35 1 -66 0 -101
c-14 24 -44 4 -47 4c-7 -1 -14 -3 -21 0c-5 4 -9 14 -16 15c-11 3 -20 -5 -31 -12c-7 -5 -15 1 -23 -3c1 67 4 131 7 195c3 56 3 109 6 165c3 89 9 178 8 266v1z" />
    <glyph glyph-name="Idotaccent" unicode="&#x130;" horiz-adv-x="296" 
d="M216 806c-5 -22 -3 -40 -2 -58c0 -18 1 -36 -1 -53c-5 1 -12 -2 -20 0c-8 3 -16 5 -24 4l-14 -3c-5 0 -11 -1 -18 1c-3 -1 -33 3 -38 -1c-2 9 0 16 2 24c2 13 -3 25 -2 38c0 20 1 34 1 34c0 11 5 17 6 28c0 -6 2 -12 4 -21c5 0 11 1 15 4l2 13c2 2 3 2 6 1l5 -4
c6 -2 12 -3 21 -2c19 -1 39 0 57 -5zM91 614c21 9 45 -3 66 -3c8 0 35 26 40 13c4 -13 -1 -35 2 -48c4 -12 10 -13 17 -20c1 31 -5 56 6 72c0 -31 5 -61 4 -94c-1 -51 0 -98 -1 -149c-1 -52 -6 -103 -9 -156c-5 -48 -8 -96 -8 -145c0 -35 1 -66 0 -101c-14 24 -44 4 -47 4
c-7 -1 -14 -3 -21 0c-5 4 -9 14 -16 15c-11 3 -20 -5 -31 -12c-7 -5 -15 1 -23 -3c1 67 4 131 7 195c3 56 3 109 6 165c3 89 9 178 8 266v1z" />
    <glyph glyph-name="Igrave" unicode="&#xcc;" horiz-adv-x="296" 
d="M87 775c9 15 25 27 37 40c6 5 10 10 13 15l1 6c1 2 2 3 5 3l10 -7c4 0 9 3 13 6c-5 7 -7 12 -11 17c7 -7 15 -8 22 -15c9 -11 19 -19 27 -27l24 -32c7 -9 14 -20 23 -28c7 -5 13 -8 17 -15c-6 0 -24 -22 -27 -25c-3 -5 -8 -9 -11 -12l-12 -6c-7 -5 -11 -12 -15 -19
s-10 -9 -13 -13c-13 11 -24 24 -35 36c-9 11 -18 19 -27 30c-15 16 -26 34 -41 46zM91 614c21 9 45 -3 66 -3c8 0 35 26 40 13c4 -13 -1 -35 2 -48c4 -12 10 -13 17 -20c1 31 -5 56 6 72c0 -31 5 -61 4 -94c-1 -51 0 -98 -1 -149c-1 -52 -6 -103 -9 -156
c-5 -48 -8 -96 -8 -145c0 -35 1 -66 0 -101c-14 24 -44 4 -47 4c-7 -1 -14 -3 -21 0c-5 4 -9 14 -16 15c-11 3 -20 -5 -31 -12c-7 -5 -15 1 -23 -3c1 67 4 131 7 195c3 56 3 109 6 165c3 89 9 178 8 266v1z" />
    <glyph glyph-name="Imacron" unicode="&#x12a;" horiz-adv-x="296" 
d="M13 701c0 3 -1 7 0 13l1 29l-1 12c0 4 0 7 -1 14c-4 3 -8 4 -8 7l3 3c2 0 6 1 10 1h8c2 -2 5 -1 7 -1c6 3 6 9 10 13c-14 0 -23 2 -37 6l49 3c38 -8 74 -5 111 -7l143 -1c1 -6 -2 -8 -2 -14c-1 -9 2 -24 2 -26c1 -3 0 -6 1 -10v-5c-2 -4 -5 -6 -7 -14c1 -7 6 -8 6 -15
c0 -10 0 -11 1 -14h-115c-32 2 -61 6 -95 6h-86zM91 614c21 9 45 -3 66 -3c8 0 35 26 40 13c4 -13 -1 -35 2 -48c4 -12 10 -13 17 -20c1 31 -5 56 6 72c0 -31 5 -61 4 -94c-1 -51 0 -98 -1 -149c-1 -52 -6 -103 -9 -156c-5 -48 -8 -96 -8 -145c0 -35 1 -66 0 -101
c-14 24 -44 4 -47 4c-7 -1 -14 -3 -21 0c-5 4 -9 14 -16 15c-11 3 -20 -5 -31 -12c-7 -5 -15 1 -23 -3c1 67 4 131 7 195c3 56 3 109 6 165c3 89 9 178 8 266v1z" />
    <glyph glyph-name="Iogonek" unicode="&#x12e;" horiz-adv-x="296" 
d="M273 -188c3 -3 3 -6 7 -7c-46 -33 -87 -54 -136 -55c-80 0 -117 57 -122 102c-3 29 23 84 63 140c-2 3 -5 7 -9 8c1 67 -2 118 1 182c3 56 3 109 6 165c3 89 9 178 8 266v1c21 9 45 -3 66 -3c8 0 35 26 40 13c4 -13 -1 -35 2 -48c4 -12 10 -13 17 -20c1 31 -5 56 6 72
c0 -31 5 -61 4 -94c-1 -51 0 -98 -1 -149c-1 -52 -6 -103 -9 -156c-5 -48 -8 -96 -8 -145c0 -35 1 -51 0 -86c-7 -1 -13 -3 -19 -5c-11 -14 -27 -38 -39 -55c-14 -20 -25 -43 -25 -63c0 -16 8 -31 26 -31c19 0 38 11 70 33l9 -3l8 -12c-3 -2 16 -29 23 -30
c5 -1 9 -16 12 -20z" />
    <glyph glyph-name="J" unicode="J" horiz-adv-x="436" 
d="M334 332c1 -9 4 -39 4 -78c0 -107 -43 -285 -195 -285c-17 0 -32 3 -45 10c-15 7 -25 17 -34 30c-5 7 -8 13 -11 20l-6 11l-1 5l-2 6c-3 10 -5 20 -6 31c-4 20 -5 38 -6 57v22c0 17 -1 34 2 51v33l2 18v10l4 -2c3 -1 2 -4 3 -5c3 -1 3 -5 5 -5l6 1c11 3 19 11 22 12
c2 1 5 1 8 1s6 -1 8 -2c4 -5 6 -16 11 -19c1 -1 2 -1 4 -1c3 0 6 1 10 4l13 13c2 3 4 4 7 4l3 -1c1 -1 2 -1 3 -1c2 0 4 1 5 2c0 -7 0 -12 -1 -19l-1 -16c-1 -15 -2 -29 -2 -48c-1 -16 -2 -31 -2 -46l1 -28l3 -25l2 -6l4 -3c3 1 5 2 8 5l3 1l4 3c5 3 8 6 10 10
c7 7 12 17 16 30s7 28 10 45c3 15 2 31 2 47v33c0 29 -2 58 -5 87l-11 90c-3 15 -4 29 -7 44l-3 32h-126c-1 3 -2 8 -2 15l3 38v11c0 5 -1 8 -2 11c-4 3 -9 4 -9 7c0 1 1 2 3 3s6 2 11 2h8c4 0 7 0 8 1c7 3 7 9 10 13c-15 1 -24 2 -39 5l52 6h83c29 0 58 -1 87 -3h46
c12 0 24 1 36 2c19 1 37 3 56 3c0 -7 -4 -9 -4 -16c0 -11 3 -21 3 -24c1 -3 1 -6 1 -11v-5c-3 -4 -6 -7 -7 -16c0 -7 4 -14 7 -22c1 -1 1 -4 1 -7v-7c0 -3 1 -4 1 -7h-98c1 -5 2 -9 2 -12c3 -21 8 -40 11 -63zM290 486c7 -15 11 -16 18 -23c-3 19 -4 33 -5 46h-16z" />
    <glyph glyph-name="K" unicode="K" horiz-adv-x="565" 
d="M494 61c15 -18 25 -30 41 -62c-8 -4 -14 5 -25 0c-12 -7 -22 -14 -25 -15c-5 -3 -12 -7 -21 -8c-3 0 -10 2 -19 2c-12 -3 -20 -11 -28 -18c-7 -4 -15 -4 -22 -9c-9 15 -19 30 -30 46l-35 46c-22 26 -81 115 -108 164v-43c0 -29 0 -40 1 -61c3 -33 4 -65 4 -100
c-6 3 -6 12 -15 12c-15 0 -35 -10 -38 -11c-4 -1 -9 -1 -13 -1s-7 0 -9 1c-7 4 -5 11 -12 14h-4c-12 0 -19 -9 -30 -14c-1 -1 -3 -1 -6 -1l-14 1c-3 0 -6 -1 -10 -2v190c-1 41 -5 82 -5 123v41c-1 35 -1 68 -1 103v164c6 3 13 4 21 4c17 0 35 -6 51 -6l11 -1c6 0 11 2 15 5
c4 5 7 14 10 14c1 0 3 -2 5 -6c1 -2 1 -5 1 -10l-1 -23c0 -4 1 -9 2 -14c4 -11 12 -11 20 -18c0 29 -4 58 5 71c3 -32 5 -61 9 -93v-113l1 -54l51 64c20 25 52 70 79 91c73 70 50 62 78 88c11 -5 29 -13 36 -21l23 -24c7 -5 11 -15 23 -16h11c3 0 4 -1 4 -2
c0 -6 -27 -26 -27 -34c0 -5 2 -8 6 -8s11 6 17 7c0 -8 -134 -127 -168 -164c-13 -13 -24 -27 -35 -41l3 -10l10 -23c5 -11 12 -23 19 -34c8 -11 15 -23 24 -34c17 -27 34 -51 57 -78c21 -25 40 -51 63 -79zM299 297c5 -3 11 -2 16 -3c-3 8 -2 13 -2 20
c-5 -5 -10 -11 -14 -17z" />
    <glyph glyph-name="Kcommaaccent" unicode="&#x136;" horiz-adv-x="565" 
d="M494 61c15 -18 25 -30 41 -62c-8 -4 -14 5 -25 0c-12 -7 -22 -14 -25 -15c-5 -3 -12 -7 -21 -8c-3 0 -10 2 -19 2c-12 -3 -20 -11 -28 -18c-7 -4 -15 -4 -22 -9c-9 15 -19 30 -30 46l-35 46c-22 26 -81 115 -108 164v-43c0 -29 0 -40 1 -61c3 -33 4 -65 4 -100
c-6 3 -6 12 -15 12c-15 0 -35 -10 -38 -11c-4 -1 -9 -1 -13 -1s-7 0 -9 1c-7 4 -5 11 -12 14h-4c-12 0 -19 -9 -30 -14c-1 -1 -3 -1 -6 -1l-14 1c-3 0 -6 -1 -10 -2v190c-1 41 -5 82 -5 123v41c-1 35 -1 68 -1 103v164c6 3 13 4 21 4c17 0 35 -6 51 -6l11 -1c6 0 11 2 15 5
c4 5 7 14 10 14c1 0 3 -2 5 -6c1 -2 1 -5 1 -10l-1 -23c0 -4 1 -9 2 -14c4 -11 12 -11 20 -18c0 29 -4 58 5 71c3 -32 5 -61 9 -93v-113l1 -54l51 64c20 25 52 70 79 91c73 70 50 62 78 88c11 -5 29 -13 36 -21l23 -24c7 -5 11 -15 23 -16h11c3 0 4 -1 4 -2
c0 -6 -27 -26 -27 -34c0 -5 2 -8 6 -8s11 6 17 7c0 -8 -134 -127 -168 -164c-13 -13 -24 -27 -35 -41l3 -10l10 -23c5 -11 12 -23 19 -34c8 -11 15 -23 24 -34c17 -27 34 -51 57 -78c21 -25 40 -51 63 -79zM299 297c5 -3 11 -2 16 -3c-3 8 -2 13 -2 20
c-5 -5 -10 -11 -14 -17zM363 -132c-15 -12 -26 -30 -41 -46c-9 -11 -18 -19 -27 -30c-11 -12 -22 -25 -35 -36c-3 4 -9 6 -13 13s-8 14 -15 19l-12 6c-3 3 -8 7 -11 12c-3 3 -21 25 -27 25c4 7 10 10 17 15c9 8 16 19 23 28l24 32c8 8 18 16 27 27c7 7 15 8 22 15
c-4 -5 -6 -10 -11 -17c4 -3 9 -6 13 -6l10 7c3 0 4 -1 5 -3l1 -6c3 -5 7 -10 13 -15c12 -13 28 -25 37 -40z" />
    <glyph glyph-name="L" unicode="L" horiz-adv-x="468" 
d="M448 -9h-111c-31 -1 -61 -1 -92 -4l-154 -13c-5 12 -5 26 -5 41c0 7 0 14 -1 21v7c0 7 0 13 -5 17c-3 3 -10 6 -10 9c0 1 1 2 3 3c5 3 8 3 15 3l3 26v520c6 2 12 3 17 3c16 0 30 -6 45 -6l14 -1c5 0 9 2 12 6c3 5 4 13 7 13s4 -2 5 -5c2 -4 3 -9 3 -15l-1 -21l1 -10
c3 -11 9 -11 16 -18c0 29 -4 57 5 69l13 -90l-13 -141v-240c0 -16 -1 -32 2 -47c28 3 56 2 85 2h44c15 0 29 0 42 1l5 1c19 2 37 3 55 3c-3 -8 -8 -4 -8 -13c0 -11 6 -27 7 -32l1 -9l-1 -11c-1 -5 -7 -8 -7 -15v-4c0 -8 4 -17 7 -25z" />
    <glyph glyph-name="Lacute" unicode="&#x139;" horiz-adv-x="468" 
d="M279 781c-15 -12 -26 -30 -41 -46c-9 -11 -18 -19 -27 -30c-11 -12 -22 -25 -35 -36c-3 4 -9 6 -13 13s-8 14 -15 19l-12 6c-3 3 -8 7 -11 12c-3 3 -21 25 -27 25c4 7 10 10 17 15c9 8 16 19 23 28l24 32c8 8 18 16 27 27c7 7 15 8 22 15c-4 -5 -6 -10 -11 -17
c4 -3 9 -6 13 -6l10 7c3 0 4 -1 5 -3l1 -6c3 -5 7 -10 13 -15c12 -13 28 -25 37 -40zM448 -9h-111c-31 -1 -61 -1 -92 -4l-154 -13c-5 12 -5 26 -5 41c0 7 0 14 -1 21v7c0 7 0 13 -5 17c-3 3 -10 6 -10 9c0 1 1 2 3 3c5 3 8 3 15 3l3 26v520c6 2 12 3 17 3c16 0 30 -6 45 -6
l14 -1c5 0 9 2 12 6c3 5 4 13 7 13s4 -2 5 -5c2 -4 3 -9 3 -15l-1 -21l1 -10c3 -11 9 -11 16 -18c0 29 -4 57 5 69l13 -90l-13 -141v-240c0 -16 -1 -32 2 -47c28 3 56 2 85 2h44c15 0 29 0 42 1l5 1c19 2 37 3 55 3c-3 -8 -8 -4 -8 -13c0 -11 6 -27 7 -32l1 -9l-1 -11
c-1 -5 -7 -8 -7 -15v-4c0 -8 4 -17 7 -25z" />
    <glyph glyph-name="Lcaron" unicode="&#x13d;" horiz-adv-x="468" 
d="M448 -9h-111c-31 -1 -61 -1 -92 -4l-154 -13c-5 12 -5 26 -5 41c0 7 0 14 -1 21v7c0 7 0 13 -5 17c-3 3 -10 6 -10 9c0 1 1 2 3 3c5 3 8 3 15 3l3 26v520c6 2 12 3 17 3c16 0 30 -6 45 -6l14 -1c5 0 9 2 12 6c3 5 4 13 7 13s4 -2 5 -5c2 -4 3 -9 3 -15l-1 -21l1 -10
c3 -11 9 -11 16 -18c0 29 -4 57 5 69l13 -90l-13 -141v-240c0 -16 -1 -32 2 -47c28 3 56 2 85 2h44c15 0 29 0 42 1l5 1c19 2 37 3 55 3c-3 -8 -8 -4 -8 -13c0 -11 6 -27 7 -32l1 -9l-1 -11c-1 -5 -7 -8 -7 -15v-4c0 -8 4 -17 7 -25zM463 555c-15 -12 -26 -30 -41 -46
c-9 -11 -18 -19 -27 -30c-11 -12 -22 -25 -35 -36c-3 4 -9 6 -13 13s-8 14 -15 19l-12 6c-3 3 -8 7 -11 12c-3 3 -21 25 -27 25c4 7 10 10 17 15c9 8 16 19 23 28l24 32c8 8 18 16 27 27c7 7 15 8 22 15c-4 -5 -6 -10 -11 -17c4 -3 9 -6 13 -6l10 7c3 0 4 -1 5 -3l1 -6
c3 -5 7 -10 13 -15c12 -13 28 -25 37 -40z" />
    <glyph glyph-name="Lcommaaccent" unicode="&#x13b;" horiz-adv-x="468" 
d="M448 -9h-111c-31 -1 -61 -1 -92 -4l-154 -13c-5 12 -5 26 -5 41c0 7 0 14 -1 21v7c0 7 0 13 -5 17c-3 3 -10 6 -10 9c0 1 1 2 3 3c5 3 8 3 15 3l3 26v520c6 2 12 3 17 3c16 0 30 -6 45 -6l14 -1c5 0 9 2 12 6c3 5 4 13 7 13s4 -2 5 -5c2 -4 3 -9 3 -15l-1 -21l1 -10
c3 -11 9 -11 16 -18c0 29 -4 57 5 69l13 -90l-13 -141v-240c0 -16 -1 -32 2 -47c28 3 56 2 85 2h44c15 0 29 0 42 1l5 1c19 2 37 3 55 3c-3 -8 -8 -4 -8 -13c0 -11 6 -27 7 -32l1 -9l-1 -11c-1 -5 -7 -8 -7 -15v-4c0 -8 4 -17 7 -25zM340 -132c-15 -12 -26 -30 -41 -46
c-9 -11 -18 -19 -27 -30c-11 -12 -22 -25 -35 -36c-3 4 -9 6 -13 13s-8 14 -15 19l-12 6c-3 3 -8 7 -11 12c-3 3 -21 25 -27 25c4 7 10 10 17 15c9 8 16 19 23 28l24 32c8 8 18 16 27 27c7 7 15 8 22 15c-4 -5 -6 -10 -11 -17c4 -3 9 -6 13 -6l10 7c3 0 4 -1 5 -3l1 -6
c3 -5 7 -10 13 -15c12 -13 28 -25 37 -40z" />
    <glyph glyph-name="Ldot" unicode="&#x13f;" horiz-adv-x="468" 
d="M447 60c-1 -5 -7 -8 -7 -15v-4c0 -8 4 -17 7 -25l1 -25h-111c-31 -1 -61 -1 -92 -4l-154 -13c-5 12 -5 26 -5 41c0 7 0 14 -1 21v7c0 7 0 13 -5 17c-3 3 -10 6 -10 9c0 1 1 2 3 3c5 3 8 3 15 3l3 26v520c6 2 12 3 17 3c16 0 30 -6 45 -6l14 -1c5 0 9 2 12 6
c3 5 4 13 7 13s4 -2 5 -5c2 -4 3 -9 3 -15l-1 -21l1 -10c3 -11 9 -11 16 -18c0 29 -4 57 5 69l13 -90l-13 -141v-240c0 -16 -1 -32 2 -47c28 3 56 2 85 2h44c15 0 29 0 42 1l5 1c19 2 37 3 55 3c-3 -8 -8 -4 -8 -13c0 -11 6 -27 7 -32l1 -9zM308 249h-18l-3 31v78l9 1l9 -1
h46c5 0 8 0 10 1l7 2c1 0 2 0 3 -1s2 -2 2 -5c0 -1 0 -2 1 -3c3 -3 8 -2 13 -3c1 5 2 8 5 12l4 -15l2 -29c0 -7 -1 -15 -2 -22v-14c0 -6 0 -10 1 -13l3 -19c0 1 -4 2 -11 2c-11 0 -24 -1 -27 -2h-16l-13 3c-9 0 -17 -2 -25 -3z" />
    <glyph glyph-name="Lslash" unicode="&#x141;" horiz-adv-x="468" 
d="M447 60c-1 -5 -7 -8 -7 -15v-4c0 -8 4 -17 7 -25l1 -25h-111c-31 -1 -61 -1 -92 -4l-154 -13c-5 12 -5 26 -5 41c0 7 0 14 -1 21v7c0 7 0 13 -5 17c-3 3 -10 6 -10 9c0 1 1 2 3 3c5 3 8 3 15 3l3 26v106l-22 -8l-24 -10c-4 4 -9 28 -14 39l-3 10c-1 4 -3 7 -7 8
c-5 2 -11 1 -12 3c0 1 0 3 3 5l9 5l15 5l5 3c7 6 6 12 7 18c-19 -8 -29 -8 -48 -10l91 35v311c6 2 12 3 17 3c16 0 30 -6 45 -6l14 -1c5 0 9 2 12 6c3 5 4 13 7 13s4 -2 5 -5c2 -4 3 -9 3 -15l-1 -21l1 -10c3 -11 9 -11 16 -18c0 29 -4 57 5 69l13 -90l-13 -141v-48l103 40
c-5 -3 -6 -6 -4 -12c4 -11 15 -22 17 -24l4 -8c1 -3 2 -6 1 -7c-1 -5 -4 -10 -3 -17c3 -8 6 -1 20 -22l-138 -52v-90c0 -16 -1 -32 2 -47c28 3 56 2 85 2h44c15 0 29 0 42 1l5 1c19 2 37 3 55 3c-3 -8 -8 -4 -8 -13c0 -11 6 -27 7 -32l1 -9z" />
    <glyph glyph-name="M" unicode="M" horiz-adv-x="677" 
d="M580 570c8 -3 27 -584 27 -628c-5 3 -4 14 -11 14c-2 0 -5 -1 -9 -2c-11 -3 -17 -8 -22 -11s-9 -2 -11 -2c-1 0 -3 1 -6 2c-7 4 -8 14 -15 15l-3 1c-8 0 -16 -9 -24 -16l-20 -2c-1 68 -3 138 -6 206l-9 232c-7 -8 -11 -15 -18 -23l-13 -15l-2 -3l-12 -14l-87 -77l-33 36
l-33 38l-32 34c-8 8 -16 16 -23 25l-14 17c4 -47 6 -91 9 -138l16 -255c-8 0 -5 12 -12 12c-3 0 -6 0 -8 -1c-11 -3 -21 -9 -22 -10c-5 -1 -9 -2 -11 -2s-4 1 -7 2c-5 3 -9 12 -14 13c-1 1 -2 1 -4 1c-8 0 -16 -9 -24 -14c-3 -1 -5 -2 -6 -2l-8 1c-2 0 -4 0 -5 -1
c-3 64 -5 127 -10 191c-4 56 -9 113 -14 169c-8 91 -13 183 -14 279c4 2 9 3 14 3l15 -1c11 -3 20 -5 28 -5l12 -1c5 0 8 2 11 6c4 5 5 14 8 14c1 0 2 -2 3 -6c1 -3 2 -9 2 -18v-13c0 -7 1 -11 2 -16c3 -12 10 -13 15 -18v18c-3 5 -9 13 -9 22l10 -13c0 15 -5 38 4 44
c0 -19 2 -37 3 -54l11 -14l28 -35c31 -39 65 -73 98 -110c7 -7 9 -12 16 -17l5 -7c0 -3 1 -2 1 -3l3 1l2 3l6 6c3 3 7 8 10 13c8 9 15 16 22 27c15 19 27 39 38 60c15 25 27 49 42 76v16c3 1 3 2 10 2c2 0 74 12 82 12c1 0 2 -2 2 -6v-42c0 -13 1 -23 8 -23c4 0 9 7 8 7z
M190 568c7 -3 10 -1 17 -2c-9 12 -12 18 -18 25c1 -9 1 -14 1 -23zM580 570v0z" />
    <glyph glyph-name="N" unicode="N" horiz-adv-x="610" 
d="M529 595c2 19 4 29 6 29c3 0 5 -24 5 -55c0 -61 -6 -149 -6 -159c-4 -56 -10 -110 -15 -166c-4 -47 -7 -90 -7 -137v-122c-9 0 -4 13 -12 13c-4 0 -7 -1 -10 -2c-24 -7 -22 -10 -36 -10c-4 0 -7 0 -9 1c-7 4 -9 12 -16 15h-4c-11 0 -18 -10 -27 -15l-23 -2v24
c-21 47 -58 110 -87 153l-92 136c-1 -12 5 -94 5 -106c-2 -40 0 -64 0 -101v-37c4 -35 5 -69 5 -106c-7 0 -7 13 -14 13c-15 0 -31 -11 -34 -12s-7 -1 -12 -1c-3 0 -6 0 -7 1c-7 4 -10 13 -17 14l-4 1c-9 0 -17 -8 -26 -15c-1 -1 -3 -1 -5 -1l-11 1c-3 0 -2 -2 -6 -2v658
c6 2 12 3 17 3c17 0 33 -7 48 -7l13 -1c5 0 10 2 13 6c7 5 8 15 11 15c1 0 2 -2 4 -7l2 -49c3 -13 9 -14 16 -18c1 29 -8 58 6 74c0 -33 6 -64 6 -100v-8c4 -4 9 -1 16 -4c-11 23 -14 44 -14 59c-3 8 59 -95 116 -191c25 -41 59 -77 71 -125c1 39 3 97 6 121l4 142
c1 47 5 93 5 141c7 3 9 5 14 5c3 0 8 -1 13 -2l3 -1c11 -3 23 -5 32 -5l13 -1c6 0 11 2 14 6c5 7 6 16 9 16c1 0 3 -2 4 -6c1 -5 2 -9 2 -16l-1 -23c0 -6 0 -10 1 -13c3 -13 11 -14 15 -21z" />
    <glyph glyph-name="Nacute" unicode="&#x143;" horiz-adv-x="610" 
d="M399 781c-15 -12 -26 -30 -41 -46c-9 -11 -18 -19 -27 -30c-11 -12 -22 -25 -35 -36c-3 4 -9 6 -13 13s-8 14 -15 19l-12 6c-3 3 -8 7 -11 12c-3 3 -21 25 -27 25c4 7 10 10 17 15c9 8 16 19 23 28l24 32c8 8 18 16 27 27c7 7 15 8 22 15c-4 -5 -6 -10 -11 -17
c4 -3 9 -6 13 -6l10 7c3 0 4 -1 5 -3l1 -6c3 -5 7 -10 13 -15c12 -13 28 -25 37 -40zM529 595c2 19 4 29 6 29c3 0 5 -24 5 -55c0 -61 -6 -149 -6 -159c-4 -56 -10 -110 -15 -166c-4 -47 -7 -90 -7 -137v-122c-9 0 -4 13 -12 13c-4 0 -7 -1 -10 -2c-24 -7 -22 -10 -36 -10
c-4 0 -7 0 -9 1c-7 4 -9 12 -16 15h-4c-11 0 -18 -10 -27 -15l-23 -2v24c-21 47 -58 110 -87 153l-92 136c-1 -12 5 -94 5 -106c-2 -40 0 -64 0 -101v-37c4 -35 5 -69 5 -106c-7 0 -7 13 -14 13c-15 0 -31 -11 -34 -12s-7 -1 -12 -1c-3 0 -6 0 -7 1c-7 4 -10 13 -17 14l-4 1
c-9 0 -17 -8 -26 -15c-1 -1 -3 -1 -5 -1l-11 1c-3 0 -2 -2 -6 -2v658c6 2 12 3 17 3c17 0 33 -7 48 -7l13 -1c5 0 10 2 13 6c7 5 8 15 11 15c1 0 2 -2 4 -7l2 -49c3 -13 9 -14 16 -18c1 29 -8 58 6 74c0 -33 6 -64 6 -100v-8c4 -4 9 -1 16 -4c-11 23 -14 44 -14 59
c-3 8 59 -95 116 -191c25 -41 59 -77 71 -125c1 39 3 97 6 121l4 142c1 47 5 93 5 141c7 3 9 5 14 5c3 0 8 -1 13 -2l3 -1c11 -3 23 -5 32 -5l13 -1c6 0 11 2 14 6c5 7 6 16 9 16c1 0 3 -2 4 -6c1 -5 2 -9 2 -16l-1 -23c0 -6 0 -10 1 -13c3 -13 11 -14 15 -21z" />
    <glyph glyph-name="Ncaron" unicode="&#x147;" horiz-adv-x="610" 
d="M416 748c12 8 26 18 37 14c-12 -8 -28 -19 -43 -26c-26 -11 -47 -23 -70 -35l-51 -25h-17c-13 9 -38 23 -52 30c-13 6 -23 9 -35 16c-20 9 -35 21 -52 27c2 16 12 32 18 47c3 7 5 13 6 18l-1 6c0 3 1 4 4 5l11 -3c3 2 6 7 9 9c-7 5 -11 9 -16 12c9 -4 17 -1 25 -6
c12 -6 23 -9 34 -14l63 -29c60 22 90 37 110 48c8 -8 1 -2 5 -9c2 -10 8 -18 11 -27c4 -6 6 -13 15 -17c4 -2 9 -3 11 -3c1 0 1 -3 1 -4c-5 -9 -17 -10 -24 -18c-3 -6 1 -10 1 -16zM529 595c2 19 4 29 6 29c3 0 5 -24 5 -55c0 -61 -6 -149 -6 -159c-4 -56 -10 -110 -15 -166
c-4 -47 -7 -90 -7 -137v-122c-9 0 -4 13 -12 13c-4 0 -7 -1 -10 -2c-24 -7 -22 -10 -36 -10c-4 0 -7 0 -9 1c-7 4 -9 12 -16 15h-4c-11 0 -18 -10 -27 -15l-23 -2v24c-21 47 -58 110 -87 153l-92 136c-1 -12 5 -94 5 -106c-2 -40 0 -64 0 -101v-37c4 -35 5 -69 5 -106
c-7 0 -7 13 -14 13c-15 0 -31 -11 -34 -12s-7 -1 -12 -1c-3 0 -6 0 -7 1c-7 4 -10 13 -17 14l-4 1c-9 0 -17 -8 -26 -15c-1 -1 -3 -1 -5 -1l-11 1c-3 0 -2 -2 -6 -2v658c6 2 12 3 17 3c17 0 33 -7 48 -7l13 -1c5 0 10 2 13 6c7 5 8 15 11 15c1 0 2 -2 4 -7l2 -49
c3 -13 9 -14 16 -18c1 29 -8 58 6 74c0 -33 6 -64 6 -100v-8c4 -4 9 -1 16 -4c-11 23 -14 44 -14 59c-3 8 59 -95 116 -191c25 -41 59 -77 71 -125c1 39 3 97 6 121l4 142c1 47 5 93 5 141c7 3 9 5 14 5c3 0 8 -1 13 -2l3 -1c11 -3 23 -5 32 -5l13 -1c6 0 11 2 14 6
c5 7 6 16 9 16c1 0 3 -2 4 -6c1 -5 2 -9 2 -16l-1 -23c0 -6 0 -10 1 -13c3 -13 11 -14 15 -21z" />
    <glyph glyph-name="Ncommaaccent" unicode="&#x145;" horiz-adv-x="610" 
d="M529 595c2 19 4 29 6 29c3 0 5 -24 5 -55c0 -61 -6 -149 -6 -159c-4 -56 -10 -110 -15 -166c-4 -47 -7 -90 -7 -137v-122c-9 0 -4 13 -12 13c-4 0 -7 -1 -10 -2c-24 -7 -22 -10 -36 -10c-4 0 -7 0 -9 1c-7 4 -9 12 -16 15h-4c-11 0 -18 -10 -27 -15l-23 -2v24
c-21 47 -58 110 -87 153l-92 136c-1 -12 5 -94 5 -106c-2 -40 0 -64 0 -101v-37c4 -35 5 -69 5 -106c-7 0 -7 13 -14 13c-15 0 -31 -11 -34 -12s-7 -1 -12 -1c-3 0 -6 0 -7 1c-7 4 -10 13 -17 14l-4 1c-9 0 -17 -8 -26 -15c-1 -1 -3 -1 -5 -1l-11 1c-3 0 -2 -2 -6 -2v658
c6 2 12 3 17 3c17 0 33 -7 48 -7l13 -1c5 0 10 2 13 6c7 5 8 15 11 15c1 0 2 -2 4 -7l2 -49c3 -13 9 -14 16 -18c1 29 -8 58 6 74c0 -33 6 -64 6 -100v-8c4 -4 9 -1 16 -4c-11 23 -14 44 -14 59c-3 8 59 -95 116 -191c25 -41 59 -77 71 -125c1 39 3 97 6 121l4 142
c1 47 5 93 5 141c7 3 9 5 14 5c3 0 8 -1 13 -2l3 -1c11 -3 23 -5 32 -5l13 -1c6 0 11 2 14 6c5 7 6 16 9 16c1 0 3 -2 4 -6c1 -5 2 -9 2 -16l-1 -23c0 -6 0 -10 1 -13c3 -13 11 -14 15 -21zM384 -132c-15 -12 -26 -30 -41 -46c-9 -11 -18 -19 -27 -30
c-11 -12 -22 -25 -35 -36c-3 4 -9 6 -13 13s-8 14 -15 19l-12 6c-3 3 -8 7 -11 12c-3 3 -21 25 -27 25c4 7 10 10 17 15c9 8 16 19 23 28l24 32c8 8 18 16 27 27c7 7 15 8 22 15c-4 -5 -6 -10 -11 -17c4 -3 9 -6 13 -6l10 7c3 0 4 -1 5 -3l1 -6c3 -5 7 -10 13 -15
c12 -13 28 -25 37 -40z" />
    <glyph glyph-name="Eng" unicode="&#x14a;" horiz-adv-x="610" 
d="M535 624c3 0 5 -24 5 -55c0 -61 -6 -149 -6 -159c-4 -56 -10 -110 -15 -166c-4 -47 -7 -90 -7 -137v-61c1 -13 1 -25 1 -38c0 -20 -1 -38 -4 -59c-3 -19 -5 -39 -12 -60c-3 -11 -5 -20 -12 -31c-4 -11 -10 -21 -17 -32s-16 -19 -24 -28c-7 -7 -11 -9 -15 -13l-5 -3
c-1 -3 -3 -2 -4 -3c-3 -3 -5 -2 -8 -5c-4 -3 -7 -4 -14 -8l-16 -7c-15 -6 -41 -9 -56 -9h-23l-28 2h-10l2 4c1 3 4 2 5 3c1 3 5 3 5 5l-1 6c-3 11 -11 19 -12 22c-1 2 -1 5 -1 8s1 6 2 8c5 4 16 6 19 11c1 1 1 2 1 4c0 3 -1 6 -4 10l-13 13c-3 2 -4 4 -4 7l1 3c1 1 1 2 1 3
c0 2 -1 4 -2 5c7 0 12 0 19 -1l26 -1l26 2c3 1 7 -2 10 1l3 1l4 3c5 3 16 10 18 14c7 7 12 17 16 30s7 28 10 45c2 9 2 19 2 29l-15 29c-24 46 -66 103 -95 146l-92 136c-1 -12 5 -94 5 -106c-2 -40 0 -64 0 -101v-37c4 -35 5 -69 5 -106c-7 0 -7 13 -14 13
c-15 0 -31 -11 -34 -12s-7 -1 -12 -1c-3 0 -6 0 -7 1c-7 4 -10 13 -17 14l-4 1c-9 0 -17 -8 -26 -15c-1 -1 -3 -1 -5 -1l-11 1c-3 0 -2 -2 -6 -2v658c6 2 12 3 17 3c17 0 33 -7 48 -7l13 -1c5 0 10 2 13 6c7 5 8 15 11 15c1 0 2 -2 4 -7l2 -49c3 -13 9 -14 16 -18
c1 29 -8 58 6 74c0 -33 6 -64 6 -100v-8c4 -4 9 -1 16 -4c-11 23 -14 44 -14 59c-3 8 59 -95 116 -191c25 -41 59 -77 71 -125c1 39 3 97 6 121l4 142c1 47 5 93 5 141c7 3 9 5 14 5c3 0 8 -1 13 -2l3 -1c11 -3 23 -5 32 -5l13 -1c6 0 11 2 14 6c5 7 6 16 9 16
c1 0 3 -2 4 -6c1 -5 2 -9 2 -16l-1 -23c0 -6 0 -10 1 -13c3 -13 11 -14 15 -21c2 19 4 29 6 29z" />
    <glyph glyph-name="Ntilde" unicode="&#xd1;" horiz-adv-x="610" 
d="M174 839c18 -19 42 -33 66 -33c36 0 62 32 107 32c42 0 91 -29 106 -48c-3 -3 -4 -3 -5 -7c-5 -5 -10 -4 -14 -9c-4 -7 -3 -12 -3 -17l-3 -5c-4 -3 -7 -16 -10 -19c-2 -1 -10 -8 -16 -16c-4 -8 -2 -10 -6 -17c-19 17 -35 33 -70 33c-37 0 -53 -32 -99 -32
c-41 0 -90 23 -109 51c2 3 3 7 8 13l14 21l12 24c2 5 2 8 4 11c-1 5 -5 8 -4 11c0 0 3 0 5 1c2 -1 6 -2 10 -5l7 -4c2 -3 5 -4 7 -5l-9 19zM529 595c2 19 4 29 6 29c3 0 5 -24 5 -55c0 -61 -6 -149 -6 -159c-4 -56 -10 -110 -15 -166c-4 -47 -7 -90 -7 -137v-122
c-9 0 -4 13 -12 13c-4 0 -7 -1 -10 -2c-24 -7 -22 -10 -36 -10c-4 0 -7 0 -9 1c-7 4 -9 12 -16 15h-4c-11 0 -18 -10 -27 -15l-23 -2v24c-21 47 -58 110 -87 153l-92 136c-1 -12 5 -94 5 -106c-2 -40 0 -64 0 -101v-37c4 -35 5 -69 5 -106c-7 0 -7 13 -14 13
c-15 0 -31 -11 -34 -12s-7 -1 -12 -1c-3 0 -6 0 -7 1c-7 4 -10 13 -17 14l-4 1c-9 0 -17 -8 -26 -15c-1 -1 -3 -1 -5 -1l-11 1c-3 0 -2 -2 -6 -2v658c6 2 12 3 17 3c17 0 33 -7 48 -7l13 -1c5 0 10 2 13 6c7 5 8 15 11 15c1 0 2 -2 4 -7l2 -49c3 -13 9 -14 16 -18
c1 29 -8 58 6 74c0 -33 6 -64 6 -100v-8c4 -4 9 -1 16 -4c-11 23 -14 44 -14 59c-3 8 59 -95 116 -191c25 -41 59 -77 71 -125c1 39 3 97 6 121l4 142c1 47 5 93 5 141c7 3 9 5 14 5c3 0 8 -1 13 -2l3 -1c11 -3 23 -5 32 -5l13 -1c6 0 11 2 14 6c5 7 6 16 9 16
c1 0 3 -2 4 -6c1 -5 2 -9 2 -16l-1 -23c0 -6 0 -10 1 -13c3 -13 11 -14 15 -21z" />
    <glyph glyph-name="O" unicode="O" horiz-adv-x="609" 
d="M177 569c8 0 13 -2 16 -7c2 -1 4 -4 5 -8l1 -8l5 -17c1 -4 3 -10 7 -14l5 -12c3 -3 6 -4 9 -4s5 1 8 1c3 1 17 9 24 9c2 0 3 0 3 -1c0 -3 -1 -4 -8 -9c-3 -5 -7 -9 -14 -13c-5 -5 -10 -11 -17 -16c-13 -11 -22 -23 -27 -35c-3 -6 -5 -12 -5 -19v-4c0 -4 1 -9 2 -14
c5 11 12 21 19 30c7 8 13 15 18 23c17 17 35 35 47 32c-21 -10 -38 -29 -54 -52c-15 -23 -27 -48 -36 -75c-7 -21 -8 -43 -11 -66c-1 -7 -1 -15 -1 -22c0 -15 1 -28 4 -41c1 -8 3 -15 6 -22c4 -12 6 -23 13 -32c5 -9 11 -15 16 -20s9 -10 16 -13c6 -4 13 -7 20 -8
c8 -3 16 -4 27 -5c9 3 18 2 29 3c7 1 11 2 16 5c3 0 4 1 11 2l3 2c9 2 16 6 23 12c9 5 16 11 23 18c13 15 24 30 35 53c15 35 22 73 22 112v15c-1 18 -4 36 -9 54l-2 7c-7 19 -18 34 -29 49l-13 13c-3 3 -5 5 -8 6l-6 5l-13 6l-10 1c-4 0 -7 -1 -14 -2c-6 0 -13 -1 -22 -3
l-24 -7c-17 -1 -6 4 -6 7c1 1 1 3 1 7c-1 3 -3 5 -4 6c-4 7 -8 9 -15 14c-8 3 -12 6 -12 8c-1 3 -2 5 -5 8v4c0 3 1 6 2 7c3 3 7 5 14 10c5 3 11 5 11 8v7c-1 3 -5 6 -10 8l-22 11c-2 1 -3 3 -3 7l-1 10c0 1 -1 3 -3 4c12 3 27 5 46 10l33 8h42c13 0 26 -3 37 -6
c15 -3 28 -11 39 -18l16 -8l14 -13c11 -8 19 -14 28 -23c15 -17 29 -37 40 -58c8 -17 18 -36 23 -53l3 -9c6 -21 10 -42 12 -65c1 -12 2 -25 2 -37l-1 -26c-3 -36 -9 -73 -21 -106c-13 -37 -28 -68 -53 -100c-11 -16 -25 -31 -40 -44s-33 -24 -52 -34
c-11 -5 -20 -10 -32 -13l-11 -4l-14 -3c-18 -5 -37 -8 -58 -9c-3 -1 -7 -1 -13 -1c-9 0 -18 1 -28 3l-3 1h-6c-17 1 -32 7 -51 14c-15 7 -31 14 -47 25c-15 12 -26 25 -37 38c-11 12 -20 28 -28 43s-13 28 -18 44c-9 29 -14 58 -15 89l-1 20c0 23 2 44 5 67
c6 29 14 57 24 84c11 27 25 52 41 79c17 23 38 48 62 67z" />
    <glyph glyph-name="Oacute" unicode="&#xd3;" horiz-adv-x="609" 
d="M465 781c-15 -12 -26 -30 -41 -46c-9 -11 -18 -19 -27 -30c-11 -12 -22 -25 -35 -36c-3 4 -9 6 -13 13s-8 14 -15 19l-12 6c-3 3 -8 7 -11 12c-3 3 -21 25 -27 25c4 7 10 10 17 15c9 8 16 19 23 28l24 32c8 8 18 16 27 27c7 7 15 8 22 15c-4 -5 -6 -10 -11 -17
c4 -3 9 -6 13 -6l10 7c3 0 4 -1 5 -3l1 -6c3 -5 7 -10 13 -15c12 -13 28 -25 37 -40zM177 569c8 0 13 -2 16 -7c2 -1 4 -4 5 -8l1 -8l5 -17c1 -4 3 -10 7 -14l5 -12c3 -3 6 -4 9 -4s5 1 8 1c3 1 17 9 24 9c2 0 3 0 3 -1c0 -3 -1 -4 -8 -9c-3 -5 -7 -9 -14 -13
c-5 -5 -10 -11 -17 -16c-13 -11 -22 -23 -27 -35c-3 -6 -5 -12 -5 -19v-4c0 -4 1 -9 2 -14c5 11 12 21 19 30c7 8 13 15 18 23c17 17 35 35 47 32c-21 -10 -38 -29 -54 -52c-15 -23 -27 -48 -36 -75c-7 -21 -8 -43 -11 -66c-1 -7 -1 -15 -1 -22c0 -15 1 -28 4 -41
c1 -8 3 -15 6 -22c4 -12 6 -23 13 -32c5 -9 11 -15 16 -20s9 -10 16 -13c6 -4 13 -7 20 -8c8 -3 16 -4 27 -5c9 3 18 2 29 3c7 1 11 2 16 5c3 0 4 1 11 2l3 2c9 2 16 6 23 12c9 5 16 11 23 18c13 15 24 30 35 53c15 35 22 73 22 112v15c-1 18 -4 36 -9 54l-2 7
c-7 19 -18 34 -29 49l-13 13c-3 3 -5 5 -8 6l-6 5l-13 6l-10 1c-4 0 -7 -1 -14 -2c-6 0 -13 -1 -22 -3l-24 -7c-17 -1 -6 4 -6 7c1 1 1 3 1 7c-1 3 -3 5 -4 6c-4 7 -8 9 -15 14c-8 3 -12 6 -12 8c-1 3 -2 5 -5 8v4c0 3 1 6 2 7c3 3 7 5 14 10c5 3 11 5 11 8v7
c-1 3 -5 6 -10 8l-22 11c-2 1 -3 3 -3 7l-1 10c0 1 -1 3 -3 4c12 3 27 5 46 10l33 8h42c13 0 26 -3 37 -6c15 -3 28 -11 39 -18l16 -8l14 -13c11 -8 19 -14 28 -23c15 -17 29 -37 40 -58c8 -17 18 -36 23 -53l3 -9c6 -21 10 -42 12 -65c1 -12 2 -25 2 -37l-1 -26
c-3 -36 -9 -73 -21 -106c-13 -37 -28 -68 -53 -100c-11 -16 -25 -31 -40 -44s-33 -24 -52 -34c-11 -5 -20 -10 -32 -13l-11 -4l-14 -3c-18 -5 -37 -8 -58 -9c-3 -1 -7 -1 -13 -1c-9 0 -18 1 -28 3l-3 1h-6c-17 1 -32 7 -51 14c-15 7 -31 14 -47 25c-15 12 -26 25 -37 38
c-11 12 -20 28 -28 43s-13 28 -18 44c-9 29 -14 58 -15 89l-1 20c0 23 2 44 5 67c6 29 14 57 24 84c11 27 25 52 41 79c17 23 38 48 62 67z" />
    <glyph glyph-name="Ocircumflex" unicode="&#xd4;" horiz-adv-x="609" 
d="M222 779c-12 -8 -26 -18 -37 -14c12 8 28 19 43 26c26 11 47 23 70 35l51 25h17c13 -9 38 -23 52 -30c13 -6 23 -9 35 -16c20 -9 35 -21 52 -27c-2 -16 -12 -32 -18 -47c-3 -7 -5 -13 -6 -18l1 -6c0 -3 -1 -4 -4 -5l-11 3c-3 -2 -6 -7 -9 -9c7 -5 11 -9 16 -12
c-9 4 -17 1 -25 6c-12 6 -23 9 -34 14l-63 29c-60 -22 -90 -37 -110 -48c-8 8 -1 2 -5 9c-2 10 -8 18 -11 27c-4 6 -6 13 -15 17c-4 2 -9 3 -11 3c-1 0 -1 3 -1 4c5 9 17 10 24 18c3 6 -1 10 -1 16zM177 569c8 0 13 -2 16 -7c2 -1 4 -4 5 -8l1 -8l5 -17c1 -4 3 -10 7 -14
l5 -12c3 -3 6 -4 9 -4s5 1 8 1c3 1 17 9 24 9c2 0 3 0 3 -1c0 -3 -1 -4 -8 -9c-3 -5 -7 -9 -14 -13c-5 -5 -10 -11 -17 -16c-13 -11 -22 -23 -27 -35c-3 -6 -5 -12 -5 -19v-4c0 -4 1 -9 2 -14c5 11 12 21 19 30c7 8 13 15 18 23c17 17 35 35 47 32c-21 -10 -38 -29 -54 -52
c-15 -23 -27 -48 -36 -75c-7 -21 -8 -43 -11 -66c-1 -7 -1 -15 -1 -22c0 -15 1 -28 4 -41c1 -8 3 -15 6 -22c4 -12 6 -23 13 -32c5 -9 11 -15 16 -20s9 -10 16 -13c6 -4 13 -7 20 -8c8 -3 16 -4 27 -5c9 3 18 2 29 3c7 1 11 2 16 5c3 0 4 1 11 2l3 2c9 2 16 6 23 12
c9 5 16 11 23 18c13 15 24 30 35 53c15 35 22 73 22 112v15c-1 18 -4 36 -9 54l-2 7c-7 19 -18 34 -29 49l-13 13c-3 3 -5 5 -8 6l-6 5l-13 6l-10 1c-4 0 -7 -1 -14 -2c-6 0 -13 -1 -22 -3l-24 -7c-17 -1 -6 4 -6 7c1 1 1 3 1 7c-1 3 -3 5 -4 6c-4 7 -8 9 -15 14
c-8 3 -12 6 -12 8c-1 3 -2 5 -5 8v4c0 3 1 6 2 7c3 3 7 5 14 10c5 3 11 5 11 8v7c-1 3 -5 6 -10 8l-22 11c-2 1 -3 3 -3 7l-1 10c0 1 -1 3 -3 4c12 3 27 5 46 10l33 8h42c13 0 26 -3 37 -6c15 -3 28 -11 39 -18l16 -8l14 -13c11 -8 19 -14 28 -23c15 -17 29 -37 40 -58
c8 -17 18 -36 23 -53l3 -9c6 -21 10 -42 12 -65c1 -12 2 -25 2 -37l-1 -26c-3 -36 -9 -73 -21 -106c-13 -37 -28 -68 -53 -100c-11 -16 -25 -31 -40 -44s-33 -24 -52 -34c-11 -5 -20 -10 -32 -13l-11 -4l-14 -3c-18 -5 -37 -8 -58 -9c-3 -1 -7 -1 -13 -1c-9 0 -18 1 -28 3
l-3 1h-6c-17 1 -32 7 -51 14c-15 7 -31 14 -47 25c-15 12 -26 25 -37 38c-11 12 -20 28 -28 43s-13 28 -18 44c-9 29 -14 58 -15 89l-1 20c0 23 2 44 5 67c6 29 14 57 24 84c11 27 25 52 41 79c17 23 38 48 62 67z" />
    <glyph glyph-name="Odieresis" unicode="&#xd6;" horiz-adv-x="609" 
d="M333 810c-3 -22 -3 -38 -2 -56c1 -17 2 -34 -1 -51c-4 2 -10 -1 -18 1c-8 3 -16 5 -23 4l-14 -4c-5 0 -10 0 -16 2c-4 -1 -32 3 -37 -2c-2 9 1 16 2 24c2 11 -3 24 -1 36c0 19 0 32 1 32c-1 11 4 17 5 27c0 -6 2 -12 4 -20c4 0 11 1 13 4l3 13c1 1 3 1 5 0l6 -4
c5 -1 11 -2 19 -1c18 -2 37 0 54 -5zM375 819c2 -4 3 -9 15 -12l2 12c2 2 3 2 5 1l6 -4c6 -1 11 -2 20 -1c17 -1 36 0 54 -6c-5 -21 -3 -37 -2 -55c0 -16 1 -34 -1 -51l-8 5l-5 10c-3 -9 -22 -9 -29 -10l-14 -3c-4 0 -9 -2 -16 1c-3 -1 -32 3 -36 -1c-3 8 0 15 2 23
c1 12 -4 24 -2 36c0 19 1 32 1 32c0 9 3 14 4 21zM177 569c8 0 13 -2 16 -7c2 -1 4 -4 5 -8l1 -8l5 -17c1 -4 3 -10 7 -14l5 -12c3 -3 6 -4 9 -4s5 1 8 1c3 1 17 9 24 9c2 0 3 0 3 -1c0 -3 -1 -4 -8 -9c-3 -5 -7 -9 -14 -13c-5 -5 -10 -11 -17 -16c-13 -11 -22 -23 -27 -35
c-3 -6 -5 -12 -5 -19v-4c0 -4 1 -9 2 -14c5 11 12 21 19 30c7 8 13 15 18 23c17 17 35 35 47 32c-21 -10 -38 -29 -54 -52c-15 -23 -27 -48 -36 -75c-7 -21 -8 -43 -11 -66c-1 -7 -1 -15 -1 -22c0 -15 1 -28 4 -41c1 -8 3 -15 6 -22c4 -12 6 -23 13 -32c5 -9 11 -15 16 -20
s9 -10 16 -13c6 -4 13 -7 20 -8c8 -3 16 -4 27 -5c9 3 18 2 29 3c7 1 11 2 16 5c3 0 4 1 11 2l3 2c9 2 16 6 23 12c9 5 16 11 23 18c13 15 24 30 35 53c15 35 22 73 22 112v15c-1 18 -4 36 -9 54l-2 7c-7 19 -18 34 -29 49l-13 13c-3 3 -5 5 -8 6l-6 5l-13 6l-10 1
c-4 0 -7 -1 -14 -2c-6 0 -13 -1 -22 -3l-24 -7c-17 -1 -6 4 -6 7c1 1 1 3 1 7c-1 3 -3 5 -4 6c-4 7 -8 9 -15 14c-8 3 -12 6 -12 8c-1 3 -2 5 -5 8v4c0 3 1 6 2 7c3 3 7 5 14 10c5 3 11 5 11 8v7c-1 3 -5 6 -10 8l-22 11c-2 1 -3 3 -3 7l-1 10c0 1 -1 3 -3 4
c12 3 27 5 46 10l33 8h42c13 0 26 -3 37 -6c15 -3 28 -11 39 -18l16 -8l14 -13c11 -8 19 -14 28 -23c15 -17 29 -37 40 -58c8 -17 18 -36 23 -53l3 -9c6 -21 10 -42 12 -65c1 -12 2 -25 2 -37l-1 -26c-3 -36 -9 -73 -21 -106c-13 -37 -28 -68 -53 -100
c-11 -16 -25 -31 -40 -44s-33 -24 -52 -34c-11 -5 -20 -10 -32 -13l-11 -4l-14 -3c-18 -5 -37 -8 -58 -9c-3 -1 -7 -1 -13 -1c-9 0 -18 1 -28 3l-3 1h-6c-17 1 -32 7 -51 14c-15 7 -31 14 -47 25c-15 12 -26 25 -37 38c-11 12 -20 28 -28 43s-13 28 -18 44
c-9 29 -14 58 -15 89l-1 20c0 23 2 44 5 67c6 29 14 57 24 84c11 27 25 52 41 79c17 23 38 48 62 67z" />
    <glyph glyph-name="Ograve" unicode="&#xd2;" horiz-adv-x="609" 
d="M275 781c9 15 25 27 37 40c6 5 10 10 13 15l1 6c1 2 2 3 5 3l10 -7c4 0 9 3 13 6c-5 7 -7 12 -11 17c7 -7 15 -8 22 -15c9 -11 19 -19 27 -27l24 -32c7 -9 14 -20 23 -28c7 -5 13 -8 17 -15c-6 0 -24 -22 -27 -25c-3 -5 -8 -9 -11 -12l-12 -6c-7 -5 -11 -12 -15 -19
s-10 -9 -13 -13c-13 11 -24 24 -35 36c-9 11 -18 19 -27 30c-15 16 -26 34 -41 46zM177 569c8 0 13 -2 16 -7c2 -1 4 -4 5 -8l1 -8l5 -17c1 -4 3 -10 7 -14l5 -12c3 -3 6 -4 9 -4s5 1 8 1c3 1 17 9 24 9c2 0 3 0 3 -1c0 -3 -1 -4 -8 -9c-3 -5 -7 -9 -14 -13
c-5 -5 -10 -11 -17 -16c-13 -11 -22 -23 -27 -35c-3 -6 -5 -12 -5 -19v-4c0 -4 1 -9 2 -14c5 11 12 21 19 30c7 8 13 15 18 23c17 17 35 35 47 32c-21 -10 -38 -29 -54 -52c-15 -23 -27 -48 -36 -75c-7 -21 -8 -43 -11 -66c-1 -7 -1 -15 -1 -22c0 -15 1 -28 4 -41
c1 -8 3 -15 6 -22c4 -12 6 -23 13 -32c5 -9 11 -15 16 -20s9 -10 16 -13c6 -4 13 -7 20 -8c8 -3 16 -4 27 -5c9 3 18 2 29 3c7 1 11 2 16 5c3 0 4 1 11 2l3 2c9 2 16 6 23 12c9 5 16 11 23 18c13 15 24 30 35 53c15 35 22 73 22 112v15c-1 18 -4 36 -9 54l-2 7
c-7 19 -18 34 -29 49l-13 13c-3 3 -5 5 -8 6l-6 5l-13 6l-10 1c-4 0 -7 -1 -14 -2c-6 0 -13 -1 -22 -3l-24 -7c-17 -1 -6 4 -6 7c1 1 1 3 1 7c-1 3 -3 5 -4 6c-4 7 -8 9 -15 14c-8 3 -12 6 -12 8c-1 3 -2 5 -5 8v4c0 3 1 6 2 7c3 3 7 5 14 10c5 3 11 5 11 8v7
c-1 3 -5 6 -10 8l-22 11c-2 1 -3 3 -3 7l-1 10c0 1 -1 3 -3 4c12 3 27 5 46 10l33 8h42c13 0 26 -3 37 -6c15 -3 28 -11 39 -18l16 -8l14 -13c11 -8 19 -14 28 -23c15 -17 29 -37 40 -58c8 -17 18 -36 23 -53l3 -9c6 -21 10 -42 12 -65c1 -12 2 -25 2 -37l-1 -26
c-3 -36 -9 -73 -21 -106c-13 -37 -28 -68 -53 -100c-11 -16 -25 -31 -40 -44s-33 -24 -52 -34c-11 -5 -20 -10 -32 -13l-11 -4l-14 -3c-18 -5 -37 -8 -58 -9c-3 -1 -7 -1 -13 -1c-9 0 -18 1 -28 3l-3 1h-6c-17 1 -32 7 -51 14c-15 7 -31 14 -47 25c-15 12 -26 25 -37 38
c-11 12 -20 28 -28 43s-13 28 -18 44c-9 29 -14 58 -15 89l-1 20c0 23 2 44 5 67c6 29 14 57 24 84c11 27 25 52 41 79c17 23 38 48 62 67z" />
    <glyph glyph-name="Ohungarumlaut" unicode="&#x150;" horiz-adv-x="609" 
d="M548 802c-17 -15 -27 -36 -43 -56c-9 -13 -20 -23 -29 -37c-12 -14 -24 -30 -38 -44c-4 5 -11 6 -16 13l-22 17c-4 2 -10 6 -13 13c-5 3 -13 17 -20 16c4 7 11 12 19 18c9 10 16 23 23 35l26 39c8 10 19 19 29 33c6 9 16 11 25 20c-5 -7 -7 -13 -12 -21c5 -4 10 -7 16 -7
l10 10c3 0 5 -2 7 -4l1 -7c4 -5 26 -21 37 -38zM376 802c-16 -14 -26 -37 -43 -56c-9 -13 -19 -23 -29 -37c-12 -14 -23 -30 -38 -44c-4 4 -10 6 -16 15l-21 15c-4 2 -10 6 -13 13c-5 3 -13 17 -20 16c3 9 10 13 18 18c9 10 16 23 24 35l25 39c9 10 20 20 29 33
c7 8 17 10 25 19c-4 -6 -6 -12 -12 -20c5 -4 11 -7 15 -7l11 9c4 1 5 0 8 -3v-7c4 -5 27 -20 37 -38zM177 569c8 0 13 -2 16 -7c2 -1 4 -4 5 -8l1 -8l5 -17c1 -4 3 -10 7 -14l5 -12c3 -3 6 -4 9 -4s5 1 8 1c3 1 17 9 24 9c2 0 3 0 3 -1c0 -3 -1 -4 -8 -9
c-3 -5 -7 -9 -14 -13c-5 -5 -10 -11 -17 -16c-13 -11 -22 -23 -27 -35c-3 -6 -5 -12 -5 -19v-4c0 -4 1 -9 2 -14c5 11 12 21 19 30c7 8 13 15 18 23c17 17 35 35 47 32c-21 -10 -38 -29 -54 -52c-15 -23 -27 -48 -36 -75c-7 -21 -8 -43 -11 -66c-1 -7 -1 -15 -1 -22
c0 -15 1 -28 4 -41c1 -8 3 -15 6 -22c4 -12 6 -23 13 -32c5 -9 11 -15 16 -20s9 -10 16 -13c6 -4 13 -7 20 -8c8 -3 16 -4 27 -5c9 3 18 2 29 3c7 1 11 2 16 5c3 0 4 1 11 2l3 2c9 2 16 6 23 12c9 5 16 11 23 18c13 15 24 30 35 53c15 35 22 73 22 112v15c-1 18 -4 36 -9 54
l-2 7c-7 19 -18 34 -29 49l-13 13c-3 3 -5 5 -8 6l-6 5l-13 6l-10 1c-4 0 -7 -1 -14 -2c-6 0 -13 -1 -22 -3l-24 -7c-17 -1 -6 4 -6 7c1 1 1 3 1 7c-1 3 -3 5 -4 6c-4 7 -8 9 -15 14c-8 3 -12 6 -12 8c-1 3 -2 5 -5 8v4c0 3 1 6 2 7c3 3 7 5 14 10c5 3 11 5 11 8v7
c-1 3 -5 6 -10 8l-22 11c-2 1 -3 3 -3 7l-1 10c0 1 -1 3 -3 4c12 3 27 5 46 10l33 8h42c13 0 26 -3 37 -6c15 -3 28 -11 39 -18l16 -8l14 -13c11 -8 19 -14 28 -23c15 -17 29 -37 40 -58c8 -17 18 -36 23 -53l3 -9c6 -21 10 -42 12 -65c1 -12 2 -25 2 -37l-1 -26
c-3 -36 -9 -73 -21 -106c-13 -37 -28 -68 -53 -100c-11 -16 -25 -31 -40 -44s-33 -24 -52 -34c-11 -5 -20 -10 -32 -13l-11 -4l-14 -3c-18 -5 -37 -8 -58 -9c-3 -1 -7 -1 -13 -1c-9 0 -18 1 -28 3l-3 1h-6c-17 1 -32 7 -51 14c-15 7 -31 14 -47 25c-15 12 -26 25 -37 38
c-11 12 -20 28 -28 43s-13 28 -18 44c-9 29 -14 58 -15 89l-1 20c0 23 2 44 5 67c6 29 14 57 24 84c11 27 25 52 41 79c17 23 38 48 62 67z" />
    <glyph glyph-name="Omacron" unicode="&#x14c;" horiz-adv-x="609" 
d="M201 707c0 3 -1 7 0 13l1 29l-1 12c0 4 0 7 -1 14c-4 3 -8 4 -8 7l3 3c2 0 6 1 10 1h8c2 -2 5 -1 7 -1c6 3 6 9 10 13c-14 0 -23 2 -37 6l49 3c38 -8 74 -5 111 -7l143 -1c1 -6 -2 -8 -2 -14c-1 -9 2 -24 2 -26c1 -3 0 -6 1 -10v-5c-2 -4 -5 -6 -7 -14c1 -7 6 -8 6 -15
c0 -10 0 -11 1 -14h-115c-32 2 -61 6 -95 6h-86zM177 569c8 0 13 -2 16 -7c2 -1 4 -4 5 -8l1 -8l5 -17c1 -4 3 -10 7 -14l5 -12c3 -3 6 -4 9 -4s5 1 8 1c3 1 17 9 24 9c2 0 3 0 3 -1c0 -3 -1 -4 -8 -9c-3 -5 -7 -9 -14 -13c-5 -5 -10 -11 -17 -16c-13 -11 -22 -23 -27 -35
c-3 -6 -5 -12 -5 -19v-4c0 -4 1 -9 2 -14c5 11 12 21 19 30c7 8 13 15 18 23c17 17 35 35 47 32c-21 -10 -38 -29 -54 -52c-15 -23 -27 -48 -36 -75c-7 -21 -8 -43 -11 -66c-1 -7 -1 -15 -1 -22c0 -15 1 -28 4 -41c1 -8 3 -15 6 -22c4 -12 6 -23 13 -32c5 -9 11 -15 16 -20
s9 -10 16 -13c6 -4 13 -7 20 -8c8 -3 16 -4 27 -5c9 3 18 2 29 3c7 1 11 2 16 5c3 0 4 1 11 2l3 2c9 2 16 6 23 12c9 5 16 11 23 18c13 15 24 30 35 53c15 35 22 73 22 112v15c-1 18 -4 36 -9 54l-2 7c-7 19 -18 34 -29 49l-13 13c-3 3 -5 5 -8 6l-6 5l-13 6l-10 1
c-4 0 -7 -1 -14 -2c-6 0 -13 -1 -22 -3l-24 -7c-17 -1 -6 4 -6 7c1 1 1 3 1 7c-1 3 -3 5 -4 6c-4 7 -8 9 -15 14c-8 3 -12 6 -12 8c-1 3 -2 5 -5 8v4c0 3 1 6 2 7c3 3 7 5 14 10c5 3 11 5 11 8v7c-1 3 -5 6 -10 8l-22 11c-2 1 -3 3 -3 7l-1 10c0 1 -1 3 -3 4
c12 3 27 5 46 10l33 8h42c13 0 26 -3 37 -6c15 -3 28 -11 39 -18l16 -8l14 -13c11 -8 19 -14 28 -23c15 -17 29 -37 40 -58c8 -17 18 -36 23 -53l3 -9c6 -21 10 -42 12 -65c1 -12 2 -25 2 -37l-1 -26c-3 -36 -9 -73 -21 -106c-13 -37 -28 -68 -53 -100
c-11 -16 -25 -31 -40 -44s-33 -24 -52 -34c-11 -5 -20 -10 -32 -13l-11 -4l-14 -3c-18 -5 -37 -8 -58 -9c-3 -1 -7 -1 -13 -1c-9 0 -18 1 -28 3l-3 1h-6c-17 1 -32 7 -51 14c-15 7 -31 14 -47 25c-15 12 -26 25 -37 38c-11 12 -20 28 -28 43s-13 28 -18 44
c-9 29 -14 58 -15 89l-1 20c0 23 2 44 5 67c6 29 14 57 24 84c11 27 25 52 41 79c17 23 38 48 62 67z" />
    <glyph glyph-name="Oslash" unicode="&#xd8;" horiz-adv-x="609" 
d="M567 369c1 -12 2 -25 2 -37l-1 -26c-3 -36 -9 -73 -21 -106c-13 -37 -28 -68 -53 -100c-11 -16 -25 -31 -40 -44s-33 -24 -52 -34c-11 -5 -20 -10 -32 -13l-11 -4l-14 -3c-18 -5 -37 -8 -58 -9c-3 -1 -7 -1 -13 -1c-9 0 -18 1 -28 3l-3 1h-6c-9 1 -18 3 -28 6l-33 -70
l-16 10c-4 9 -6 21 -14 22c-7 0 -11 -6 -16 -7c-7 0 -9 3 -13 6c-9 4 -9 22 -22 22c-3 0 -6 -3 -9 -9c12 26 24 49 37 73c-8 8 -14 16 -21 24c-11 12 -20 28 -28 43s-13 28 -18 44c-9 29 -14 58 -15 89l-1 20c0 23 2 44 5 67c6 29 14 57 24 84c11 27 25 52 41 79
c17 23 38 48 62 67l5 3c8 0 13 -2 16 -7c2 -1 4 -4 5 -8l1 -8l5 -17c1 -4 3 -10 7 -14l5 -12c3 -3 6 -4 9 -4s5 1 8 1c3 1 17 9 24 9c2 0 3 0 3 -1c0 -3 -1 -4 -8 -9c-3 -5 -7 -9 -14 -13c-5 -5 -10 -11 -17 -16c-13 -11 -22 -23 -27 -35c-3 -6 -5 -12 -5 -19v-4
c0 -4 1 -9 2 -14c5 11 12 21 19 30c7 8 13 15 18 23c17 17 35 35 47 32c-21 -10 -38 -29 -54 -52c-15 -23 -27 -48 -36 -75c-7 -21 -8 -43 -11 -66c-1 -7 -1 -15 -1 -22c0 -15 -6 -41 -3 -54c1 -8 3 -15 6 -22c3 -8 4 -15 7 -21c18 36 35 74 48 100c22 46 41 93 64 139
l46 91c-5 0 -11 -1 -19 -3l-35 -20c-17 -1 -6 4 -6 7c1 1 1 3 1 7c-1 3 -3 5 -4 6c-4 7 -8 9 -15 14c-8 3 -12 6 -12 8c-1 3 -2 5 -5 8v4c0 3 1 6 2 7c3 3 7 5 14 10c5 3 11 5 11 8v7c-1 3 -5 6 -10 8l-22 11c-2 1 -3 3 -3 7l-1 10c0 1 -1 3 -3 4c12 3 27 5 46 10l33 8h42
c13 0 26 -3 37 -6c2 0 4 -1 6 -2l37 70c-9 -23 -15 -40 -26 -65c7 3 11 0 18 11l22 41c3 3 4 4 5 4s1 -1 1 -4c0 -4 -1 -10 -1 -11c1 -11 10 -9 15 -12c15 -7 34 -3 43 -20l-32 -66c3 -2 6 -5 9 -8c15 -17 29 -37 40 -58c8 -17 18 -36 23 -53l3 -9c6 -21 10 -42 12 -65z
M437 334v15c-1 15 2 57 -14 96c-21 -43 -41 -84 -56 -116l-103 -215h4c9 3 18 2 29 3l34 12l3 2c9 2 16 14 23 20c9 5 16 11 23 18c13 15 24 30 35 53c15 35 22 73 22 112z" />
    <glyph glyph-name="Otilde" unicode="&#xd5;" horiz-adv-x="609" 
d="M240 839c18 -19 42 -33 66 -33c36 0 62 32 107 32c42 0 91 -29 106 -48c-3 -3 -4 -3 -5 -7c-5 -5 -10 -4 -14 -9c-4 -7 -3 -12 -3 -17l-3 -5c-4 -3 -7 -16 -10 -19c-2 -1 -10 -8 -16 -16c-4 -8 -2 -10 -6 -17c-19 17 -35 33 -70 33c-37 0 -53 -32 -99 -32
c-41 0 -90 23 -109 51c2 3 3 7 8 13l14 21l12 24c2 5 2 8 4 11c-1 5 -5 8 -4 11c0 0 3 0 5 1c2 -1 6 -2 10 -5l7 -4c2 -3 5 -4 7 -5l-9 19zM177 569c8 0 13 -2 16 -7c2 -1 4 -4 5 -8l1 -8l5 -17c1 -4 3 -10 7 -14l5 -12c3 -3 6 -4 9 -4s5 1 8 1c3 1 17 9 24 9c2 0 3 0 3 -1
c0 -3 -1 -4 -8 -9c-3 -5 -7 -9 -14 -13c-5 -5 -10 -11 -17 -16c-13 -11 -22 -23 -27 -35c-3 -6 -5 -12 -5 -19v-4c0 -4 1 -9 2 -14c5 11 12 21 19 30c7 8 13 15 18 23c17 17 35 35 47 32c-21 -10 -38 -29 -54 -52c-15 -23 -27 -48 -36 -75c-7 -21 -8 -43 -11 -66
c-1 -7 -1 -15 -1 -22c0 -15 1 -28 4 -41c1 -8 3 -15 6 -22c4 -12 6 -23 13 -32c5 -9 11 -15 16 -20s9 -10 16 -13c6 -4 13 -7 20 -8c8 -3 16 -4 27 -5c9 3 18 2 29 3c7 1 11 2 16 5c3 0 4 1 11 2l3 2c9 2 16 6 23 12c9 5 16 11 23 18c13 15 24 30 35 53c15 35 22 73 22 112
v15c-1 18 -4 36 -9 54l-2 7c-7 19 -18 34 -29 49l-13 13c-3 3 -5 5 -8 6l-6 5l-13 6l-10 1c-4 0 -7 -1 -14 -2c-6 0 -13 -1 -22 -3l-24 -7c-17 -1 -6 4 -6 7c1 1 1 3 1 7c-1 3 -3 5 -4 6c-4 7 -8 9 -15 14c-8 3 -12 6 -12 8c-1 3 -2 5 -5 8v4c0 3 1 6 2 7c3 3 7 5 14 10
c5 3 11 5 11 8v7c-1 3 -5 6 -10 8l-22 11c-2 1 -3 3 -3 7l-1 10c0 1 -1 3 -3 4c12 3 27 5 46 10l33 8h42c13 0 26 -3 37 -6c15 -3 28 -11 39 -18l16 -8l14 -13c11 -8 19 -14 28 -23c15 -17 29 -37 40 -58c8 -17 18 -36 23 -53l3 -9c6 -21 10 -42 12 -65c1 -12 2 -25 2 -37
l-1 -26c-3 -36 -9 -73 -21 -106c-13 -37 -28 -68 -53 -100c-11 -16 -25 -31 -40 -44s-33 -24 -52 -34c-11 -5 -20 -10 -32 -13l-11 -4l-14 -3c-18 -5 -37 -8 -58 -9c-3 -1 -7 -1 -13 -1c-9 0 -18 1 -28 3l-3 1h-6c-17 1 -32 7 -51 14c-15 7 -31 14 -47 25
c-15 12 -26 25 -37 38c-11 12 -20 28 -28 43s-13 28 -18 44c-9 29 -14 58 -15 89l-1 20c0 23 2 44 5 67c6 29 14 57 24 84c11 27 25 52 41 79c17 23 38 48 62 67z" />
    <glyph glyph-name="OE" unicode="&#x152;" horiz-adv-x="752" 
d="M274 464c4 2 7 4 7 7c1 1 1 3 1 7c-1 3 -3 5 -4 6c-4 7 -8 9 -15 14c-8 3 -12 6 -12 8c-1 3 -2 5 -5 8v4c0 3 1 6 2 7c3 3 7 5 14 10c5 3 11 5 11 8v7c-1 3 -5 6 -10 8l-22 11c-2 1 -3 3 -3 7l-1 10c0 1 -1 3 -3 4c12 3 27 5 46 10l33 8h35v5c5 3 11 4 18 4l9 -1
c9 -1 16 -3 24 -3h4l11 -1c4 0 7 2 10 6c4 5 4 15 7 15c1 0 3 -2 4 -6c3 -7 3 -17 3 -26h57c27 0 53 -1 80 -2c21 -1 44 -2 65 -5c23 -4 44 -7 67 -12v-5c0 -8 -1 -16 -3 -24c-3 -11 -4 -20 -7 -29c-1 -7 -2 -12 -2 -17c0 -3 0 -6 1 -8c1 -3 5 -5 5 -8c0 -1 -1 -2 -3 -3
c-1 -1 -3 -1 -6 -1l-15 1c-7 -1 -7 -8 -10 -13c12 -3 19 -7 30 -10l-41 2c-23 3 -43 2 -66 3c-31 3 -62 7 -99 7c-9 1 -18 2 -27 2v-102l14 1c23 3 44 2 65 2l61 4c28 6 37 14 37 -3c0 -12 6 -32 6 -35c1 -4 1 -9 1 -13v-5c-1 -7 -5 -9 -5 -18s4 -17 7 -25l1 -20l-144 -11
c-16 -3 -34 -4 -51 -5l-1 -18c-3 -35 -5 -69 -5 -105c19 0 40 -1 59 -2c31 -3 62 -6 94 -11c37 -5 85 -18 129 -30v-4c0 -9 -1 -17 -4 -25c-4 -11 -8 -19 -11 -30c-1 -5 -4 -11 -4 -18l1 -5c3 -4 6 -6 6 -9c0 -1 -1 -2 -4 -3c-1 -1 -2 -1 -4 -1c-7 0 -13 5 -20 5
c-7 -3 -9 -8 -14 -12c15 -5 23 -9 35 -16c-3 1 -59 11 -103 18c-28 4 -55 15 -88 15c-19 3 -38 6 -59 6h-9l-10 -2l-8 -2c-11 -3 -19 -9 -22 -9c-3 -1 -7 -3 -10 -3c-1 0 -3 1 -6 2l-13 10c-4 -2 -9 -3 -15 -5l-25 -7c-18 -5 -37 -8 -58 -9c-3 -1 -7 -1 -13 -1
c-9 0 -18 1 -28 3l-3 1h-6c-17 1 -32 7 -51 14c-15 7 -31 14 -47 25c-15 12 -26 25 -37 38c-11 12 -20 28 -28 43s-13 28 -18 44c-9 29 -14 58 -15 89l-1 20c0 23 2 44 5 67c6 29 14 57 24 84c11 27 25 52 41 79c17 23 38 48 62 67l5 3c8 0 13 -2 16 -7c2 -1 4 -4 5 -8l1 -8
l5 -17c1 -4 3 -10 7 -14l5 -12c3 -3 6 -4 9 -4s5 1 8 1c3 1 17 9 24 9c2 0 3 0 3 -1c0 -3 -1 -4 -8 -9c-3 -5 -7 -9 -14 -13c-5 -5 -10 -11 -17 -16c-13 -11 -22 -23 -27 -35c-3 -6 -5 -12 -5 -19v-4c0 -4 1 -9 2 -14c5 11 12 21 19 30c7 8 13 15 18 23c4 4 8 7 12 10l1 -5
c-7 -8 -14 -16 -20 -25c-15 -23 -27 -48 -36 -75c-7 -21 -8 -43 -11 -66c-1 -7 -1 -15 -1 -22c0 -15 1 -28 4 -41c1 -8 3 -15 6 -22c4 -12 6 -23 13 -32c5 -9 11 -15 16 -20s9 -10 16 -13c6 -4 13 -7 20 -8c8 -3 16 -4 27 -5c9 3 18 2 29 3c7 1 11 2 16 5c3 0 4 1 11 2l3 2
l3 1c1 19 1 38 2 57l7 166c1 43 4 85 4 127h-3c-4 0 -7 -1 -14 -2c-6 0 -13 -1 -22 -3l-24 -7l-12 -3z" />
    <glyph glyph-name="P" unicode="P" horiz-adv-x="576" 
d="M545 449l1 -9v-12c-1 -13 -2 -27 -8 -41c-4 -15 -10 -28 -16 -38c-8 -13 -15 -23 -26 -33c-10 -9 -17 -15 -24 -23c-20 -14 -36 -23 -53 -30c-17 -11 -35 -16 -53 -22c-34 -14 -66 -20 -100 -29c-25 -6 -49 -9 -71 -13h-2c-1 -23 -2 -48 -2 -71c0 -13 -1 -22 1 -32v-14
c2 -8 1 -18 2 -31c2 -35 5 -65 12 -97c-15 23 -40 1 -43 1c-7 -1 -13 -4 -21 -1c-5 4 -9 14 -16 14c-12 3 -20 -6 -31 -13c-6 -6 -15 0 -23 -5c0 13 -1 25 -1 35c-1 30 0 56 0 85v249c2 40 3 76 3 113v30c0 7 -1 16 -2 28l-2 98l39 2c2 4 46 13 74 18c20 6 42 10 67 12
c16 3 35 3 54 4c19 0 37 0 58 -2c18 -3 40 -4 61 -14c11 -3 22 -8 31 -15c12 -5 22 -12 31 -20c10 -7 21 -19 29 -31c9 -12 15 -26 19 -40c6 -12 9 -22 11 -38zM417 427l1 5l-1 10l-3 15l-23 25c-13 5 -21 7 -28 9c-9 3 -20 5 -35 6h-45c-12 -1 -23 -3 -33 -6
c-16 -1 -33 -5 -50 -8v-1c1 -30 1 -61 1 -92v-61l35 6c17 2 35 7 59 14c15 3 32 12 52 19c16 5 27 12 35 19c14 9 23 17 29 26l4 6z" />
    <glyph glyph-name="Thorn" unicode="&#xde;" horiz-adv-x="567" 
d="M505 437c24 -27 30 -63 32 -109v-10c0 -11 -1 -20 -2 -31l-7 -25l-1 -4c-7 -21 -16 -41 -28 -59c-11 -19 -25 -34 -42 -45c-15 -14 -33 -26 -52 -35c-12 -7 -56 -28 -123 -41l-27 -4l-47 -2c0 -30 1 -58 0 -89c-14 24 -44 4 -47 4c-7 -1 -14 -3 -21 0c-5 4 -9 14 -16 15
c-11 3 -20 -5 -31 -12c-7 -5 -15 1 -23 -3c1 67 4 131 7 195c3 56 3 109 6 165c3 89 9 178 8 266v1c21 9 45 -3 66 -3c8 0 35 26 40 13c4 -13 -1 -35 2 -48c4 -12 10 -13 17 -20c1 31 -5 56 6 72c0 -31 5 -61 4 -94v-9c45 -2 93 -1 138 -11c21 -5 41 -12 60 -20
c21 -9 48 -27 65 -41c6 -5 11 -10 16 -16zM416 314v9c0 8 -1 16 -3 23s-6 14 -11 19s-12 10 -21 15c-9 7 -18 11 -31 15c-11 4 -23 8 -36 11c-26 6 -53 10 -82 12c-2 0 -4 1 -7 1v-34c-1 -52 -6 -103 -9 -156c-2 -16 -3 -33 -4 -49c18 0 35 2 53 5c19 3 37 8 54 13
c17 7 30 14 45 22c22 15 37 33 45 56c0 0 1 2 2 6l1 5l1 3c0 2 0 4 1 5c1 7 2 12 2 19z" />
    <glyph glyph-name="Q" unicode="Q" horiz-adv-x="658" 
d="M329 494c-12 -5 -33 -19 -43 -28c-21 -17 -41 -38 -58 -63l-6 -11c-11 -16 -19 -31 -26 -50c-9 -23 -14 -44 -16 -64c-1 -7 -1 -13 -1 -20c0 -13 2 -27 5 -40c3 -8 4 -16 8 -23c3 -7 8 -12 12 -19c5 -5 11 -10 18 -15l25 -10l30 -6l16 -2h15c9 1 17 2 28 5l28 11
c-15 24 -28 48 -44 75c15 15 37 18 56 29c7 3 16 6 19 13s0 12 4 12c2 0 3 0 4 -1c7 -5 9 -16 16 -21c3 -2 5 -3 8 -3s7 1 11 2c-8 15 -22 23 -15 36l30 -43c9 19 17 39 23 61c4 22 6 43 6 64c-1 23 -5 42 -12 58c-4 7 -6 10 -9 17l-6 7l-6 8l-10 9c-4 3 -7 4 -9 5l-15 3
c-7 1 -14 2 -23 2c-11 2 -38 2 -52 2c3 6 11 4 16 5c3 1 6 1 7 3c2 1 3 3 3 6c0 2 -1 5 -2 9c-3 5 -8 12 -13 17c-3 7 -7 9 -8 10c-1 5 -2 10 -2 13s2 6 6 9c3 3 9 2 16 5c9 3 14 5 15 6s1 3 1 5c0 3 -2 7 -7 12c-7 5 -14 11 -18 18c-2 1 -3 2 -3 5l2 7c1 1 1 3 1 5
s0 4 -1 5c13 -3 28 -2 48 -5c11 0 22 -1 33 -3c12 -1 23 -5 38 -9c15 -5 29 -12 40 -20c13 -8 24 -17 34 -28c4 -4 9 -9 12 -13c5 -7 8 -11 12 -18c8 -11 12 -20 19 -32c11 -23 19 -46 23 -69c5 -23 6 -46 6 -70c0 -23 -3 -45 -8 -68l-1 -5c-5 -19 -10 -38 -17 -57
c-13 -37 -31 -70 -54 -100c-3 -4 -6 -9 -10 -12l8 -19c13 -25 23 -53 35 -80c10 -19 18 -39 23 -60c-4 0 -4 6 -9 6c-4 0 -9 -2 -14 -3l-21 -13c-7 -1 -11 -5 -18 -5c-4 1 -10 4 -15 4c-11 -1 -19 -9 -28 -14c-5 -4 -12 -4 -19 -7c-9 30 -20 60 -35 91c-1 5 -3 9 -5 12
c-11 -4 -20 -9 -29 -12c-19 -8 -38 -15 -61 -19c-12 -1 -22 -2 -33 -2h-29c-20 1 -40 5 -60 9c-16 4 -32 9 -48 18c-17 8 -32 17 -47 29c-14 12 -27 26 -38 41c-12 16 -21 32 -27 49c-7 16 -10 33 -13 49c-4 19 -5 35 -5 51c0 32 5 62 13 93c7 28 17 56 32 84
c15 27 30 53 49 77c18 23 40 45 65 65c24 19 51 35 81 48h4c7 -3 12 -7 15 -12c1 -3 2 -9 2 -16l-1 -23c0 -3 1 -8 2 -13l2 -13c3 -5 5 -7 16 -8c4 0 7 0 14 1h12c3 0 4 -1 4 -3c0 0 -3 -2 -10 -5l-20 -8l-21 -11c-16 -7 -28 -16 -37 -26c-7 -9 -12 -16 -13 -22l-2 -15
c9 9 18 17 27 24c8 7 18 13 26 17c5 3 10 6 15 8s9 4 14 2z" />
    <glyph glyph-name="R" unicode="R" horiz-adv-x="574" 
d="M181 630c8 0 20 0 20 5s-71 2 -75 14c0 1 32 2 60 2c153 0 289 -37 348 -197v-10c0 -11 -1 -20 -2 -31l-7 -25l-1 -4c-7 -21 -16 -41 -28 -59c-11 -19 -25 -34 -42 -45c-15 -14 -33 -26 -52 -35c-12 -7 -24 -12 -36 -16c7 -20 14 -39 21 -56c11 -25 19 -51 31 -78
c11 -23 22 -49 37 -72l31 -48c-2 3 -4 4 -7 4c-11 0 -27 -15 -32 -20c-4 -3 -8 -7 -15 -8c-4 0 -9 2 -12 2l-3 -1c-11 -3 -14 -10 -21 -17c-7 -5 -12 -5 -17 -9c-19 32 -36 62 -55 97c-16 31 -29 58 -42 89c-11 25 -20 50 -27 77l-3 11l-68 -3v-135c3 -16 4 -31 4 -46
c-6 3 -4 11 -11 11c-11 0 -25 -7 -30 -10c-5 -1 -8 -2 -11 -2c-2 0 -4 1 -7 2c-4 3 -10 11 -14 12l-5 1c-8 0 -14 -8 -21 -13l-7 -2l-9 1c-2 0 -3 0 -3 -1v586c5 2 10 3 15 3c15 0 29 -5 42 -5h5c7 0 10 1 10 2v8c0 3 -2 6 -7 9c-7 4 -20 5 -20 8c0 1 3 2 9 3c7 3 21 2 33 2
c5 -1 12 -1 17 -1h7zM413 449c0 8 -1 16 -3 23s-6 14 -11 19s-12 10 -21 15c-9 7 -18 11 -31 15c-11 4 -23 8 -36 11c-26 6 -53 10 -82 12c-15 3 -29 2 -42 3l2 -19v-138c0 -28 -1 -57 -2 -84h13c21 0 42 2 62 5c19 3 37 8 54 13c17 7 30 14 45 22c22 15 37 33 45 56
c0 0 1 2 2 6l1 5l1 3c0 2 0 4 1 5c1 7 2 12 2 19v9z" />
    <glyph glyph-name="Racute" unicode="&#x154;" horiz-adv-x="574" 
d="M399 781c-15 -12 -26 -30 -41 -46c-9 -11 -18 -19 -27 -30c-11 -12 -22 -25 -35 -36c-3 4 -9 6 -13 13s-8 14 -15 19l-12 6c-3 3 -8 7 -11 12c-3 3 -21 25 -27 25c4 7 10 10 17 15c9 8 16 19 23 28l24 32c8 8 18 16 27 27c7 7 15 8 22 15c-4 -5 -6 -10 -11 -17
c4 -3 9 -6 13 -6l10 7c3 0 4 -1 5 -3l1 -6c3 -5 7 -10 13 -15c12 -13 28 -25 37 -40zM181 630c8 0 20 0 20 5s-71 2 -75 14c0 1 32 2 60 2c153 0 289 -37 348 -197v-10c0 -11 -1 -20 -2 -31l-7 -25l-1 -4c-7 -21 -16 -41 -28 -59c-11 -19 -25 -34 -42 -45
c-15 -14 -33 -26 -52 -35c-12 -7 -24 -12 -36 -16c7 -20 14 -39 21 -56c11 -25 19 -51 31 -78c11 -23 22 -49 37 -72l31 -48c-2 3 -4 4 -7 4c-11 0 -27 -15 -32 -20c-4 -3 -8 -7 -15 -8c-4 0 -9 2 -12 2l-3 -1c-11 -3 -14 -10 -21 -17c-7 -5 -12 -5 -17 -9
c-19 32 -36 62 -55 97c-16 31 -29 58 -42 89c-11 25 -20 50 -27 77l-3 11l-68 -3v-135c3 -16 4 -31 4 -46c-6 3 -4 11 -11 11c-11 0 -25 -7 -30 -10c-5 -1 -8 -2 -11 -2c-2 0 -4 1 -7 2c-4 3 -10 11 -14 12l-5 1c-8 0 -14 -8 -21 -13l-7 -2l-9 1c-2 0 -3 0 -3 -1v586
c5 2 10 3 15 3c15 0 29 -5 42 -5h5c7 0 10 1 10 2v8c0 3 -2 6 -7 9c-7 4 -20 5 -20 8c0 1 3 2 9 3c7 3 21 2 33 2c5 -1 12 -1 17 -1h7zM413 449c0 8 -1 16 -3 23s-6 14 -11 19s-12 10 -21 15c-9 7 -18 11 -31 15c-11 4 -23 8 -36 11c-26 6 -53 10 -82 12c-15 3 -29 2 -42 3
l2 -19v-138c0 -28 -1 -57 -2 -84h13c21 0 42 2 62 5c19 3 37 8 54 13c17 7 30 14 45 22c22 15 37 33 45 56c0 0 1 2 2 6l1 5l1 3c0 2 0 4 1 5c1 7 2 12 2 19v9z" />
    <glyph glyph-name="Rcaron" unicode="&#x158;" horiz-adv-x="574" 
d="M416 748c12 8 26 18 37 14c-12 -8 -28 -19 -43 -26c-26 -11 -47 -23 -70 -35l-51 -25h-17c-13 9 -38 23 -52 30c-13 6 -23 9 -35 16c-20 9 -35 21 -52 27c2 16 12 32 18 47c3 7 5 13 6 18l-1 6c0 3 1 4 4 5l11 -3c3 2 6 7 9 9c-7 5 -11 9 -16 12c9 -4 17 -1 25 -6
c12 -6 23 -9 34 -14l63 -29c60 22 90 37 110 48c8 -8 1 -2 5 -9c2 -10 8 -18 11 -27c4 -6 6 -13 15 -17c4 -2 9 -3 11 -3c1 0 1 -3 1 -4c-5 -9 -17 -10 -24 -18c-3 -6 1 -10 1 -16zM181 630c8 0 20 0 20 5s-71 2 -75 14c0 1 32 2 60 2c153 0 289 -37 348 -197v-10
c0 -11 -1 -20 -2 -31l-7 -25l-1 -4c-7 -21 -16 -41 -28 -59c-11 -19 -25 -34 -42 -45c-15 -14 -33 -26 -52 -35c-12 -7 -24 -12 -36 -16c7 -20 14 -39 21 -56c11 -25 19 -51 31 -78c11 -23 22 -49 37 -72l31 -48c-2 3 -4 4 -7 4c-11 0 -27 -15 -32 -20c-4 -3 -8 -7 -15 -8
c-4 0 -9 2 -12 2l-3 -1c-11 -3 -14 -10 -21 -17c-7 -5 -12 -5 -17 -9c-19 32 -36 62 -55 97c-16 31 -29 58 -42 89c-11 25 -20 50 -27 77l-3 11l-68 -3v-135c3 -16 4 -31 4 -46c-6 3 -4 11 -11 11c-11 0 -25 -7 -30 -10c-5 -1 -8 -2 -11 -2c-2 0 -4 1 -7 2
c-4 3 -10 11 -14 12l-5 1c-8 0 -14 -8 -21 -13l-7 -2l-9 1c-2 0 -3 0 -3 -1v586c5 2 10 3 15 3c15 0 29 -5 42 -5h5c7 0 10 1 10 2v8c0 3 -2 6 -7 9c-7 4 -20 5 -20 8c0 1 3 2 9 3c7 3 21 2 33 2c5 -1 12 -1 17 -1h7zM413 449c0 8 -1 16 -3 23s-6 14 -11 19s-12 10 -21 15
c-9 7 -18 11 -31 15c-11 4 -23 8 -36 11c-26 6 -53 10 -82 12c-15 3 -29 2 -42 3l2 -19v-138c0 -28 -1 -57 -2 -84h13c21 0 42 2 62 5c19 3 37 8 54 13c17 7 30 14 45 22c22 15 37 33 45 56c0 0 1 2 2 6l1 5l1 3c0 2 0 4 1 5c1 7 2 12 2 19v9z" />
    <glyph glyph-name="Rcommaaccent" unicode="&#x156;" horiz-adv-x="574" 
d="M181 630c8 0 20 0 20 5s-71 2 -75 14c0 1 32 2 60 2c153 0 289 -37 348 -197v-10c0 -11 -1 -20 -2 -31l-7 -25l-1 -4c-7 -21 -16 -41 -28 -59c-11 -19 -25 -34 -42 -45c-15 -14 -33 -26 -52 -35c-12 -7 -24 -12 -36 -16c7 -20 14 -39 21 -56c11 -25 19 -51 31 -78
c11 -23 22 -49 37 -72l31 -48c-2 3 -4 4 -7 4c-11 0 -27 -15 -32 -20c-4 -3 -8 -7 -15 -8c-4 0 -9 2 -12 2l-3 -1c-11 -3 -14 -10 -21 -17c-7 -5 -12 -5 -17 -9c-19 32 -36 62 -55 97c-16 31 -29 58 -42 89c-11 25 -20 50 -27 77l-3 11l-68 -3v-135c3 -16 4 -31 4 -46
c-6 3 -4 11 -11 11c-11 0 -25 -7 -30 -10c-5 -1 -8 -2 -11 -2c-2 0 -4 1 -7 2c-4 3 -10 11 -14 12l-5 1c-8 0 -14 -8 -21 -13l-7 -2l-9 1c-2 0 -3 0 -3 -1v586c5 2 10 3 15 3c15 0 29 -5 42 -5h5c7 0 10 1 10 2v8c0 3 -2 6 -7 9c-7 4 -20 5 -20 8c0 1 3 2 9 3c7 3 21 2 33 2
c5 -1 12 -1 17 -1h7zM413 449c0 8 -1 16 -3 23s-6 14 -11 19s-12 10 -21 15c-9 7 -18 11 -31 15c-11 4 -23 8 -36 11c-26 6 -53 10 -82 12c-15 3 -29 2 -42 3l2 -19v-138c0 -28 -1 -57 -2 -84h13c21 0 42 2 62 5c19 3 37 8 54 13c17 7 30 14 45 22c22 15 37 33 45 56
c0 0 1 2 2 6l1 5l1 3c0 2 0 4 1 5c1 7 2 12 2 19v9zM335 -132c-15 -12 -26 -30 -41 -46c-9 -11 -18 -19 -27 -30c-11 -12 -22 -25 -35 -36c-3 4 -9 6 -13 13s-8 14 -15 19l-12 6c-3 3 -8 7 -11 12c-3 3 -21 25 -27 25c4 7 10 10 17 15c9 8 16 19 23 28l24 32
c8 8 18 16 27 27c7 7 15 8 22 15c-4 -5 -6 -10 -11 -17c4 -3 9 -6 13 -6l10 7c3 0 4 -1 5 -3l1 -6c3 -5 7 -10 13 -15c12 -13 28 -25 37 -40z" />
    <glyph glyph-name="S" unicode="S" horiz-adv-x="470" 
d="M346 649c4 -3 5 -9 5 -13c-1 -4 -3 -8 -6 -12l-9 -12c-3 -4 -7 -6 -7 -11l-5 -11c0 -3 1 -8 10 -11c4 -3 15 -6 19 -9c3 -2 4 -3 4 -4l-13 2c-11 0 -26 2 -41 3l-21 1l-18 -1c-11 -1 -13 -5 -16 -9c-1 -3 -2 -4 -5 -7c7 3 17 2 26 3h24c11 0 31 -1 51 -8l4 -4
c-21 5 -40 6 -59 6h-14c-11 -1 -20 -3 -27 -6c-9 -1 -16 -4 -24 -7l-13 -9c-3 -3 -27 -37 -30 -49c-1 -2 -1 -6 -1 -11c0 -9 1 -16 4 -22c2 -9 8 -21 18 -36c11 -13 22 -26 37 -42c9 -6 17 -13 24 -20l31 -29l44 -42c16 -19 33 -35 48 -54c13 -19 25 -39 36 -59
c4 -11 8 -22 13 -32c3 -12 5 -24 5 -36s-2 -26 -5 -41l-1 -3c-7 -11 -11 -23 -22 -34c-11 -12 -21 -21 -34 -30c-1 -1 -3 -4 -6 -4c-3 -1 -3 -3 -6 -3c-4 -3 -6 -5 -10 -6c-8 -4 -16 -8 -24 -9c-21 -11 -41 -15 -60 -18c-20 -4 -38 -6 -57 -9s-36 -3 -57 -6h-50
c0 14 23 8 20 17c-1 3 -10 9 -13 13c-6 3 -9 5 -9 7c-3 4 -4 7 -4 9c0 3 1 5 3 7l14 6c1 0 4 1 8 4l5 4c0 3 -5 7 -10 10c-7 4 -15 7 -19 11c-3 3 -3 9 -3 10l1 3c0 2 -1 4 -4 6h44c15 1 28 2 43 2c15 3 29 5 41 8s25 3 33 7l25 13l7 8c3 3 4 8 4 15v5c0 5 -1 9 -2 16
c-3 13 -11 28 -23 44c-11 16 -23 32 -38 48c-15 15 -57 51 -60 57l-18 15c-11 8 -21 17 -26 22c-15 15 -30 27 -45 46c-15 17 -27 36 -37 57l-11 32c-1 11 -4 22 -4 33c1 12 2 23 5 34l12 32c3 12 38 52 42 56c11 11 20 18 35 26c11 7 24 13 40 19c15 5 30 10 47 13
c9 3 19 3 30 6h35c23 0 46 -2 66 -5z" />
    <glyph glyph-name="Sacute" unicode="&#x15a;" horiz-adv-x="470" 
d="M372 781c-15 -12 -26 -30 -41 -46c-9 -11 -18 -19 -27 -30c-11 -12 -22 -25 -35 -36c-3 4 -9 6 -13 13s-8 14 -15 19l-12 6c-3 3 -8 7 -11 12c-3 3 -21 25 -27 25c4 7 10 10 17 15c9 8 16 19 23 28l24 32c8 8 18 16 27 27c7 7 15 8 22 15c-4 -5 -6 -10 -11 -17
c4 -3 9 -6 13 -6l10 7c3 0 4 -1 5 -3l1 -6c3 -5 7 -10 13 -15c12 -13 28 -25 37 -40zM346 649c4 -3 5 -9 5 -13c-1 -4 -3 -8 -6 -12l-9 -12c-3 -4 -7 -6 -7 -11l-5 -11c0 -3 1 -8 10 -11c4 -3 15 -6 19 -9c3 -2 4 -3 4 -4l-13 2c-11 0 -26 2 -41 3l-21 1l-18 -1
c-11 -1 -13 -5 -16 -9c-1 -3 -2 -4 -5 -7c7 3 17 2 26 3h24c11 0 31 -1 51 -8l4 -4c-21 5 -40 6 -59 6h-14c-11 -1 -20 -3 -27 -6c-9 -1 -16 -4 -24 -7l-13 -9c-3 -3 -27 -37 -30 -49c-1 -2 -1 -6 -1 -11c0 -9 1 -16 4 -22c2 -9 8 -21 18 -36c11 -13 22 -26 37 -42
c9 -6 17 -13 24 -20l31 -29l44 -42c16 -19 33 -35 48 -54c13 -19 25 -39 36 -59c4 -11 8 -22 13 -32c3 -12 5 -24 5 -36s-2 -26 -5 -41l-1 -3c-7 -11 -11 -23 -22 -34c-11 -12 -21 -21 -34 -30c-1 -1 -3 -4 -6 -4c-3 -1 -3 -3 -6 -3c-4 -3 -6 -5 -10 -6c-8 -4 -16 -8 -24 -9
c-21 -11 -41 -15 -60 -18c-20 -4 -38 -6 -57 -9s-36 -3 -57 -6h-50c0 14 23 8 20 17c-1 3 -10 9 -13 13c-6 3 -9 5 -9 7c-3 4 -4 7 -4 9c0 3 1 5 3 7l14 6c1 0 4 1 8 4l5 4c0 3 -5 7 -10 10c-7 4 -15 7 -19 11c-3 3 -3 9 -3 10l1 3c0 2 -1 4 -4 6h44c15 1 28 2 43 2
c15 3 29 5 41 8s25 3 33 7l25 13l7 8c3 3 4 8 4 15v5c0 5 -1 9 -2 16c-3 13 -11 28 -23 44c-11 16 -23 32 -38 48c-15 15 -57 51 -60 57l-18 15c-11 8 -21 17 -26 22c-15 15 -30 27 -45 46c-15 17 -27 36 -37 57l-11 32c-1 11 -4 22 -4 33c1 12 2 23 5 34l12 32
c3 12 38 52 42 56c11 11 20 18 35 26c11 7 24 13 40 19c15 5 30 10 47 13c9 3 19 3 30 6h35c23 0 46 -2 66 -5z" />
    <glyph glyph-name="Scaron" unicode="&#x160;" horiz-adv-x="470" 
d="M389 748c12 8 26 18 37 14c-12 -8 -28 -19 -43 -26c-26 -11 -47 -23 -70 -35l-51 -25h-17c-13 9 -38 23 -52 30c-13 6 -23 9 -35 16c-20 9 -35 21 -52 27c2 16 12 32 18 47c3 7 5 13 6 18l-1 6c0 3 1 4 4 5l11 -3c3 2 6 7 9 9c-7 5 -11 9 -16 12c9 -4 17 -1 25 -6
c12 -6 23 -9 34 -14l63 -29c60 22 90 37 110 48c8 -8 1 -2 5 -9c2 -10 8 -18 11 -27c4 -6 6 -13 15 -17c4 -2 9 -3 11 -3c1 0 1 -3 1 -4c-5 -9 -17 -10 -24 -18c-3 -6 1 -10 1 -16zM346 649c4 -3 5 -9 5 -13c-1 -4 -3 -8 -6 -12l-9 -12c-3 -4 -7 -6 -7 -11l-5 -11
c0 -3 1 -8 10 -11c4 -3 15 -6 19 -9c3 -2 4 -3 4 -4l-13 2c-11 0 -26 2 -41 3l-21 1l-18 -1c-11 -1 -13 -5 -16 -9c-1 -3 -2 -4 -5 -7c7 3 17 2 26 3h24c11 0 31 -1 51 -8l4 -4c-21 5 -40 6 -59 6h-14c-11 -1 -20 -3 -27 -6c-9 -1 -16 -4 -24 -7l-13 -9
c-3 -3 -27 -37 -30 -49c-1 -2 -1 -6 -1 -11c0 -9 1 -16 4 -22c2 -9 8 -21 18 -36c11 -13 22 -26 37 -42c9 -6 17 -13 24 -20l31 -29l44 -42c16 -19 33 -35 48 -54c13 -19 25 -39 36 -59c4 -11 8 -22 13 -32c3 -12 5 -24 5 -36s-2 -26 -5 -41l-1 -3c-7 -11 -11 -23 -22 -34
c-11 -12 -21 -21 -34 -30c-1 -1 -3 -4 -6 -4c-3 -1 -3 -3 -6 -3c-4 -3 -6 -5 -10 -6c-8 -4 -16 -8 -24 -9c-21 -11 -41 -15 -60 -18c-20 -4 -38 -6 -57 -9s-36 -3 -57 -6h-50c0 14 23 8 20 17c-1 3 -10 9 -13 13c-6 3 -9 5 -9 7c-3 4 -4 7 -4 9c0 3 1 5 3 7l14 6
c1 0 4 1 8 4l5 4c0 3 -5 7 -10 10c-7 4 -15 7 -19 11c-3 3 -3 9 -3 10l1 3c0 2 -1 4 -4 6h44c15 1 28 2 43 2c15 3 29 5 41 8s25 3 33 7l25 13l7 8c3 3 4 8 4 15v5c0 5 -1 9 -2 16c-3 13 -11 28 -23 44c-11 16 -23 32 -38 48c-15 15 -57 51 -60 57l-18 15
c-11 8 -21 17 -26 22c-15 15 -30 27 -45 46c-15 17 -27 36 -37 57l-11 32c-1 11 -4 22 -4 33c1 12 2 23 5 34l12 32c3 12 38 52 42 56c11 11 20 18 35 26c11 7 24 13 40 19c15 5 30 10 47 13c9 3 19 3 30 6h35c23 0 46 -2 66 -5z" />
    <glyph glyph-name="Scedilla" unicode="&#x15e;" horiz-adv-x="470" 
d="M426 172c3 -12 5 -24 5 -36s-2 -26 -5 -41l-1 -3c-7 -11 -11 -23 -22 -34c-11 -12 -21 -21 -34 -30c-1 -1 -3 -4 -6 -4c-3 -1 -3 -3 -6 -3c-4 -3 -6 -5 -10 -6c-8 -4 -16 -8 -24 -9c-21 -11 -41 -15 -60 -18c-5 -7 -10 -16 -17 -25c17 3 35 -2 50 -10
c14 -8 25 -11 31 -27c11 -17 20 -35 21 -60c1 -28 -5 -47 -10 -57c-14 -50 -75 -59 -114 -59c-49 1 -91 23 -138 56c4 1 5 4 8 7c3 4 3 7 8 8c7 0 22 28 19 31l8 11l10 3c28 -20 51 -34 83 -34c23 0 33 11 37 30c4 21 -18 49 -58 23c-4 2 -8 6 -15 14c-3 3 -8 7 -11 12
c-3 3 -16 10 -22 18l28 48c-18 -1 -39 -2 -53 -4h-50c0 14 23 8 20 17c-1 3 -10 9 -13 13c-6 3 -9 5 -9 7c-3 4 -4 7 -4 9c0 3 1 5 3 7l14 6c1 0 4 1 8 4l5 4c0 3 -5 7 -10 10c-7 4 -15 7 -19 11c-3 3 -3 9 -3 10l1 3c0 2 -1 4 -4 6h44c15 1 28 2 43 2c15 3 50 5 62 8
s25 3 33 7l25 13l7 8c3 3 4 8 4 15v5c0 5 -1 9 -2 16c-9 38 -67 78 -112 111l-18 15c-11 8 -21 17 -26 22c-15 15 -30 27 -45 46c-15 17 -27 36 -37 57l-11 32c-1 11 -4 22 -4 33c1 12 2 23 5 34l12 32c3 12 38 52 42 56c11 11 20 18 35 26c11 7 24 13 40 19
c15 5 30 10 47 13c9 3 19 3 30 6h35c23 0 46 -2 66 -5l4 -2c4 -3 5 -9 5 -13c-1 -4 -3 -8 -6 -12l-9 -12c-3 -4 -7 -6 -7 -11l-5 -11c0 -3 1 -8 10 -11c4 -3 15 -6 19 -9c3 -2 4 -3 4 -4l-13 2c-11 0 -26 2 -41 3l-21 1l-18 -1c-11 -1 -13 -5 -16 -9c-1 -3 -2 -4 -5 -7
c7 3 17 2 26 3h24c11 0 31 -1 51 -8l4 -4c-21 5 -40 6 -59 6h-14c-11 -1 -20 -3 -27 -6c-9 -1 -16 -4 -24 -7l-13 -9c-3 -3 -27 -37 -30 -49c-1 -2 -1 -6 -1 -11c0 -9 1 -16 4 -22c2 -9 8 -21 18 -36c11 -13 22 -26 37 -42c9 -6 17 -13 24 -20l31 -29l51 -42
c18 -19 54 -41 81 -107z" />
    <glyph glyph-name="Scommaaccent" unicode="&#x218;" horiz-adv-x="470" 
d="M346 649c4 -3 5 -9 5 -13c-1 -4 -3 -8 -6 -12l-9 -12c-3 -4 -7 -6 -7 -11l-5 -11c0 -3 1 -8 10 -11c4 -3 15 -6 19 -9c3 -2 4 -3 4 -4l-13 2c-11 0 -26 2 -41 3l-21 1l-18 -1c-11 -1 -13 -5 -16 -9c-1 -3 -2 -4 -5 -7c7 3 17 2 26 3h24c11 0 31 -1 51 -8l4 -4
c-21 5 -40 6 -59 6h-14c-11 -1 -20 -3 -27 -6c-9 -1 -16 -4 -24 -7l-13 -9c-3 -3 -27 -37 -30 -49c-1 -2 -1 -6 -1 -11c0 -9 1 -16 4 -22c2 -9 8 -21 18 -36c11 -13 22 -26 37 -42c9 -6 17 -13 24 -20l31 -29l44 -42c16 -19 33 -35 48 -54c13 -19 25 -39 36 -59
c4 -11 8 -22 13 -32c3 -12 5 -24 5 -36s-2 -26 -5 -41l-1 -3c-7 -11 -11 -23 -22 -34c-11 -12 -21 -21 -34 -30c-1 -1 -3 -4 -6 -4c-3 -1 -3 -3 -6 -3c-4 -3 -6 -5 -10 -6c-8 -4 -16 -8 -24 -9c-21 -11 -41 -15 -60 -18c-20 -4 -38 -6 -57 -9s-36 -3 -57 -6h-50
c0 14 23 8 20 17c-1 3 -10 9 -13 13c-6 3 -9 5 -9 7c-3 4 -4 7 -4 9c0 3 1 5 3 7l14 6c1 0 4 1 8 4l5 4c0 3 -5 7 -10 10c-7 4 -15 7 -19 11c-3 3 -3 9 -3 10l1 3c0 2 -1 4 -4 6h44c15 1 28 2 43 2c15 3 29 5 41 8s25 3 33 7l25 13l7 8c3 3 4 8 4 15v5c0 5 -1 9 -2 16
c-3 13 -11 28 -23 44c-11 16 -23 32 -38 48c-15 15 -57 51 -60 57l-18 15c-11 8 -21 17 -26 22c-15 15 -30 27 -45 46c-15 17 -27 36 -37 57l-11 32c-1 11 -4 22 -4 33c1 12 2 23 5 34l12 32c3 12 38 52 42 56c11 11 20 18 35 26c11 7 24 13 40 19c15 5 30 10 47 13
c9 3 19 3 30 6h35c23 0 46 -2 66 -5zM353 -132c-15 -12 -26 -30 -41 -46c-9 -11 -18 -19 -27 -30c-11 -12 -22 -25 -35 -36c-3 4 -9 6 -13 13s-8 14 -15 19l-12 6c-3 3 -8 7 -11 12c-3 3 -21 25 -27 25c4 7 10 10 17 15c9 8 16 19 23 28l24 32c8 8 18 16 27 27
c7 7 15 8 22 15c-4 -5 -6 -10 -11 -17c4 -3 9 -6 13 -6l10 7c3 0 4 -1 5 -3l1 -6c3 -5 7 -10 13 -15c12 -13 28 -25 37 -40z" />
    <glyph glyph-name="T" unicode="T" horiz-adv-x="531" 
d="M352 504c-1 -11 -1 -22 -1 -33v-78c0 -7 1 -13 -2 -21v-206c0 -23 1 -44 4 -67v-5c3 -28 4 -55 5 -86c-10 2 -12 12 -20 12c-11 0 -19 -11 -22 -12c-4 -1 -7 -2 -12 -2c-3 0 -6 0 -7 1c-4 3 -9 11 -17 12c-9 0 -17 -8 -25 -13c-2 -1 -5 -2 -8 -2h-6c-3 0 -6 0 -7 -1
c-3 59 -5 118 -6 176c-1 52 -3 102 -3 153c0 59 2 117 3 174h-37c-52 0 -104 4 -159 8l-9 1l-2 8c0 3 1 7 2 12l1 5v4c3 11 6 19 7 30c1 7 2 11 2 14s-1 7 -3 10c-4 3 -10 5 -10 8c0 1 2 3 5 4c3 0 5 1 8 1l9 -1c2 -1 5 -1 10 -1c3 0 6 0 8 1c9 3 10 9 15 14
c-20 3 -33 4 -49 8l-3 1c9 4 18 -1 27 -1h62c31 0 58 1 89 2c39 0 76 0 117 1c37 4 73 4 112 8c27 3 53 4 80 5c-5 -10 -11 -4 -11 -11c0 -4 1 -7 2 -9c3 -11 8 -22 8 -23c1 -2 1 -5 1 -10c0 -4 0 -7 -1 -8c-1 -5 -10 -9 -10 -14v-5c0 -8 7 -15 11 -24c1 -1 1 -3 1 -6v-7
c0 -3 0 -6 -159 -27z" />
    <glyph glyph-name="Tbar" unicode="&#x166;" horiz-adv-x="531" 
d="M510 544c1 -1 1 -3 1 -6v-7c0 -3 0 -6 -159 -27c-1 -11 -1 -22 -1 -33v-78c0 -7 1 -13 -2 -21v-39l101 5c2 -7 -2 -9 -2 -16c0 -10 4 -26 5 -29s0 -6 1 -11v-5c-2 -4 -5 -7 -7 -16c2 -7 7 -8 7 -16c2 -11 2 -12 3 -15l-108 -6v-58c0 -23 1 -44 4 -67v-5
c3 -28 4 -55 5 -86c-10 2 -12 12 -20 12c-11 0 -19 -11 -22 -12c-4 -1 -7 -2 -12 -2c-3 0 -6 0 -7 1c-4 3 -9 11 -17 12c-9 0 -17 -8 -25 -13c-2 -1 -5 -2 -8 -2h-6c-3 0 -6 0 -7 -1c-3 59 -5 118 -6 176c0 15 -1 30 -1 45h-2l-111 -5c0 4 -1 8 -1 15l-1 32l-1 13
c0 4 -1 7 -2 15c-4 3 -9 4 -9 7c0 0 2 1 3 3c2 1 6 2 11 2h8c3 -1 6 0 8 0c7 4 7 10 11 14c-15 1 -25 2 -41 5l54 6c21 -3 46 -3 71 -3v4c0 59 2 117 3 174h-37c-52 0 -104 4 -159 8l-9 1l-2 8c0 3 1 7 2 12l1 5v4c3 11 6 19 7 30c1 7 2 11 2 14s-1 7 -3 10
c-4 3 -10 5 -10 8c0 1 2 3 5 4c3 0 5 1 8 1l9 -1c2 -1 5 -1 10 -1c3 0 6 0 8 1c9 3 10 9 15 14c-20 3 -33 4 -49 8l-3 1c9 4 18 -1 27 -1h62c31 0 58 1 89 2c39 0 76 0 117 1c37 4 73 4 112 8c27 3 53 4 80 5c-5 -10 -11 -4 -11 -11c0 -4 1 -7 2 -9c3 -11 8 -22 8 -23
c1 -2 1 -5 1 -10c0 -4 0 -7 -1 -8c-1 -5 -10 -9 -10 -14v-5c0 -8 7 -15 11 -24z" />
    <glyph glyph-name="Tcaron" unicode="&#x164;" horiz-adv-x="531" 
d="M422 748c12 8 26 18 37 14c-12 -8 -28 -19 -43 -26c-26 -11 -47 -23 -70 -35l-51 -25h-17c-13 9 -38 23 -52 30c-13 6 -23 9 -35 16c-20 9 -35 21 -52 27c2 16 12 32 18 47c3 7 5 13 6 18l-1 6c0 3 1 4 4 5l11 -3c3 2 6 7 9 9c-7 5 -11 9 -16 12c9 -4 17 -1 25 -6
c12 -6 23 -9 34 -14l63 -29c60 22 90 37 110 48c8 -8 1 -2 5 -9c2 -10 8 -18 11 -27c4 -6 6 -13 15 -17c4 -2 9 -3 11 -3c1 0 1 -3 1 -4c-5 -9 -17 -10 -24 -18c-3 -6 1 -10 1 -16zM352 504c-1 -11 -1 -22 -1 -33v-78c0 -7 1 -13 -2 -21v-206c0 -23 1 -44 4 -67v-5
c3 -28 4 -55 5 -86c-10 2 -12 12 -20 12c-11 0 -19 -11 -22 -12c-4 -1 -7 -2 -12 -2c-3 0 -6 0 -7 1c-4 3 -9 11 -17 12c-9 0 -17 -8 -25 -13c-2 -1 -5 -2 -8 -2h-6c-3 0 -6 0 -7 -1c-3 59 -5 118 -6 176c-1 52 -3 102 -3 153c0 59 2 117 3 174h-37c-52 0 -104 4 -159 8
l-9 1l-2 8c0 3 1 7 2 12l1 5v4c3 11 6 19 7 30c1 7 2 11 2 14s-1 7 -3 10c-4 3 -10 5 -10 8c0 1 2 3 5 4c3 0 5 1 8 1l9 -1c2 -1 5 -1 10 -1c3 0 6 0 8 1c9 3 10 9 15 14c-20 3 -33 4 -49 8l-3 1c9 4 18 -1 27 -1h62c31 0 58 1 89 2c39 0 76 0 117 1c37 4 73 4 112 8
c27 3 53 4 80 5c-5 -10 -11 -4 -11 -11c0 -4 1 -7 2 -9c3 -11 8 -22 8 -23c1 -2 1 -5 1 -10c0 -4 0 -7 -1 -8c-1 -5 -10 -9 -10 -14v-5c0 -8 7 -15 11 -24c1 -1 1 -3 1 -6v-7c0 -3 0 -6 -159 -27z" />
    <glyph glyph-name="uni0162" unicode="&#x162;" horiz-adv-x="531" 
d="M352 504c-1 -11 -1 -22 -1 -33v-78c0 -7 1 -13 -2 -21v-206c0 -23 1 -44 4 -67v-5c3 -28 4 -55 5 -86c-10 2 -12 12 -20 12c-11 0 -19 -11 -22 -12c-4 -1 -7 -2 -12 -2c-3 0 -6 0 -7 1c-4 3 -9 11 -17 12c-9 0 -17 -8 -25 -13c-2 -1 -5 -2 -8 -2h-6c-3 0 -6 0 -7 -1
c-3 59 -5 118 -6 176c-1 52 -3 102 -3 153c0 59 2 117 3 174h-37c-52 0 -104 4 -159 8l-9 1l-2 8c0 3 1 7 2 12l1 5v4c3 11 6 19 7 30c1 7 2 11 2 14s-1 7 -3 10c-4 3 -10 5 -10 8c0 1 2 3 5 4c3 0 5 1 8 1l9 -1c2 -1 5 -1 10 -1c3 0 6 0 8 1c9 3 10 9 15 14
c-20 3 -33 4 -49 8l-3 1c9 4 18 -1 27 -1h62c31 0 58 1 89 2c39 0 76 0 117 1c37 4 73 4 112 8c27 3 53 4 80 5c-5 -10 -11 -4 -11 -11c0 -4 1 -7 2 -9c3 -11 8 -22 8 -23c1 -2 1 -5 1 -10c0 -4 0 -7 -1 -8c-1 -5 -10 -9 -10 -14v-5c0 -8 7 -15 11 -24c1 -1 1 -3 1 -6v-7
c0 -3 0 -6 -159 -27zM373 -132c-15 -12 -26 -30 -41 -46c-9 -11 -18 -19 -27 -30c-11 -12 -22 -25 -35 -36c-3 4 -9 6 -13 13s-8 14 -15 19l-12 6c-3 3 -8 7 -11 12c-3 3 -21 25 -27 25c4 7 10 10 17 15c9 8 16 19 23 28l24 32c8 8 18 16 27 27c7 7 15 8 22 15
c-4 -5 -6 -10 -11 -17c4 -3 9 -6 13 -6l10 7c3 0 4 -1 5 -3l1 -6c3 -5 7 -10 13 -15c12 -13 28 -25 37 -40z" />
    <glyph glyph-name="uni021A" unicode="&#x21a;" horiz-adv-x="531" 
d="M352 504c-1 -11 -1 -22 -1 -33v-78c0 -7 1 -13 -2 -21v-206c0 -23 1 -44 4 -67v-5c3 -28 4 -55 5 -86c-10 2 -12 12 -20 12c-11 0 -19 -11 -22 -12c-4 -1 -7 -2 -12 -2c-3 0 -6 0 -7 1c-4 3 -9 11 -17 12c-9 0 -17 -8 -25 -13c-2 -1 -5 -2 -8 -2h-6c-3 0 -6 0 -7 -1
c-3 59 -5 118 -6 176c-1 52 -3 102 -3 153c0 59 2 117 3 174h-37c-52 0 -104 4 -159 8l-9 1l-2 8c0 3 1 7 2 12l1 5v4c3 11 6 19 7 30c1 7 2 11 2 14s-1 7 -3 10c-4 3 -10 5 -10 8c0 1 2 3 5 4c3 0 5 1 8 1l9 -1c2 -1 5 -1 10 -1c3 0 6 0 8 1c9 3 10 9 15 14
c-20 3 -33 4 -49 8l-3 1c9 4 18 -1 27 -1h62c31 0 58 1 89 2c39 0 76 0 117 1c37 4 73 4 112 8c27 3 53 4 80 5c-5 -10 -11 -4 -11 -11c0 -4 1 -7 2 -9c3 -11 8 -22 8 -23c1 -2 1 -5 1 -10c0 -4 0 -7 -1 -8c-1 -5 -10 -9 -10 -14v-5c0 -8 7 -15 11 -24c1 -1 1 -3 1 -6v-7
c0 -3 0 -6 -159 -27zM373 -132c-15 -12 -26 -30 -41 -46c-9 -11 -18 -19 -27 -30c-11 -12 -22 -25 -35 -36c-3 4 -9 6 -13 13s-8 14 -15 19l-12 6c-3 3 -8 7 -11 12c-3 3 -21 25 -27 25c4 7 10 10 17 15c9 8 16 19 23 28l24 32c8 8 18 16 27 27c7 7 15 8 22 15
c-4 -5 -6 -10 -11 -17c4 -3 9 -6 13 -6l10 7c3 0 4 -1 5 -3l1 -6c3 -5 7 -10 13 -15c12 -13 28 -25 37 -40z" />
    <glyph glyph-name="U" unicode="U" horiz-adv-x="568" 
d="M84 615c4 4 9 6 14 6c3 0 8 -1 15 -4c11 -4 18 -11 29 -12c3 0 7 -3 11 -3s9 1 12 12c3 7 6 20 7 27c1 3 2 4 3 4l2 -13c1 -3 1 -8 1 -15c0 -12 -2 -26 -3 -39c-1 -19 -4 -38 -4 -51v-6c0 -23 5 -25 9 -36c17 104 11 154 21 159c0 -20 1 -37 -2 -56l-5 -51
c-3 -35 -7 -67 -12 -102l-8 -75c-1 -19 -2 -38 -2 -55v-18c1 -23 2 -46 9 -65l1 -6l2 -6l7 -17c4 -11 9 -21 13 -30c7 -9 9 -16 16 -21c4 -7 10 -10 15 -14c7 -4 15 -6 24 -10c9 -3 18 -3 29 -4h32c11 1 19 2 27 6l18 8c4 4 9 9 12 16c4 6 7 13 9 22c3 9 5 19 6 31
c3 23 3 44 3 71c0 12 0 26 -1 39v41l2 10v130c0 49 0 96 -1 147v7c10 -11 5 -29 12 -29c11 0 27 23 32 23c5 3 9 4 10 4c2 0 4 -1 6 -4c7 -5 8 -25 15 -28c1 -1 2 -1 4 -1c9 0 16 18 24 29c2 3 4 4 7 4s4 -1 7 -1c2 0 4 1 6 3v-104c0 -35 0 -70 -1 -105c0 -19 0 -36 -1 -52
v-14l-3 -37l3 -77l-1 -27c0 -9 -1 -18 -3 -28c0 -1 -1 -2 -1 -6v-18c-3 -19 -7 -35 -12 -54c-3 -11 -8 -19 -12 -30c-6 -10 -12 -19 -18 -27c-7 -11 -16 -18 -25 -26c-10 -9 -19 -16 -28 -20c-11 -7 -19 -10 -30 -14c-11 -3 -21 -6 -30 -7c-20 -5 -38 -6 -57 -6h-7l-6 1h-14
c-9 1 -17 2 -28 5c-19 3 -38 8 -58 17c-15 8 -31 18 -44 29c-14 13 -25 26 -34 40c-9 13 -15 25 -22 40c-7 12 -10 24 -15 37l-3 6l-1 6l-2 3c0 3 -1 5 -1 6c-3 8 -5 14 -6 22c-3 15 -7 31 -7 50c-1 9 -1 17 -1 28v45c1 25 3 51 6 76c3 27 6 49 10 74c3 23 6 46 10 70
c3 23 5 46 6 67z" />
    <glyph glyph-name="Uacute" unicode="&#xda;" horiz-adv-x="568" 
d="M414 781c-15 -12 -26 -30 -41 -46c-9 -11 -18 -19 -27 -30c-11 -12 -22 -25 -35 -36c-3 4 -9 6 -13 13s-8 14 -15 19l-12 6c-3 3 -8 7 -11 12c-3 3 -21 25 -27 25c4 7 10 10 17 15c9 8 16 19 23 28l24 32c8 8 18 16 27 27c7 7 15 8 22 15c-4 -5 -6 -10 -11 -17
c4 -3 9 -6 13 -6l10 7c3 0 4 -1 5 -3l1 -6c3 -5 7 -10 13 -15c12 -13 28 -25 37 -40zM84 615c4 4 9 6 14 6c3 0 8 -1 15 -4c11 -4 18 -11 29 -12c3 0 7 -3 11 -3s9 1 12 12c3 7 6 20 7 27c1 3 2 4 3 4l2 -13c1 -3 1 -8 1 -15c0 -12 -2 -26 -3 -39c-1 -19 -4 -38 -4 -51v-6
c0 -23 5 -25 9 -36c17 104 11 154 21 159c0 -20 1 -37 -2 -56l-5 -51c-3 -35 -7 -67 -12 -102l-8 -75c-1 -19 -2 -38 -2 -55v-18c1 -23 2 -46 9 -65l1 -6l2 -6l7 -17c4 -11 9 -21 13 -30c7 -9 9 -16 16 -21c4 -7 10 -10 15 -14c7 -4 15 -6 24 -10c9 -3 18 -3 29 -4h32
c11 1 19 2 27 6l18 8c4 4 9 9 12 16c4 6 7 13 9 22c3 9 5 19 6 31c3 23 3 44 3 71c0 12 0 26 -1 39v41l2 10v130c0 49 0 96 -1 147v7c10 -11 5 -29 12 -29c11 0 27 23 32 23c5 3 9 4 10 4c2 0 4 -1 6 -4c7 -5 8 -25 15 -28c1 -1 2 -1 4 -1c9 0 16 18 24 29c2 3 4 4 7 4
s4 -1 7 -1c2 0 4 1 6 3v-104c0 -35 0 -70 -1 -105c0 -19 0 -36 -1 -52v-14l-3 -37l3 -77l-1 -27c0 -9 -1 -18 -3 -28c0 -1 -1 -2 -1 -6v-18c-3 -19 -7 -35 -12 -54c-3 -11 -8 -19 -12 -30c-6 -10 -12 -19 -18 -27c-7 -11 -16 -18 -25 -26c-10 -9 -19 -16 -28 -20
c-11 -7 -19 -10 -30 -14c-11 -3 -21 -6 -30 -7c-20 -5 -38 -6 -57 -6h-7l-6 1h-14c-9 1 -17 2 -28 5c-19 3 -38 8 -58 17c-15 8 -31 18 -44 29c-14 13 -25 26 -34 40c-9 13 -15 25 -22 40c-7 12 -10 24 -15 37l-3 6l-1 6l-2 3c0 3 -1 5 -1 6c-3 8 -5 14 -6 22
c-3 15 -7 31 -7 50c-1 9 -1 17 -1 28v45c1 25 3 51 6 76c3 27 6 49 10 74c3 23 6 46 10 70c3 23 5 46 6 67z" />
    <glyph glyph-name="Ucircumflex" unicode="&#xdb;" horiz-adv-x="568" 
d="M171 779c-12 -8 -26 -18 -37 -14c12 8 28 19 43 26c26 11 47 23 70 35l51 25h17c13 -9 38 -23 52 -30c13 -6 23 -9 35 -16c20 -9 35 -21 52 -27c-2 -16 -12 -32 -18 -47c-3 -7 -5 -13 -6 -18l1 -6c0 -3 -1 -4 -4 -5l-11 3c-3 -2 -6 -7 -9 -9c7 -5 11 -9 16 -12
c-9 4 -17 1 -25 6c-12 6 -23 9 -34 14l-63 29c-60 -22 -90 -37 -110 -48c-8 8 -1 2 -5 9c-2 10 -8 18 -11 27c-4 6 -6 13 -15 17c-4 2 -9 3 -11 3c-1 0 -1 3 -1 4c5 9 17 10 24 18c3 6 -1 10 -1 16zM84 615c4 4 9 6 14 6c3 0 8 -1 15 -4c11 -4 18 -11 29 -12c3 0 7 -3 11 -3
s9 1 12 12c3 7 6 20 7 27c1 3 2 4 3 4l2 -13c1 -3 1 -8 1 -15c0 -12 -2 -26 -3 -39c-1 -19 -4 -38 -4 -51v-6c0 -23 5 -25 9 -36c17 104 11 154 21 159c0 -20 1 -37 -2 -56l-5 -51c-3 -35 -7 -67 -12 -102l-8 -75c-1 -19 -2 -38 -2 -55v-18c1 -23 2 -46 9 -65l1 -6l2 -6
l7 -17c4 -11 9 -21 13 -30c7 -9 9 -16 16 -21c4 -7 10 -10 15 -14c7 -4 15 -6 24 -10c9 -3 18 -3 29 -4h32c11 1 19 2 27 6l18 8c4 4 9 9 12 16c4 6 7 13 9 22c3 9 5 19 6 31c3 23 3 44 3 71c0 12 0 26 -1 39v41l2 10v130c0 49 0 96 -1 147v7c10 -11 5 -29 12 -29
c11 0 27 23 32 23c5 3 9 4 10 4c2 0 4 -1 6 -4c7 -5 8 -25 15 -28c1 -1 2 -1 4 -1c9 0 16 18 24 29c2 3 4 4 7 4s4 -1 7 -1c2 0 4 1 6 3v-104c0 -35 0 -70 -1 -105c0 -19 0 -36 -1 -52v-14l-3 -37l3 -77l-1 -27c0 -9 -1 -18 -3 -28c0 -1 -1 -2 -1 -6v-18
c-3 -19 -7 -35 -12 -54c-3 -11 -8 -19 -12 -30c-6 -10 -12 -19 -18 -27c-7 -11 -16 -18 -25 -26c-10 -9 -19 -16 -28 -20c-11 -7 -19 -10 -30 -14c-11 -3 -21 -6 -30 -7c-20 -5 -38 -6 -57 -6h-7l-6 1h-14c-9 1 -17 2 -28 5c-19 3 -38 8 -58 17c-15 8 -31 18 -44 29
c-14 13 -25 26 -34 40c-9 13 -15 25 -22 40c-7 12 -10 24 -15 37l-3 6l-1 6l-2 3c0 3 -1 5 -1 6c-3 8 -5 14 -6 22c-3 15 -7 31 -7 50c-1 9 -1 17 -1 28v45c1 25 3 51 6 76c3 27 6 49 10 74c3 23 6 46 10 70c3 23 5 46 6 67z" />
    <glyph glyph-name="Udieresis" unicode="&#xdc;" horiz-adv-x="568" 
d="M282 810c-3 -22 -3 -38 -2 -56c1 -17 2 -34 -1 -51c-4 2 -10 -1 -18 1c-8 3 -16 5 -23 4l-14 -4c-5 0 -10 0 -16 2c-4 -1 -32 3 -37 -2c-2 9 1 16 2 24c2 11 -3 24 -1 36c0 19 0 32 1 32c-1 11 4 17 5 27c0 -6 2 -12 4 -20c4 0 11 1 13 4l3 13c1 1 3 1 5 0l6 -4
c5 -1 11 -2 19 -1c18 -2 37 0 54 -5zM324 819c2 -4 3 -9 15 -12l2 12c2 2 3 2 5 1l6 -4c6 -1 11 -2 20 -1c17 -1 36 0 54 -6c-5 -21 -3 -37 -2 -55c0 -16 1 -34 -1 -51l-8 5l-5 10c-3 -9 -22 -9 -29 -10l-14 -3c-4 0 -9 -2 -16 1c-3 -1 -32 3 -36 -1c-3 8 0 15 2 23
c1 12 -4 24 -2 36c0 19 1 32 1 32c0 9 3 14 4 21zM84 615c4 4 9 6 14 6c3 0 8 -1 15 -4c11 -4 18 -11 29 -12c3 0 7 -3 11 -3s9 1 12 12c3 7 6 20 7 27c1 3 2 4 3 4l2 -13c1 -3 1 -8 1 -15c0 -12 -2 -26 -3 -39c-1 -19 -4 -38 -4 -51v-6c0 -23 5 -25 9 -36
c17 104 11 154 21 159c0 -20 1 -37 -2 -56l-5 -51c-3 -35 -7 -67 -12 -102l-8 -75c-1 -19 -2 -38 -2 -55v-18c1 -23 2 -46 9 -65l1 -6l2 -6l7 -17c4 -11 9 -21 13 -30c7 -9 9 -16 16 -21c4 -7 10 -10 15 -14c7 -4 15 -6 24 -10c9 -3 18 -3 29 -4h32c11 1 19 2 27 6l18 8
c4 4 9 9 12 16c4 6 7 13 9 22c3 9 5 19 6 31c3 23 3 44 3 71c0 12 0 26 -1 39v41l2 10v130c0 49 0 96 -1 147v7c10 -11 5 -29 12 -29c11 0 27 23 32 23c5 3 9 4 10 4c2 0 4 -1 6 -4c7 -5 8 -25 15 -28c1 -1 2 -1 4 -1c9 0 16 18 24 29c2 3 4 4 7 4s4 -1 7 -1c2 0 4 1 6 3
v-104c0 -35 0 -70 -1 -105c0 -19 0 -36 -1 -52v-14l-3 -37l3 -77l-1 -27c0 -9 -1 -18 -3 -28c0 -1 -1 -2 -1 -6v-18c-3 -19 -7 -35 -12 -54c-3 -11 -8 -19 -12 -30c-6 -10 -12 -19 -18 -27c-7 -11 -16 -18 -25 -26c-10 -9 -19 -16 -28 -20c-11 -7 -19 -10 -30 -14
c-11 -3 -21 -6 -30 -7c-20 -5 -38 -6 -57 -6h-7l-6 1h-14c-9 1 -17 2 -28 5c-19 3 -38 8 -58 17c-15 8 -31 18 -44 29c-14 13 -25 26 -34 40c-9 13 -15 25 -22 40c-7 12 -10 24 -15 37l-3 6l-1 6l-2 3c0 3 -1 5 -1 6c-3 8 -5 14 -6 22c-3 15 -7 31 -7 50c-1 9 -1 17 -1 28
v45c1 25 3 51 6 76c3 27 6 49 10 74c3 23 6 46 10 70c3 23 5 46 6 67z" />
    <glyph glyph-name="Ugrave" unicode="&#xd9;" horiz-adv-x="568" 
d="M224 781c9 15 25 27 37 40c6 5 10 10 13 15l1 6c1 2 2 3 5 3l10 -7c4 0 9 3 13 6c-5 7 -7 12 -11 17c7 -7 15 -8 22 -15c9 -11 19 -19 27 -27l24 -32c7 -9 14 -20 23 -28c7 -5 13 -8 17 -15c-6 0 -24 -22 -27 -25c-3 -5 -8 -9 -11 -12l-12 -6c-7 -5 -11 -12 -15 -19
s-10 -9 -13 -13c-13 11 -24 24 -35 36c-9 11 -18 19 -27 30c-15 16 -26 34 -41 46zM84 615c4 4 9 6 14 6c3 0 8 -1 15 -4c11 -4 18 -11 29 -12c3 0 7 -3 11 -3s9 1 12 12c3 7 6 20 7 27c1 3 2 4 3 4l2 -13c1 -3 1 -8 1 -15c0 -12 -2 -26 -3 -39c-1 -19 -4 -38 -4 -51v-6
c0 -23 5 -25 9 -36c17 104 11 154 21 159c0 -20 1 -37 -2 -56l-5 -51c-3 -35 -7 -67 -12 -102l-8 -75c-1 -19 -2 -38 -2 -55v-18c1 -23 2 -46 9 -65l1 -6l2 -6l7 -17c4 -11 9 -21 13 -30c7 -9 9 -16 16 -21c4 -7 10 -10 15 -14c7 -4 15 -6 24 -10c9 -3 18 -3 29 -4h32
c11 1 19 2 27 6l18 8c4 4 9 9 12 16c4 6 7 13 9 22c3 9 5 19 6 31c3 23 3 44 3 71c0 12 0 26 -1 39v41l2 10v130c0 49 0 96 -1 147v7c10 -11 5 -29 12 -29c11 0 27 23 32 23c5 3 9 4 10 4c2 0 4 -1 6 -4c7 -5 8 -25 15 -28c1 -1 2 -1 4 -1c9 0 16 18 24 29c2 3 4 4 7 4
s4 -1 7 -1c2 0 4 1 6 3v-104c0 -35 0 -70 -1 -105c0 -19 0 -36 -1 -52v-14l-3 -37l3 -77l-1 -27c0 -9 -1 -18 -3 -28c0 -1 -1 -2 -1 -6v-18c-3 -19 -7 -35 -12 -54c-3 -11 -8 -19 -12 -30c-6 -10 -12 -19 -18 -27c-7 -11 -16 -18 -25 -26c-10 -9 -19 -16 -28 -20
c-11 -7 -19 -10 -30 -14c-11 -3 -21 -6 -30 -7c-20 -5 -38 -6 -57 -6h-7l-6 1h-14c-9 1 -17 2 -28 5c-19 3 -38 8 -58 17c-15 8 -31 18 -44 29c-14 13 -25 26 -34 40c-9 13 -15 25 -22 40c-7 12 -10 24 -15 37l-3 6l-1 6l-2 3c0 3 -1 5 -1 6c-3 8 -5 14 -6 22
c-3 15 -7 31 -7 50c-1 9 -1 17 -1 28v45c1 25 3 51 6 76c3 27 6 49 10 74c3 23 6 46 10 70c3 23 5 46 6 67z" />
    <glyph glyph-name="Uhungarumlaut" unicode="&#x170;" horiz-adv-x="568" 
d="M497 802c-17 -15 -27 -36 -43 -56c-9 -13 -20 -23 -29 -37c-12 -14 -24 -30 -38 -44c-4 5 -11 6 -16 13l-22 17c-4 2 -10 6 -13 13c-5 3 -13 17 -20 16c4 7 11 12 19 18c9 10 16 23 23 35l26 39c8 10 19 19 29 33c6 9 16 11 25 20c-5 -7 -7 -13 -12 -21c5 -4 10 -7 16 -7
l10 10c3 0 5 -2 7 -4l1 -7c4 -5 26 -21 37 -38zM325 802c-16 -14 -26 -37 -43 -56c-9 -13 -19 -23 -29 -37c-12 -14 -23 -30 -38 -44c-4 4 -10 6 -16 15l-21 15c-4 2 -10 6 -13 13c-5 3 -13 17 -20 16c3 9 10 13 18 18c9 10 16 23 24 35l25 39c9 10 20 20 29 33
c7 8 17 10 25 19c-4 -6 -6 -12 -12 -20c5 -4 11 -7 15 -7l11 9c4 1 5 0 8 -3v-7c4 -5 27 -20 37 -38zM84 615c4 4 9 6 14 6c3 0 8 -1 15 -4c11 -4 18 -11 29 -12c3 0 7 -3 11 -3s9 1 12 12c3 7 6 20 7 27c1 3 2 4 3 4l2 -13c1 -3 1 -8 1 -15c0 -12 -2 -26 -3 -39
c-1 -19 -4 -38 -4 -51v-6c0 -23 5 -25 9 -36c17 104 11 154 21 159c0 -20 1 -37 -2 -56l-5 -51c-3 -35 -7 -67 -12 -102l-8 -75c-1 -19 -2 -38 -2 -55v-18c1 -23 2 -46 9 -65l1 -6l2 -6l7 -17c4 -11 9 -21 13 -30c7 -9 9 -16 16 -21c4 -7 10 -10 15 -14c7 -4 15 -6 24 -10
c9 -3 18 -3 29 -4h32c11 1 19 2 27 6l18 8c4 4 9 9 12 16c4 6 7 13 9 22c3 9 5 19 6 31c3 23 3 44 3 71c0 12 0 26 -1 39v41l2 10v130c0 49 0 96 -1 147v7c10 -11 5 -29 12 -29c11 0 27 23 32 23c5 3 9 4 10 4c2 0 4 -1 6 -4c7 -5 8 -25 15 -28c1 -1 2 -1 4 -1
c9 0 16 18 24 29c2 3 4 4 7 4s4 -1 7 -1c2 0 4 1 6 3v-104c0 -35 0 -70 -1 -105c0 -19 0 -36 -1 -52v-14l-3 -37l3 -77l-1 -27c0 -9 -1 -18 -3 -28c0 -1 -1 -2 -1 -6v-18c-3 -19 -7 -35 -12 -54c-3 -11 -8 -19 -12 -30c-6 -10 -12 -19 -18 -27c-7 -11 -16 -18 -25 -26
c-10 -9 -19 -16 -28 -20c-11 -7 -19 -10 -30 -14c-11 -3 -21 -6 -30 -7c-20 -5 -38 -6 -57 -6h-7l-6 1h-14c-9 1 -17 2 -28 5c-19 3 -38 8 -58 17c-15 8 -31 18 -44 29c-14 13 -25 26 -34 40c-9 13 -15 25 -22 40c-7 12 -10 24 -15 37l-3 6l-1 6l-2 3c0 3 -1 5 -1 6
c-3 8 -5 14 -6 22c-3 15 -7 31 -7 50c-1 9 -1 17 -1 28v45c1 25 3 51 6 76c3 27 6 49 10 74c3 23 6 46 10 70c3 23 5 46 6 67z" />
    <glyph glyph-name="Umacron" unicode="&#x16a;" horiz-adv-x="568" 
d="M150 707c0 3 -1 7 0 13l1 29l-1 12c0 4 0 7 -1 14c-4 3 -8 4 -8 7l3 3c2 0 6 1 10 1h8c2 -2 5 -1 7 -1c6 3 6 9 10 13c-14 0 -23 2 -37 6l49 3c38 -8 74 -5 111 -7l143 -1c1 -6 -2 -8 -2 -14c-1 -9 2 -24 2 -26c1 -3 0 -6 1 -10v-5c-2 -4 -5 -6 -7 -14c1 -7 6 -8 6 -15
c0 -10 0 -11 1 -14h-115c-32 2 -61 6 -95 6h-86zM84 615c4 4 9 6 14 6c3 0 8 -1 15 -4c11 -4 18 -11 29 -12c3 0 7 -3 11 -3s9 1 12 12c3 7 6 20 7 27c1 3 2 4 3 4l2 -13c1 -3 1 -8 1 -15c0 -12 -2 -26 -3 -39c-1 -19 -4 -38 -4 -51v-6c0 -23 5 -25 9 -36
c17 104 11 154 21 159c0 -20 1 -37 -2 -56l-5 -51c-3 -35 -7 -67 -12 -102l-8 -75c-1 -19 -2 -38 -2 -55v-18c1 -23 2 -46 9 -65l1 -6l2 -6l7 -17c4 -11 9 -21 13 -30c7 -9 9 -16 16 -21c4 -7 10 -10 15 -14c7 -4 15 -6 24 -10c9 -3 18 -3 29 -4h32c11 1 19 2 27 6l18 8
c4 4 9 9 12 16c4 6 7 13 9 22c3 9 5 19 6 31c3 23 3 44 3 71c0 12 0 26 -1 39v41l2 10v130c0 49 0 96 -1 147v7c10 -11 5 -29 12 -29c11 0 27 23 32 23c5 3 9 4 10 4c2 0 4 -1 6 -4c7 -5 8 -25 15 -28c1 -1 2 -1 4 -1c9 0 16 18 24 29c2 3 4 4 7 4s4 -1 7 -1c2 0 4 1 6 3
v-104c0 -35 0 -70 -1 -105c0 -19 0 -36 -1 -52v-14l-3 -37l3 -77l-1 -27c0 -9 -1 -18 -3 -28c0 -1 -1 -2 -1 -6v-18c-3 -19 -7 -35 -12 -54c-3 -11 -8 -19 -12 -30c-6 -10 -12 -19 -18 -27c-7 -11 -16 -18 -25 -26c-10 -9 -19 -16 -28 -20c-11 -7 -19 -10 -30 -14
c-11 -3 -21 -6 -30 -7c-20 -5 -38 -6 -57 -6h-7l-6 1h-14c-9 1 -17 2 -28 5c-19 3 -38 8 -58 17c-15 8 -31 18 -44 29c-14 13 -25 26 -34 40c-9 13 -15 25 -22 40c-7 12 -10 24 -15 37l-3 6l-1 6l-2 3c0 3 -1 5 -1 6c-3 8 -5 14 -6 22c-3 15 -7 31 -7 50c-1 9 -1 17 -1 28
v45c1 25 3 51 6 76c3 27 6 49 10 74c3 23 6 46 10 70c3 23 5 46 6 67z" />
    <glyph glyph-name="Uogonek" unicode="&#x172;" horiz-adv-x="568" 
d="M512 639c2 0 4 1 6 3v-104c0 -35 0 -70 -1 -105c0 -19 0 -36 -1 -52v-14l-3 -37l3 -77l-1 -27c0 -9 -1 -18 -3 -28c0 -1 -1 -2 -1 -6v-18c-3 -19 -7 -35 -12 -54c-3 -11 -8 -19 -12 -30c-6 -10 -12 -19 -18 -27c-7 -11 -16 -18 -25 -26l-1 -1l-17 -14
c-23 -18 -62 -48 -95 -88c-16 -19 -26 -39 -26 -59c0 -16 8 -31 26 -31c19 0 38 11 70 33l9 -3l8 -12c-3 -2 16 -29 23 -30c5 -1 9 -16 12 -20c3 -3 3 -6 7 -7c-46 -33 -87 -54 -136 -55c-80 0 -117 57 -122 102c-2 18 9 60 20 77c12 18 26 41 49 62c-9 1 -17 2 -27 5
c-19 3 -38 8 -58 17c-15 8 -31 18 -44 29c-14 13 -25 26 -34 40c-9 13 -15 25 -22 40c-7 12 -10 24 -15 37l-3 6l-1 6l-2 3c0 3 -1 5 -1 6c-3 8 -5 14 -6 22c-3 15 -7 31 -7 50c-1 9 -1 17 -1 28v45c1 25 3 51 6 76c3 27 6 49 10 74c3 23 6 46 10 70c3 23 5 46 6 67l2 3
c4 4 9 6 14 6c3 0 8 -1 15 -4c11 -4 18 -11 29 -12c3 0 7 -3 11 -3s9 1 12 12c3 7 6 20 7 27c1 3 2 4 3 4l2 -13c1 -3 1 -8 1 -15c0 -12 -2 -26 -3 -39c-1 -19 -4 -38 -4 -51v-6c0 -23 5 -25 9 -36c17 104 11 154 21 159c0 -20 1 -37 -2 -56l-5 -51c-3 -35 -7 -67 -12 -102
l-8 -75c-1 -19 -2 -38 -2 -55v-18c1 -23 2 -46 9 -65l1 -6l2 -6l7 -17c4 -11 9 -21 13 -30c7 -9 9 -16 16 -21c4 -7 10 -10 15 -14c7 -4 15 -6 24 -10c9 -3 18 -3 29 -4h32c11 1 19 2 27 6l18 8c4 4 9 9 12 16c4 6 7 13 9 22c3 9 5 19 6 31c3 23 3 44 3 71c0 12 0 26 -1 39
v41l2 10v130c0 49 0 96 -1 147v7c10 -11 5 -29 12 -29c11 0 27 23 32 23c5 3 9 4 10 4c2 0 4 -1 6 -4c7 -5 8 -25 15 -28c1 -1 2 -1 4 -1c9 0 16 18 24 29c2 3 4 4 7 4s4 -1 7 -1z" />
    <glyph glyph-name="Uring" unicode="&#x16e;" horiz-adv-x="568" 
d="M394 752c0 3 4 32 2 41c-4 18 -12 31 -20 45l-10 12c-2 3 -4 5 -6 6l-4 5l-11 6l-8 2c-4 0 -6 -1 -13 -1c-5 0 -11 0 -19 -1l-21 -4h-5c-19 -8 -44 -21 -57 -36c-6 -8 -23 -28 -26 -62c-5 -35 7 -92 63 -101c5 -1 17 -2 23 -3c6 0 19 -1 24 0c49 4 82 38 88 91zM298 731
c-25 0 -28 13 -28 30s13 31 28 31c16 0 26 0 29 -23c3 -24 -13 -38 -29 -38zM84 615c4 4 9 6 14 6c3 0 8 -1 15 -4c11 -4 18 -11 29 -12c3 0 7 -3 11 -3s9 1 12 12c3 7 6 20 7 27c1 3 2 4 3 4l2 -13c1 -3 1 -8 1 -15c0 -12 -2 -26 -3 -39c-1 -19 -4 -38 -4 -51v-6
c0 -23 5 -25 9 -36c17 104 11 154 21 159c0 -20 1 -37 -2 -56l-5 -51c-3 -35 -7 -67 -12 -102l-8 -75c-1 -19 -2 -38 -2 -55v-18c1 -23 2 -46 9 -65l1 -6l2 -6l7 -17c4 -11 9 -21 13 -30c7 -9 9 -16 16 -21c4 -7 10 -10 15 -14c7 -4 15 -6 24 -10c9 -3 18 -3 29 -4h32
c11 1 19 2 27 6l18 8c4 4 9 9 12 16c4 6 7 13 9 22c3 9 5 19 6 31c3 23 3 44 3 71c0 12 0 26 -1 39v41l2 10v130c0 49 0 96 -1 147v7c10 -11 5 -29 12 -29c11 0 27 23 32 23c5 3 9 4 10 4c2 0 4 -1 6 -4c7 -5 8 -25 15 -28c1 -1 2 -1 4 -1c9 0 16 18 24 29c2 3 4 4 7 4
s4 -1 7 -1c2 0 4 1 6 3v-104c0 -35 0 -70 -1 -105c0 -19 0 -36 -1 -52v-14l-3 -37l3 -77l-1 -27c0 -9 -1 -18 -3 -28c0 -1 -1 -2 -1 -6v-18c-3 -19 -7 -35 -12 -54c-3 -11 -8 -19 -12 -30c-6 -10 -12 -19 -18 -27c-7 -11 -16 -18 -25 -26c-10 -9 -19 -16 -28 -20
c-11 -7 -19 -10 -30 -14c-11 -3 -21 -6 -30 -7c-20 -5 -38 -6 -57 -6h-7l-6 1h-14c-9 1 -17 2 -28 5c-19 3 -38 8 -58 17c-15 8 -31 18 -44 29c-14 13 -25 26 -34 40c-9 13 -15 25 -22 40c-7 12 -10 24 -15 37l-3 6l-1 6l-2 3c0 3 -1 5 -1 6c-3 8 -5 14 -6 22
c-3 15 -7 31 -7 50c-1 9 -1 17 -1 28v45c1 25 3 51 6 76c3 27 6 49 10 74c3 23 6 46 10 70c3 23 5 46 6 67z" />
    <glyph glyph-name="V" unicode="V" horiz-adv-x="511" 
d="M484 646c7 0 10 -4 17 -4c-19 -60 -39 -118 -62 -175l-7 -18c-21 -55 -42 -107 -62 -160c-16 -43 -31 -85 -46 -128c-13 -39 -24 -77 -33 -119c0 -2 -1 -6 -2 -11c-2 -1 -5 -1 -8 -1c-7 0 -11 2 -18 3c-5 -3 -8 -8 -9 -8c-5 -3 -10 -6 -17 -6l-18 7
c-11 -1 -16 -12 -23 -20l-17 -9c-21 57 -39 115 -55 172c-15 49 -29 99 -42 147l-62 241c16 13 39 8 58 13c7 1 17 -1 22 10c3 5 2 15 5 15c1 0 2 -1 4 -4c7 -11 7 -31 14 -42s13 -9 18 -12c-5 25 -19 50 -11 64c8 -28 19 -53 26 -82c12 -44 26 -88 37 -131
c11 -44 21 -86 33 -129c3 11 6 20 10 31c19 52 41 101 62 152c19 47 39 92 55 140c11 33 20 65 31 97c2 2 3 -17 15 -18c11 0 20 3 25 3s13 0 16 -5c5 -4 6 -15 9 -18c3 -1 5 -2 8 -2c7 0 15 3 22 6z" />
    <glyph glyph-name="W" unicode="W" horiz-adv-x="720" 
d="M740 735c7 15 15 26 21 31l-23 -53c-7 -17 -13 -35 -21 -54c-23 -56 -40 -113 -59 -172c-19 -61 -35 -121 -48 -185c-12 -60 -23 -118 -27 -179c-3 -43 -6 -82 -7 -125c-13 4 -9 19 -20 16s-22 -10 -25 -11c-7 -1 -11 -3 -18 1h-3c-7 1 -11 7 -18 7
c-11 -1 -17 -12 -25 -20c-5 -7 -14 -4 -21 -9c-8 28 -18 57 -27 85l-31 86c-16 44 -35 132 -50 176c-5 -16 -25 -167 -33 -214c-8 -45 -14 -88 -14 -131l5 -40c-13 0 -12 13 -23 8c-9 -3 -19 -12 -22 -13c-7 -3 -12 -5 -20 -2c-4 3 -10 11 -15 12c-12 1 -18 -11 -29 -18
c-7 -5 -13 0 -20 -5c-11 65 -24 129 -41 196l-48 170c-27 95 -46 194 -58 295v1c9 5 19 7 31 6c11 -1 22 -5 33 -2c8 1 17 -4 24 7c4 8 5 24 12 9c2 -6 3 -14 3 -24c3 -9 2 -17 5 -24c5 -12 11 -13 18 -17c-1 15 -6 48 -4 59l2 14c3 -11 4 -32 7 -47c4 -15 7 -30 10 -47
c8 -51 21 -99 36 -150c4 -20 9 -40 14 -60c7 27 14 51 22 78c13 49 26 97 34 145c7 35 10 65 15 100c10 -5 8 -16 19 -15c11 3 24 6 25 6c8 0 15 2 20 -2c4 -4 8 -14 13 -17c11 -3 20 4 31 11c8 4 16 -4 23 -1l-13 -81c3 -3 7 -3 10 -6c-1 12 -1 23 0 33c0 9 2 18 3 29
c5 -10 2 -27 3 -40l8 -41c3 -20 7 -41 12 -64c7 -21 11 -42 18 -65l22 -81c11 56 23 114 38 170c15 57 32 113 55 169c20 56 43 110 70 163l2 1c10 1 20 -3 29 -11c8 -7 17 -15 25 -20c9 -4 14 -13 25 -6c11 6 19 22 16 4c-1 -8 -6 -16 -11 -27l-12 -28c-3 -15 2 -19 5 -27
c8 17 14 30 22 46z" />
    <glyph glyph-name="Wacute" unicode="&#x1e82;" horiz-adv-x="720" 
d="M458 781c-15 -12 -26 -30 -41 -46c-9 -11 -18 -19 -27 -30c-11 -12 -22 -25 -35 -36c-3 4 -9 6 -13 13s-8 14 -15 19l-12 6c-3 3 -8 7 -11 12c-3 3 -21 25 -27 25c4 7 10 10 17 15c9 8 16 19 23 28l24 32c8 8 18 16 27 27c7 7 15 8 22 15c-4 -5 -6 -10 -11 -17
c4 -3 9 -6 13 -6l10 7c3 0 4 -1 5 -3l1 -6c3 -5 7 -10 13 -15c12 -13 28 -25 37 -40zM740 735c7 15 15 26 21 31l-23 -53c-7 -17 -13 -35 -21 -54c-23 -56 -40 -113 -59 -172c-19 -61 -35 -121 -48 -185c-12 -60 -23 -118 -27 -179c-3 -43 -6 -82 -7 -125
c-13 4 -9 19 -20 16s-22 -10 -25 -11c-7 -1 -11 -3 -18 1h-3c-7 1 -11 7 -18 7c-11 -1 -17 -12 -25 -20c-5 -7 -14 -4 -21 -9c-8 28 -18 57 -27 85l-31 86c-16 44 -35 132 -50 176c-5 -16 -25 -167 -33 -214c-8 -45 -14 -88 -14 -131l5 -40c-13 0 -12 13 -23 8
c-9 -3 -19 -12 -22 -13c-7 -3 -12 -5 -20 -2c-4 3 -10 11 -15 12c-12 1 -18 -11 -29 -18c-7 -5 -13 0 -20 -5c-11 65 -24 129 -41 196l-48 170c-27 95 -46 194 -58 295v1c9 5 19 7 31 6c11 -1 22 -5 33 -2c8 1 17 -4 24 7c4 8 5 24 12 9c2 -6 3 -14 3 -24c3 -9 2 -17 5 -24
c5 -12 11 -13 18 -17c-1 15 -6 48 -4 59l2 14c3 -11 4 -32 7 -47c4 -15 7 -30 10 -47c8 -51 21 -99 36 -150c4 -20 9 -40 14 -60c7 27 14 51 22 78c13 49 26 97 34 145c7 35 10 65 15 100c10 -5 8 -16 19 -15c11 3 24 6 25 6c8 0 15 2 20 -2c4 -4 8 -14 13 -17
c11 -3 20 4 31 11c8 4 16 -4 23 -1l-13 -81c3 -3 7 -3 10 -6c-1 12 -1 23 0 33c0 9 2 18 3 29c5 -10 2 -27 3 -40l8 -41c3 -20 7 -41 12 -64c7 -21 11 -42 18 -65l22 -81c11 56 23 114 38 170c15 57 32 113 55 169c20 56 43 110 70 163l2 1c10 1 20 -3 29 -11
c8 -7 17 -15 25 -20c9 -4 14 -13 25 -6c11 6 19 22 16 4c-1 -8 -6 -16 -11 -27l-12 -28c-3 -15 2 -19 5 -27c8 17 14 30 22 46z" />
    <glyph glyph-name="Wcircumflex" unicode="&#x174;" horiz-adv-x="720" 
d="M215 779c-12 -8 -26 -18 -37 -14c12 8 28 19 43 26c26 11 47 23 70 35l51 25h17c13 -9 38 -23 52 -30c13 -6 23 -9 35 -16c20 -9 35 -21 52 -27c-2 -16 -12 -32 -18 -47c-3 -7 -5 -13 -6 -18l1 -6c0 -3 -1 -4 -4 -5l-11 3c-3 -2 -6 -7 -9 -9c7 -5 11 -9 16 -12
c-9 4 -17 1 -25 6c-12 6 -23 9 -34 14l-63 29c-60 -22 -90 -37 -110 -48c-8 8 -1 2 -5 9c-2 10 -8 18 -11 27c-4 6 -6 13 -15 17c-4 2 -9 3 -11 3c-1 0 -1 3 -1 4c5 9 17 10 24 18c3 6 -1 10 -1 16zM740 735c7 15 15 26 21 31l-23 -53c-7 -17 -13 -35 -21 -54
c-23 -56 -40 -113 -59 -172c-19 -61 -35 -121 -48 -185c-12 -60 -23 -118 -27 -179c-3 -43 -6 -82 -7 -125c-13 4 -9 19 -20 16s-22 -10 -25 -11c-7 -1 -11 -3 -18 1h-3c-7 1 -11 7 -18 7c-11 -1 -17 -12 -25 -20c-5 -7 -14 -4 -21 -9c-8 28 -18 57 -27 85l-31 86
c-16 44 -35 132 -50 176c-5 -16 -25 -167 -33 -214c-8 -45 -14 -88 -14 -131l5 -40c-13 0 -12 13 -23 8c-9 -3 -19 -12 -22 -13c-7 -3 -12 -5 -20 -2c-4 3 -10 11 -15 12c-12 1 -18 -11 -29 -18c-7 -5 -13 0 -20 -5c-11 65 -24 129 -41 196l-48 170c-27 95 -46 194 -58 295
v1c9 5 19 7 31 6c11 -1 22 -5 33 -2c8 1 17 -4 24 7c4 8 5 24 12 9c2 -6 3 -14 3 -24c3 -9 2 -17 5 -24c5 -12 11 -13 18 -17c-1 15 -6 48 -4 59l2 14c3 -11 4 -32 7 -47c4 -15 7 -30 10 -47c8 -51 21 -99 36 -150c4 -20 9 -40 14 -60c7 27 14 51 22 78c13 49 26 97 34 145
c7 35 10 65 15 100c10 -5 8 -16 19 -15c11 3 24 6 25 6c8 0 15 2 20 -2c4 -4 8 -14 13 -17c11 -3 20 4 31 11c8 4 16 -4 23 -1l-13 -81c3 -3 7 -3 10 -6c-1 12 -1 23 0 33c0 9 2 18 3 29c5 -10 2 -27 3 -40l8 -41c3 -20 7 -41 12 -64c7 -21 11 -42 18 -65l22 -81
c11 56 23 114 38 170c15 57 32 113 55 169c20 56 43 110 70 163l2 1c10 1 20 -3 29 -11c8 -7 17 -15 25 -20c9 -4 14 -13 25 -6c11 6 19 22 16 4c-1 -8 -6 -16 -11 -27l-12 -28c-3 -15 2 -19 5 -27c8 17 14 30 22 46z" />
    <glyph glyph-name="Wdieresis" unicode="&#x1e84;" horiz-adv-x="720" 
d="M326 810c-3 -22 -3 -38 -2 -56c1 -17 2 -34 -1 -51c-4 2 -10 -1 -18 1c-8 3 -16 5 -23 4l-14 -4c-5 0 -10 0 -16 2c-4 -1 -32 3 -37 -2c-2 9 1 16 2 24c2 11 -3 24 -1 36c0 19 0 32 1 32c-1 11 4 17 5 27c0 -6 2 -12 4 -20c4 0 11 1 13 4l3 13c1 1 3 1 5 0l6 -4
c5 -1 11 -2 19 -1c18 -2 37 0 54 -5zM368 819c2 -4 3 -9 15 -12l2 12c2 2 3 2 5 1l6 -4c6 -1 11 -2 20 -1c17 -1 36 0 54 -6c-5 -21 -3 -37 -2 -55c0 -16 1 -34 -1 -51l-8 5l-5 10c-3 -9 -22 -9 -29 -10l-14 -3c-4 0 -9 -2 -16 1c-3 -1 -32 3 -36 -1c-3 8 0 15 2 23
c1 12 -4 24 -2 36c0 19 1 32 1 32c0 9 3 14 4 21zM740 735c7 15 15 26 21 31l-23 -53c-7 -17 -13 -35 -21 -54c-23 -56 -40 -113 -59 -172c-19 -61 -35 -121 -48 -185c-12 -60 -23 -118 -27 -179c-3 -43 -6 -82 -7 -125c-13 4 -9 19 -20 16s-22 -10 -25 -11
c-7 -1 -11 -3 -18 1h-3c-7 1 -11 7 -18 7c-11 -1 -17 -12 -25 -20c-5 -7 -14 -4 -21 -9c-8 28 -18 57 -27 85l-31 86c-16 44 -35 132 -50 176c-5 -16 -25 -167 -33 -214c-8 -45 -14 -88 -14 -131l5 -40c-13 0 -12 13 -23 8c-9 -3 -19 -12 -22 -13c-7 -3 -12 -5 -20 -2
c-4 3 -10 11 -15 12c-12 1 -18 -11 -29 -18c-7 -5 -13 0 -20 -5c-11 65 -24 129 -41 196l-48 170c-27 95 -46 194 -58 295v1c9 5 19 7 31 6c11 -1 22 -5 33 -2c8 1 17 -4 24 7c4 8 5 24 12 9c2 -6 3 -14 3 -24c3 -9 2 -17 5 -24c5 -12 11 -13 18 -17c-1 15 -6 48 -4 59l2 14
c3 -11 4 -32 7 -47c4 -15 7 -30 10 -47c8 -51 21 -99 36 -150c4 -20 9 -40 14 -60c7 27 14 51 22 78c13 49 26 97 34 145c7 35 10 65 15 100c10 -5 8 -16 19 -15c11 3 24 6 25 6c8 0 15 2 20 -2c4 -4 8 -14 13 -17c11 -3 20 4 31 11c8 4 16 -4 23 -1l-13 -81
c3 -3 7 -3 10 -6c-1 12 -1 23 0 33c0 9 2 18 3 29c5 -10 2 -27 3 -40l8 -41c3 -20 7 -41 12 -64c7 -21 11 -42 18 -65l22 -81c11 56 23 114 38 170c15 57 32 113 55 169c20 56 43 110 70 163l2 1c10 1 20 -3 29 -11c8 -7 17 -15 25 -20c9 -4 14 -13 25 -6c11 6 19 22 16 4
c-1 -8 -6 -16 -11 -27l-12 -28c-3 -15 2 -19 5 -27c8 17 14 30 22 46z" />
    <glyph glyph-name="Wgrave" unicode="&#x1e80;" horiz-adv-x="720" 
d="M268 781c9 15 25 27 37 40c6 5 10 10 13 15l1 6c1 2 2 3 5 3l10 -7c4 0 9 3 13 6c-5 7 -7 12 -11 17c7 -7 15 -8 22 -15c9 -11 19 -19 27 -27l24 -32c7 -9 14 -20 23 -28c7 -5 13 -8 17 -15c-6 0 -24 -22 -27 -25c-3 -5 -8 -9 -11 -12l-12 -6c-7 -5 -11 -12 -15 -19
s-10 -9 -13 -13c-13 11 -24 24 -35 36c-9 11 -18 19 -27 30c-15 16 -26 34 -41 46zM740 735c7 15 15 26 21 31l-23 -53c-7 -17 -13 -35 -21 -54c-23 -56 -40 -113 -59 -172c-19 -61 -35 -121 -48 -185c-12 -60 -23 -118 -27 -179c-3 -43 -6 -82 -7 -125c-13 4 -9 19 -20 16
s-22 -10 -25 -11c-7 -1 -11 -3 -18 1h-3c-7 1 -11 7 -18 7c-11 -1 -17 -12 -25 -20c-5 -7 -14 -4 -21 -9c-8 28 -18 57 -27 85l-31 86c-16 44 -35 132 -50 176c-5 -16 -25 -167 -33 -214c-8 -45 -14 -88 -14 -131l5 -40c-13 0 -12 13 -23 8c-9 -3 -19 -12 -22 -13
c-7 -3 -12 -5 -20 -2c-4 3 -10 11 -15 12c-12 1 -18 -11 -29 -18c-7 -5 -13 0 -20 -5c-11 65 -24 129 -41 196l-48 170c-27 95 -46 194 -58 295v1c9 5 19 7 31 6c11 -1 22 -5 33 -2c8 1 17 -4 24 7c4 8 5 24 12 9c2 -6 3 -14 3 -24c3 -9 2 -17 5 -24c5 -12 11 -13 18 -17
c-1 15 -6 48 -4 59l2 14c3 -11 4 -32 7 -47c4 -15 7 -30 10 -47c8 -51 21 -99 36 -150c4 -20 9 -40 14 -60c7 27 14 51 22 78c13 49 26 97 34 145c7 35 10 65 15 100c10 -5 8 -16 19 -15c11 3 24 6 25 6c8 0 15 2 20 -2c4 -4 8 -14 13 -17c11 -3 20 4 31 11c8 4 16 -4 23 -1
l-13 -81c3 -3 7 -3 10 -6c-1 12 -1 23 0 33c0 9 2 18 3 29c5 -10 2 -27 3 -40l8 -41c3 -20 7 -41 12 -64c7 -21 11 -42 18 -65l22 -81c11 56 23 114 38 170c15 57 32 113 55 169c20 56 43 110 70 163l2 1c10 1 20 -3 29 -11c8 -7 17 -15 25 -20c9 -4 14 -13 25 -6
c11 6 19 22 16 4c-1 -8 -6 -16 -11 -27l-12 -28c-3 -15 2 -19 5 -27c8 17 14 30 22 46z" />
    <glyph glyph-name="X" unicode="X" horiz-adv-x="511" 
d="M428 88c20 -38 38 -77 53 -116c-8 0 -8 12 -13 12c-3 0 -7 -2 -12 -5c-8 -7 -14 -18 -17 -19c-5 -5 -10 -7 -17 -7c-5 3 -12 10 -19 10c-11 -1 -15 -14 -20 -25c-5 -7 -14 -2 -18 -9c-28 68 -60 136 -97 204l-40 75c-17 -39 -33 -77 -48 -117c-12 -35 -25 -68 -40 -101
c-2 2 -1 6 -1 7c0 7 -4 10 -12 11h-25c-9 1 -14 4 -17 8c-3 5 -3 15 -7 18c-3 2 -7 3 -10 3c-7 0 -13 -3 -24 -4l-18 6c19 44 36 87 55 132l23 58c15 39 31 77 47 114c-47 84 -90 171 -126 264c7 9 15 13 26 14s22 1 31 5c7 3 17 2 20 14v12c0 4 1 6 2 6l5 -6
c4 -5 8 -15 11 -24c5 -11 8 -20 13 -25c7 -13 14 -12 21 -15l-15 41c-3 12 -11 23 -11 38c7 -17 15 -34 23 -50c8 -15 16 -30 23 -49c13 -28 26 -53 41 -80c7 15 14 29 22 42c23 44 48 87 76 132c10 -2 19 -7 26 -15l22 -21c7 -3 10 -9 17 -9c3 0 5 0 6 1c5 3 11 8 14 8
c1 0 2 -1 2 -3s0 -4 -1 -5c-3 -7 -6 -13 -13 -21c-4 -8 -10 -15 -11 -22c-1 -4 -2 -7 -2 -9c0 -7 3 -10 4 -15c8 13 16 24 22 34c7 13 15 22 22 26c-14 -25 -30 -56 -47 -85c-23 -41 -43 -83 -62 -126l-5 -12c-7 -13 -11 -25 -16 -37l55 -103c28 -52 55 -105 82 -160z" />
    <glyph glyph-name="Y" unicode="Y" horiz-adv-x="503" 
d="M456 570c8 15 16 30 27 32c-6 -13 -15 -31 -26 -46c-17 -23 -31 -44 -46 -67c-16 -23 -33 -42 -48 -65c-11 -14 -36 -51 -36 -66c0 -1 -1 -2 -2 -3c-5 -11 -11 -25 -21 -217c0 -25 0 -50 1 -78c1 -9 0 -18 3 -29l3 -69c-7 0 -6 9 -13 9c-9 0 -29 -5 -33 -8
c-1 -1 -2 -1 -4 -1h-6c-1 -1 -2 -1 -4 -1s-4 0 -5 1c-7 3 -9 10 -18 10c-8 -1 -15 -5 -27 -12l-21 -2c-3 23 -3 46 -4 70c-1 16 -1 33 -1 49v141c0 33 2 64 3 97l2 9l-1 5c-15 19 -28 39 -41 59c-16 23 -31 46 -47 71c-23 36 -44 75 -71 110c15 15 35 21 54 32
c7 4 15 8 19 13c1 7 0 11 4 11c2 0 3 0 4 -1c7 -3 9 -14 16 -17c1 -2 4 -3 7 -3l12 3c-15 16 -19 26 -18 33l33 -39c15 -21 31 -41 43 -62c15 -23 27 -44 40 -67c1 -3 3 -6 5 -7c14 23 30 47 47 71c29 40 60 78 85 117c11 -3 20 -8 28 -12c8 -8 17 -12 25 -19
c7 -3 12 -9 23 -9c4 1 8 3 11 3c1 0 2 -1 2 -4c0 -9 -11 -16 -12 -27c0 -7 5 -8 8 -15z" />
    <glyph glyph-name="Yacute" unicode="&#xdd;" horiz-adv-x="503" 
d="M356 781c-15 -12 -26 -30 -41 -46c-9 -11 -18 -19 -27 -30c-11 -12 -22 -25 -35 -36c-3 4 -9 6 -13 13s-8 14 -15 19l-12 6c-3 3 -8 7 -11 12c-3 3 -21 25 -27 25c4 7 10 10 17 15c9 8 16 19 23 28l24 32c8 8 18 16 27 27c7 7 15 8 22 15c-4 -5 -6 -10 -11 -17
c4 -3 9 -6 13 -6l10 7c3 0 4 -1 5 -3l1 -6c3 -5 7 -10 13 -15c12 -13 28 -25 37 -40zM456 570c8 15 16 30 27 32c-6 -13 -15 -31 -26 -46c-17 -23 -31 -44 -46 -67c-16 -23 -33 -42 -48 -65c-11 -14 -36 -51 -36 -66c0 -1 -1 -2 -2 -3c-5 -11 -11 -25 -21 -217
c0 -25 0 -50 1 -78c1 -9 0 -18 3 -29l3 -69c-7 0 -6 9 -13 9c-9 0 -29 -5 -33 -8c-1 -1 -2 -1 -4 -1h-6c-1 -1 -2 -1 -4 -1s-4 0 -5 1c-7 3 -9 10 -18 10c-8 -1 -15 -5 -27 -12l-21 -2c-3 23 -3 46 -4 70c-1 16 -1 33 -1 49v141c0 33 2 64 3 97l2 9l-1 5
c-15 19 -28 39 -41 59c-16 23 -31 46 -47 71c-23 36 -44 75 -71 110c15 15 35 21 54 32c7 4 15 8 19 13c1 7 0 11 4 11c2 0 3 0 4 -1c7 -3 9 -14 16 -17c1 -2 4 -3 7 -3l12 3c-15 16 -19 26 -18 33l33 -39c15 -21 31 -41 43 -62c15 -23 27 -44 40 -67c1 -3 3 -6 5 -7
c14 23 30 47 47 71c29 40 60 78 85 117c11 -3 20 -8 28 -12c8 -8 17 -12 25 -19c7 -3 12 -9 23 -9c4 1 8 3 11 3c1 0 2 -1 2 -4c0 -9 -11 -16 -12 -27c0 -7 5 -8 8 -15z" />
    <glyph glyph-name="Ycircumflex" unicode="&#x176;" horiz-adv-x="503" 
d="M113 779c-12 -8 -26 -18 -37 -14c12 8 28 19 43 26c26 11 47 23 70 35l51 25h17c13 -9 38 -23 52 -30c13 -6 23 -9 35 -16c20 -9 35 -21 52 -27c-2 -16 -12 -32 -18 -47c-3 -7 -5 -13 -6 -18l1 -6c0 -3 -1 -4 -4 -5l-11 3c-3 -2 -6 -7 -9 -9c7 -5 11 -9 16 -12
c-9 4 -17 1 -25 6c-12 6 -23 9 -34 14l-63 29c-60 -22 -90 -37 -110 -48c-8 8 -1 2 -5 9c-2 10 -8 18 -11 27c-4 6 -6 13 -15 17c-4 2 -9 3 -11 3c-1 0 -1 3 -1 4c5 9 17 10 24 18c3 6 -1 10 -1 16zM456 570c8 15 16 30 27 32c-6 -13 -15 -31 -26 -46
c-17 -23 -31 -44 -46 -67c-16 -23 -33 -42 -48 -65c-11 -14 -36 -51 -36 -66c0 -1 -1 -2 -2 -3c-5 -11 -11 -25 -21 -217c0 -25 0 -50 1 -78c1 -9 0 -18 3 -29l3 -69c-7 0 -6 9 -13 9c-9 0 -29 -5 -33 -8c-1 -1 -2 -1 -4 -1h-6c-1 -1 -2 -1 -4 -1s-4 0 -5 1
c-7 3 -9 10 -18 10c-8 -1 -15 -5 -27 -12l-21 -2c-3 23 -3 46 -4 70c-1 16 -1 33 -1 49v141c0 33 2 64 3 97l2 9l-1 5c-15 19 -28 39 -41 59c-16 23 -31 46 -47 71c-23 36 -44 75 -71 110c15 15 35 21 54 32c7 4 15 8 19 13c1 7 0 11 4 11c2 0 3 0 4 -1c7 -3 9 -14 16 -17
c1 -2 4 -3 7 -3l12 3c-15 16 -19 26 -18 33l33 -39c15 -21 31 -41 43 -62c15 -23 27 -44 40 -67c1 -3 3 -6 5 -7c14 23 30 47 47 71c29 40 60 78 85 117c11 -3 20 -8 28 -12c8 -8 17 -12 25 -19c7 -3 12 -9 23 -9c4 1 8 3 11 3c1 0 2 -1 2 -4c0 -9 -11 -16 -12 -27
c0 -7 5 -8 8 -15z" />
    <glyph glyph-name="Ydieresis" unicode="&#x178;" horiz-adv-x="503" 
d="M224 810c-3 -22 -3 -38 -2 -56c1 -17 2 -34 -1 -51c-4 2 -10 -1 -18 1c-8 3 -16 5 -23 4l-14 -4c-5 0 -10 0 -16 2c-4 -1 -32 3 -37 -2c-2 9 1 16 2 24c2 11 -3 24 -1 36c0 19 0 32 1 32c-1 11 4 17 5 27c0 -6 2 -12 4 -20c4 0 11 1 13 4l3 13c1 1 3 1 5 0l6 -4
c5 -1 11 -2 19 -1c18 -2 37 0 54 -5zM266 819c2 -4 3 -9 15 -12l2 12c2 2 3 2 5 1l6 -4c6 -1 11 -2 20 -1c17 -1 36 0 54 -6c-5 -21 -3 -37 -2 -55c0 -16 1 -34 -1 -51l-8 5l-5 10c-3 -9 -22 -9 -29 -10l-14 -3c-4 0 -9 -2 -16 1c-3 -1 -32 3 -36 -1c-3 8 0 15 2 23
c1 12 -4 24 -2 36c0 19 1 32 1 32c0 9 3 14 4 21zM456 570c8 15 16 30 27 32c-6 -13 -15 -31 -26 -46c-17 -23 -31 -44 -46 -67c-16 -23 -33 -42 -48 -65c-11 -14 -36 -51 -36 -66c0 -1 -1 -2 -2 -3c-5 -11 -11 -25 -21 -217c0 -25 0 -50 1 -78c1 -9 0 -18 3 -29l3 -69
c-7 0 -6 9 -13 9c-9 0 -29 -5 -33 -8c-1 -1 -2 -1 -4 -1h-6c-1 -1 -2 -1 -4 -1s-4 0 -5 1c-7 3 -9 10 -18 10c-8 -1 -15 -5 -27 -12l-21 -2c-3 23 -3 46 -4 70c-1 16 -1 33 -1 49v141c0 33 2 64 3 97l2 9l-1 5c-15 19 -28 39 -41 59c-16 23 -31 46 -47 71
c-23 36 -44 75 -71 110c15 15 35 21 54 32c7 4 15 8 19 13c1 7 0 11 4 11c2 0 3 0 4 -1c7 -3 9 -14 16 -17c1 -2 4 -3 7 -3l12 3c-15 16 -19 26 -18 33l33 -39c15 -21 31 -41 43 -62c15 -23 27 -44 40 -67c1 -3 3 -6 5 -7c14 23 30 47 47 71c29 40 60 78 85 117
c11 -3 20 -8 28 -12c8 -8 17 -12 25 -19c7 -3 12 -9 23 -9c4 1 8 3 11 3c1 0 2 -1 2 -4c0 -9 -11 -16 -12 -27c0 -7 5 -8 8 -15z" />
    <glyph glyph-name="Ygrave" unicode="&#x1ef2;" horiz-adv-x="503" 
d="M166 781c9 15 25 27 37 40c6 5 10 10 13 15l1 6c1 2 2 3 5 3l10 -7c4 0 9 3 13 6c-5 7 -7 12 -11 17c7 -7 15 -8 22 -15c9 -11 19 -19 27 -27l24 -32c7 -9 14 -20 23 -28c7 -5 13 -8 17 -15c-6 0 -24 -22 -27 -25c-3 -5 -8 -9 -11 -12l-12 -6c-7 -5 -11 -12 -15 -19
s-10 -9 -13 -13c-13 11 -24 24 -35 36c-9 11 -18 19 -27 30c-15 16 -26 34 -41 46zM456 570c8 15 16 30 27 32c-6 -13 -15 -31 -26 -46c-17 -23 -31 -44 -46 -67c-16 -23 -33 -42 -48 -65c-11 -14 -36 -51 -36 -66c0 -1 -1 -2 -2 -3c-5 -11 -11 -25 -21 -217
c0 -25 0 -50 1 -78c1 -9 0 -18 3 -29l3 -69c-7 0 -6 9 -13 9c-9 0 -29 -5 -33 -8c-1 -1 -2 -1 -4 -1h-6c-1 -1 -2 -1 -4 -1s-4 0 -5 1c-7 3 -9 10 -18 10c-8 -1 -15 -5 -27 -12l-21 -2c-3 23 -3 46 -4 70c-1 16 -1 33 -1 49v141c0 33 2 64 3 97l2 9l-1 5
c-15 19 -28 39 -41 59c-16 23 -31 46 -47 71c-23 36 -44 75 -71 110c15 15 35 21 54 32c7 4 15 8 19 13c1 7 0 11 4 11c2 0 3 0 4 -1c7 -3 9 -14 16 -17c1 -2 4 -3 7 -3l12 3c-15 16 -19 26 -18 33l33 -39c15 -21 31 -41 43 -62c15 -23 27 -44 40 -67c1 -3 3 -6 5 -7
c14 23 30 47 47 71c29 40 60 78 85 117c11 -3 20 -8 28 -12c8 -8 17 -12 25 -19c7 -3 12 -9 23 -9c4 1 8 3 11 3c1 0 2 -1 2 -4c0 -9 -11 -16 -12 -27c0 -7 5 -8 8 -15z" />
    <glyph glyph-name="Z" unicode="Z" horiz-adv-x="521" 
d="M436 126c1 -1 4 -1 8 -1l30 3c9 0 16 -3 16 -15s3 -27 6 -34v-11c0 -5 0 -8 -1 -10c-3 -7 -7 -10 -8 -17c-1 -1 -1 -3 -1 -6c0 -9 5 -18 8 -26v-24c-39 0 -78 1 -118 2c-35 1 -66 1 -101 1c-48 1 -99 4 -148 4h-18c-1 7 -2 11 -2 18v6c-7 1 -11 1 -12 2
c-7 1 -14 3 -17 10c-4 5 -3 14 -7 18c-3 3 -7 5 -13 5l-19 -2l-19 9c27 61 56 118 87 173c27 47 56 94 88 138c23 35 46 66 73 101h-195c-3 7 -2 13 -2 20l4 64c0 4 -1 8 -3 12c-3 4 -9 6 -9 9c0 2 1 3 4 4l29 3c8 4 9 12 12 17c-19 1 -37 1 -45 7l60 7h92c35 0 66 -4 98 -5
c21 -1 42 -2 63 -2c9 0 18 0 29 1c21 3 42 4 63 4c-5 -1 -7 -5 -7 -13c0 -15 6 -33 7 -36l1 -15c0 -3 0 -5 -1 -6c-3 -7 -8 -10 -8 -17c-1 -1 -1 -3 -1 -6c0 -9 6 -18 9 -26l1 -24c-12 0 -23 0 -34 -1c-12 -15 -22 -32 -37 -49c-56 -68 -107 -145 -162 -222l-38 -61h51
c32 -1 64 -4 96 -7c24 -1 49 -2 74 -2h17zM404 442c8 10 16 18 24 25h-24c-1 -3 -2 -6 -2 -10c0 -3 1 -8 2 -15z" />
    <glyph glyph-name="Zacute" unicode="&#x179;" horiz-adv-x="521" 
d="M401 781c-15 -12 -26 -30 -41 -46c-9 -11 -18 -19 -27 -30c-11 -12 -22 -25 -35 -36c-3 4 -9 6 -13 13s-8 14 -15 19l-12 6c-3 3 -8 7 -11 12c-3 3 -21 25 -27 25c4 7 10 10 17 15c9 8 16 19 23 28l24 32c8 8 18 16 27 27c7 7 15 8 22 15c-4 -5 -6 -10 -11 -17
c4 -3 9 -6 13 -6l10 7c3 0 4 -1 5 -3l1 -6c3 -5 7 -10 13 -15c12 -13 28 -25 37 -40zM436 126c1 -1 4 -1 8 -1l30 3c9 0 16 -3 16 -15s3 -27 6 -34v-11c0 -5 0 -8 -1 -10c-3 -7 -7 -10 -8 -17c-1 -1 -1 -3 -1 -6c0 -9 5 -18 8 -26v-24c-39 0 -78 1 -118 2
c-35 1 -66 1 -101 1c-48 1 -99 4 -148 4h-18c-1 7 -2 11 -2 18v6c-7 1 -11 1 -12 2c-7 1 -14 3 -17 10c-4 5 -3 14 -7 18c-3 3 -7 5 -13 5l-19 -2l-19 9c27 61 56 118 87 173c27 47 56 94 88 138c23 35 46 66 73 101h-195c-3 7 -2 13 -2 20l4 64c0 4 -1 8 -3 12
c-3 4 -9 6 -9 9c0 2 1 3 4 4l29 3c8 4 9 12 12 17c-19 1 -37 1 -45 7l60 7h92c35 0 66 -4 98 -5c21 -1 42 -2 63 -2c9 0 18 0 29 1c21 3 42 4 63 4c-5 -1 -7 -5 -7 -13c0 -15 6 -33 7 -36l1 -15c0 -3 0 -5 -1 -6c-3 -7 -8 -10 -8 -17c-1 -1 -1 -3 -1 -6c0 -9 6 -18 9 -26
l1 -24c-12 0 -23 0 -34 -1c-12 -15 -22 -32 -37 -49c-56 -68 -107 -145 -162 -222l-38 -61h51c32 -1 64 -4 96 -7c24 -1 49 -2 74 -2h17zM404 442c8 10 16 18 24 25h-24c-1 -3 -2 -6 -2 -10c0 -3 1 -8 2 -15z" />
    <glyph glyph-name="Zcaron" unicode="&#x17d;" horiz-adv-x="521" 
d="M418 748c12 8 26 18 37 14c-12 -8 -28 -19 -43 -26c-26 -11 -47 -23 -70 -35l-51 -25h-17c-13 9 -38 23 -52 30c-13 6 -23 9 -35 16c-20 9 -35 21 -52 27c2 16 12 32 18 47c3 7 5 13 6 18l-1 6c0 3 1 4 4 5l11 -3c3 2 6 7 9 9c-7 5 -11 9 -16 12c9 -4 17 -1 25 -6
c12 -6 23 -9 34 -14l63 -29c60 22 90 37 110 48c8 -8 1 -2 5 -9c2 -10 8 -18 11 -27c4 -6 6 -13 15 -17c4 -2 9 -3 11 -3c1 0 1 -3 1 -4c-5 -9 -17 -10 -24 -18c-3 -6 1 -10 1 -16zM436 126c1 -1 4 -1 8 -1l30 3c9 0 16 -3 16 -15s3 -27 6 -34v-11c0 -5 0 -8 -1 -10
c-3 -7 -7 -10 -8 -17c-1 -1 -1 -3 -1 -6c0 -9 5 -18 8 -26v-24c-39 0 -78 1 -118 2c-35 1 -66 1 -101 1c-48 1 -99 4 -148 4h-18c-1 7 -2 11 -2 18v6c-7 1 -11 1 -12 2c-7 1 -14 3 -17 10c-4 5 -3 14 -7 18c-3 3 -7 5 -13 5l-19 -2l-19 9c27 61 56 118 87 173
c27 47 56 94 88 138c23 35 46 66 73 101h-195c-3 7 -2 13 -2 20l4 64c0 4 -1 8 -3 12c-3 4 -9 6 -9 9c0 2 1 3 4 4l29 3c8 4 9 12 12 17c-19 1 -37 1 -45 7l60 7h92c35 0 66 -4 98 -5c21 -1 42 -2 63 -2c9 0 18 0 29 1c21 3 42 4 63 4c-5 -1 -7 -5 -7 -13c0 -15 6 -33 7 -36
l1 -15c0 -3 0 -5 -1 -6c-3 -7 -8 -10 -8 -17c-1 -1 -1 -3 -1 -6c0 -9 6 -18 9 -26l1 -24c-12 0 -23 0 -34 -1c-12 -15 -22 -32 -37 -49c-56 -68 -107 -145 -162 -222l-38 -61h51c32 -1 64 -4 96 -7c24 -1 49 -2 74 -2h17zM404 442c8 10 16 18 24 25h-24c-1 -3 -2 -6 -2 -10
c0 -3 1 -8 2 -15z" />
    <glyph glyph-name="Zdotaccent" unicode="&#x17b;" horiz-adv-x="521" 
d="M340 812c-5 -22 -3 -40 -2 -58c0 -18 1 -36 -1 -53c-5 1 -12 -2 -20 0c-8 3 -16 5 -24 4l-14 -3c-5 0 -11 -1 -18 1c-3 -1 -33 3 -38 -1c-2 9 0 16 2 24c2 13 -3 25 -2 38c0 20 1 34 1 34c0 11 5 17 6 28c0 -6 2 -12 4 -21c5 0 11 1 15 4l2 13c2 2 3 2 6 1l5 -4
c6 -2 12 -3 21 -2c19 -1 39 0 57 -5zM436 126c1 -1 4 -1 8 -1l30 3c9 0 16 -3 16 -15s3 -27 6 -34v-11c0 -5 0 -8 -1 -10c-3 -7 -7 -10 -8 -17c-1 -1 -1 -3 -1 -6c0 -9 5 -18 8 -26v-24c-39 0 -78 1 -118 2c-35 1 -66 1 -101 1c-48 1 -99 4 -148 4h-18c-1 7 -2 11 -2 18v6
c-7 1 -11 1 -12 2c-7 1 -14 3 -17 10c-4 5 -3 14 -7 18c-3 3 -7 5 -13 5l-19 -2l-19 9c27 61 56 118 87 173c27 47 56 94 88 138c23 35 46 66 73 101h-195c-3 7 -2 13 -2 20l4 64c0 4 -1 8 -3 12c-3 4 -9 6 -9 9c0 2 1 3 4 4l29 3c8 4 9 12 12 17c-19 1 -37 1 -45 7l60 7h92
c35 0 66 -4 98 -5c21 -1 42 -2 63 -2c9 0 18 0 29 1c21 3 42 4 63 4c-5 -1 -7 -5 -7 -13c0 -15 6 -33 7 -36l1 -15c0 -3 0 -5 -1 -6c-3 -7 -8 -10 -8 -17c-1 -1 -1 -3 -1 -6c0 -9 6 -18 9 -26l1 -24c-12 0 -23 0 -34 -1c-12 -15 -22 -32 -37 -49
c-56 -68 -107 -145 -162 -222l-38 -61h51c32 -1 64 -4 96 -7c24 -1 49 -2 74 -2h17zM404 442c8 10 16 18 24 25h-24c-1 -3 -2 -6 -2 -10c0 -3 1 -8 2 -15z" />
    <glyph glyph-name="A.ss01" horiz-adv-x="530" 
d="M813 -185c-1 -1 -1 -3 -1 -6c-1 -5 -1 -13 0 -20l1 -17c0 -2 1 -5 3 -8c2 -4 5 -7 8 -11c2 -4 4 -6 4 -5c1 -3 4 -8 4 -12c0 -2 0 -3 -1 -4c-2 -3 -3 -6 -6 -9c-4 -3 -7 -6 -7 -10c0 -3 2 -7 6 -10l7 -1c3 -1 3 -4 3 -8c-1 -5 0 -7 1 -8c-41 -24 -56 -28 -102 -29
c-119 4 -174 37 -246 106c-5 5 -10 10 -15 17c-66 -15 -160 -40 -217 -45c-287 -28 -387 60 -389 82l17 -9c10 -4 15 -5 19 -6c2 -1 4 1 6 2s3 4 0 10c-4 8 -10 17 -16 25c-5 6 -11 13 -11 15l-2 11c0 1 1 3 3 3c0 1 5 1 8 -1l29 -11c13 -3 22 -6 25 -7c3 1 4 1 4 6
c0 2 -4 7 -11 14c-8 8 -20 20 -28 32c-1 0 -2 2 -2 3c-1 3 -1 5 2 7c3 3 4 5 3 7v1c48 -42 93 -94 246 -93c69 1 156 17 248 37c4 1 7 2 10 2c-32 62 -59 131 -74 179l-20 63l-167 -35l-3 -24c-4 -35 -6 -68 -9 -101c-6 5 -4 13 -11 13l-7 -1c-11 -3 -21 -9 -24 -9
c-2 -1 -5 -1 -10 -1c-3 0 -6 1 -8 2c-7 5 -8 12 -13 15l-5 1c-11 0 -43 -11 -45 -15c1 39 5 73 10 108s9 69 16 104c11 60 24 117 35 174l2 12c8 43 16 84 23 125c7 47 11 89 12 136c5 2 10 3 15 3s8 -1 15 -2c11 -3 20 -5 29 -5l13 -1c5 0 8 2 11 5c5 4 6 16 9 16
c1 0 3 -2 4 -6c1 -8 1 -14 1 -25l29 1c8 3 19 0 23 11c3 4 2 15 5 15c2 0 4 -2 5 -6l12 -44c5 -11 12 -11 19 -14c-7 27 -14 53 -9 68c7 -31 17 -56 24 -88c11 -47 21 -92 36 -137l21 -69c5 -19 11 -37 18 -53l12 -30l34 6c-4 -10 -11 -5 -10 -12c1 -4 2 -7 4 -9
c4 -10 11 -20 11 -21c1 -2 1 -5 2 -10c1 -4 1 -7 0 -8c0 -5 -4 -22 -18 -35c9 -31 21 -64 39 -118c18 -51 40 -103 68 -148c79 18 116 23 176 23c41 0 82 -20 110 -52c10 -14 11 -28 11 -47l-1 -1h-4l-3 1c-1 1 -3 1 -5 1s-4 -1 -4 -2c-1 -1 -2 -1 -4 -1c-1 0 -2 -1 -3 -2z
M255 217c11 3 22 5 33 7l-19 44c-7 20 -14 38 -19 57c-11 31 -18 103 -26 134l-17 -90c-6 -31 -6 -72 -14 -104l-13 -60c25 4 49 7 75 12zM-90 -79c1 -1 2 -1 2 -2zM709 -157l-17 -4c18 -4 33 -9 46 -15l28 -13c12 -7 29 -22 33 -36c2 8 -3 22 -10 29l-26 22
c-9 5 -18 10 -25 12c-7 3 -13 3 -17 4zM702 -235c23 -6 54 -6 77 -1c6 3 11 7 15 10c-5 13 -14 17 -46 37c-24 11 -49 18 -82 14c-19 -2 -39 -6 -60 -12c28 -25 60 -43 96 -48z" />
    <glyph glyph-name="K.ss01" horiz-adv-x="505" 
d="M853 -185c-1 -1 -1 -3 -1 -6c-1 -5 -1 -13 0 -20l1 -17c0 -2 1 -5 3 -8c2 -4 5 -7 8 -11c2 -4 4 -6 4 -5c1 -3 4 -8 4 -12c0 -2 0 -3 -1 -4c-2 -3 -3 -6 -6 -9c-4 -3 -7 -6 -7 -10c0 -3 2 -7 6 -10l7 -1c3 -1 3 -4 3 -8c-1 -5 0 -7 1 -8c-41 -24 -56 -28 -102 -29
c-119 4 -208 67 -273 119c0 0 -1 0 -1 1c-64 -15 -150 -37 -204 -42c-287 -28 -387 60 -389 82l17 -9c10 -4 15 -5 19 -6c2 -1 4 1 6 2s3 4 0 10c-4 8 -10 17 -16 25c-5 6 -11 13 -11 15l-2 11c0 1 1 3 3 3c0 1 5 1 8 -1l29 -11c13 -3 22 -6 25 -7c3 1 4 1 4 6
c0 2 -4 7 -11 14c-8 8 -20 20 -28 32c-1 0 -2 2 -2 3c-1 3 -1 5 2 7c3 3 4 5 3 7v1c48 -42 93 -94 246 -93c62 1 138 14 219 31c-23 26 -43 54 -64 85l-74 113c-28 43 -84 124 -108 168l1 -59c0 -29 0 -40 1 -61c3 -33 4 -65 4 -100c-6 3 -6 12 -15 12
c-15 0 -35 -10 -38 -11c-4 -1 -9 -1 -13 -1s-7 0 -9 1c-7 4 -5 11 -12 14h-4c-12 0 -19 -9 -30 -14c-1 -1 -3 -1 -6 -1l-14 1c-3 0 -6 -1 -10 -2v190c-1 41 -5 82 -5 123v41c-1 35 -1 68 -1 103v164c6 3 13 4 21 4c17 0 35 -6 51 -6l11 -1c6 0 11 2 15 5c4 5 7 14 10 14
c1 0 3 -2 5 -6c1 -2 1 -5 1 -10l-1 -23c0 -4 1 -9 2 -14c4 -11 12 -11 20 -18c0 29 -4 58 5 71c3 -32 5 -61 9 -93v-113l1 -54l51 64c20 25 52 70 79 91c73 70 50 62 78 88c11 -5 29 -13 36 -21l23 -24c7 -5 11 -15 23 -16h11c3 0 4 -1 4 -2c0 -6 -27 -26 -27 -34
c0 -5 2 -8 6 -8s11 6 17 7c0 -8 -134 -127 -168 -164c-13 -13 -24 -27 -35 -41l3 -10l5 -20c3 -12 14 -29 21 -40c8 -11 22 -38 31 -49c50 -87 87 -147 130 -210c19 -29 51 -67 89 -103c103 24 141 31 209 31c41 0 82 -20 110 -52c10 -14 11 -28 11 -47l-1 -1h-4l-3 1
c-1 1 -3 1 -5 1s-4 -1 -4 -2c-1 -1 -2 -1 -4 -1c-1 0 -2 -1 -3 -2zM249 297c5 -3 11 -2 16 -3c-3 8 -2 13 -2 20c-5 -5 -10 -11 -14 -17zM-50 -79c1 -1 2 -1 2 -2zM749 -157l-17 -4c18 -4 33 -9 46 -15l28 -13c12 -7 29 -22 33 -36c2 8 -3 22 -10 29l-26 22
c-9 5 -18 10 -25 12c-7 3 -13 3 -17 4zM742 -235c23 -6 54 -6 77 -1c6 3 11 7 15 10c-5 13 -14 17 -46 37c-24 11 -49 18 -82 14c-20 -2 -42 -7 -65 -13c33 -21 67 -38 101 -47z" />
    <glyph glyph-name="Q.ss01" horiz-adv-x="630" 
d="M858 -185c-1 -1 -1 -3 -1 -6c-1 -5 -1 -13 0 -20l1 -17c0 -2 1 -5 3 -8c2 -4 5 -7 8 -11c2 -4 4 -6 4 -5c1 -3 4 -8 4 -12c0 -2 0 -3 -1 -4c-2 -3 -3 -6 -6 -9c-4 -3 -7 -6 -7 -10c0 -3 2 -7 6 -10l7 -1c3 -1 3 -4 3 -8c-1 -5 0 -7 1 -8c-41 -24 -56 -28 -102 -29
c-101 0 -167 27 -239 127c-64 -13 -175 -43 -239 -49c-287 -28 -387 60 -389 82l17 -9c10 -4 15 -5 19 -6c2 -1 4 1 6 2s3 4 0 10c-4 8 -10 17 -16 25c-5 6 -11 13 -11 15l-2 11c0 1 1 3 3 3c0 1 5 1 8 -1l29 -11c13 -3 22 -6 25 -7c3 1 4 1 4 6c0 2 -4 7 -11 14
c-8 8 -20 20 -28 32c-1 0 -2 2 -2 3c-1 3 -1 5 2 7c3 3 4 5 3 7v1c48 -42 93 -94 246 -93c69 1 156 17 248 37c12 3 23 6 34 8c-24 43 -49 94 -77 154l-7 12c-11 -4 -20 -9 -29 -12c-19 -8 -38 -15 -61 -19c-12 -1 -22 -2 -33 -2h-29c-20 1 -40 5 -60 9c-16 4 -32 9 -48 18
c-17 8 -32 17 -47 29c-14 12 -27 26 -38 41c-12 16 -21 32 -27 49c-7 16 -10 33 -13 49c-4 19 -5 35 -5 51c0 32 5 62 13 93c7 28 17 56 32 84c15 27 30 53 49 77c18 23 40 45 65 65c24 19 51 35 81 48h4c7 -3 12 -7 15 -12c1 -3 2 -9 2 -16l-1 -23c0 -3 1 -8 2 -13l2 -13
c3 -5 5 -7 16 -8c4 0 7 0 14 1h12c3 0 4 -1 4 -3c0 0 -3 -2 -10 -5l-20 -8l-21 -11c-16 -7 -28 -16 -37 -26c-7 -9 -12 -16 -13 -22l-2 -15c9 9 18 17 27 24c8 7 18 13 26 17c5 3 10 6 15 8s9 4 14 2c-12 -5 -33 -19 -43 -28c-21 -17 -41 -38 -58 -63l-6 -11
c-11 -16 -19 -31 -26 -50c-9 -23 -14 -44 -16 -64c-1 -7 -1 -13 -1 -20c0 -13 2 -27 5 -40c3 -8 4 -16 8 -23c3 -7 8 -12 12 -19c5 -5 11 -10 18 -15l25 -10l30 -6l16 -2h15c9 1 17 2 28 5l28 11c-15 24 -26 53 -42 80c17 14 39 15 59 24c7 3 16 5 20 12c3 6 1 12 5 11
c2 0 3 0 4 -1c6 -6 7 -17 14 -22c3 -3 4 -4 7 -4s7 0 12 1c-7 16 -20 25 -12 37l22 -39c9 19 17 39 23 61c4 22 6 43 6 64c-1 23 -5 42 -12 58c-4 7 -6 10 -9 17l-6 7l-6 8l-10 9c-4 3 -7 4 -9 5l-15 3c-7 1 -14 2 -23 2c-11 2 -38 2 -52 2c3 6 11 4 16 5c3 1 6 1 7 3
c2 1 3 3 3 6c0 2 -1 5 -2 9c-3 5 -8 12 -13 17c-3 7 -7 9 -8 10c-1 5 -2 10 -2 13s2 6 6 9c3 3 9 2 16 5c9 3 14 5 15 6s1 3 1 5c0 3 -2 7 -7 12c-7 5 -14 11 -18 18c-2 1 -3 2 -3 5l2 7c1 1 1 3 1 5s0 4 -1 5c13 -3 28 -2 48 -5c11 0 22 -1 33 -3c12 -1 23 -5 38 -9
c15 -5 29 -12 40 -20c13 -8 24 -17 34 -28c4 -4 9 -9 12 -13c5 -7 8 -11 12 -18c8 -11 12 -20 19 -32c11 -23 19 -46 23 -69c5 -23 6 -46 6 -70c0 -23 -3 -45 -8 -68l-1 -5c-5 -19 -10 -38 -17 -57c-13 -37 -31 -70 -54 -100c-3 -4 -9 -12 -13 -15c7 -14 24 -50 43 -92
c20 -40 40 -88 64 -131c67 14 102 19 158 19c41 0 82 -20 110 -52c10 -14 11 -28 11 -47l-1 -1h-4l-3 1c-1 1 -3 1 -5 1s-4 -1 -4 -2c-1 -1 -2 -1 -4 -1c-1 0 -2 -1 -3 -2zM-45 -79c1 -1 2 -1 2 -2zM754 -157l-17 -4c18 -4 33 -9 46 -15l28 -13c12 -7 29 -22 33 -36
c2 8 -3 22 -10 29l-26 22c-9 5 -18 10 -25 12c-7 3 -13 3 -17 4zM747 -235c23 -6 54 -6 77 -1c6 3 11 7 15 10c-5 13 -14 17 -46 37c-24 11 -49 18 -82 14c-15 -2 -32 -5 -49 -9c24 -24 51 -42 85 -51z" />
    <glyph glyph-name="V.ss01" horiz-adv-x="540" 
d="M801 803c2 -18 3 -32 -5 -48c-23 -35 -61 -61 -101 -66c-62 -9 -100 -9 -186 -1c-8 -15 -15 -30 -23 -46c-26 -60 -45 -94 -69 -154l-7 -18c-53 -137 -76 -233 -92 -303c-9 -40 -20 -83 -29 -125c0 -2 -1 -6 -2 -11c-2 -1 -5 -1 -8 -1c-7 0 -11 2 -18 3
c-5 -3 -8 -8 -9 -8c-5 -3 -10 -6 -17 -6l-18 7c-11 -1 -16 -12 -23 -20l-17 -9c-21 57 -39 115 -55 172c-15 49 -29 99 -42 147l-62 241c16 13 39 8 58 13c7 1 17 -1 22 10c3 5 2 15 5 15c1 0 2 -1 4 -4c7 -11 7 -31 14 -42s13 -9 18 -12c-5 25 -19 50 -11 64
c8 -28 19 -53 26 -82c12 -44 26 -88 37 -131c11 -44 21 -86 33 -129l10 37c19 67 31 106 49 158c19 54 27 71 34 85c25 59 51 116 72 160c-3 0 -6 1 -9 1c-146 11 -288 16 -396 -30v2c2 1 1 4 0 7c-3 3 -2 5 0 7c0 2 1 3 2 3c11 9 27 16 37 22c9 4 14 7 14 9c3 5 2 5 -1 7
c-3 0 -13 0 -26 1l-31 -1c-3 -1 -8 0 -8 1c-2 1 -2 3 -2 5l6 9c0 2 8 7 15 11c8 5 16 13 22 19c5 4 5 7 4 9c-2 2 -4 4 -6 4c-3 0 -9 1 -20 1l-19 -5c9 21 121 32 222 32c87 0 181 -12 252 -21c52 70 129 140 230 157c46 6 61 4 105 -14c-1 -1 -1 -3 0 -8c1 -4 1 -7 -2 -8
l-6 -2c-4 -4 -5 -8 -5 -11c1 -4 4 -7 8 -9c4 -3 5 -6 8 -8c1 -1 1 -2 1 -4c1 -4 -2 -9 -2 -12c0 1 -2 -2 -3 -6c-3 -4 -5 -8 -7 -12c-1 -3 -2 -6 -2 -8l2 -17c0 -7 1 -15 3 -20c0 -3 0 -5 1 -6s3 -2 4 -1c2 0 3 0 4 -1c0 -1 2 -2 4 -1c2 0 4 0 5 1l3 2h4zM570 777
c22 -2 43 -3 62 -3c33 0 57 11 79 25c29 24 38 29 41 43c-5 2 -10 6 -16 8c-24 2 -55 -2 -77 -12c-38 -17 -66 -37 -89 -61zM751 812c6 8 9 22 6 30c-2 -15 -17 -32 -28 -40l-26 -17c-12 -8 -26 -15 -43 -22l17 -1l12 3c4 1 10 2 16 6c7 3 15 9 23 15c7 8 15 16 23 26z
M-16 670h-1h1z" />
    <glyph glyph-name="W.ss01" horiz-adv-x="690" 
d="M1013 799c1 -19 1 -33 -8 -47c-26 -34 -65 -57 -106 -60c-61 -4 -98 -7 -179 2c-33 -55 -56 -113 -67 -152c-19 -61 -49 -166 -62 -230c-12 -60 -19 -128 -23 -189c-3 -43 -6 -82 -7 -125c-13 4 -9 19 -20 16s-22 -10 -25 -11c-7 -1 -11 -3 -18 1h-3c-7 1 -11 7 -18 7
c-11 -1 -17 -12 -25 -20c-5 -7 -14 -4 -21 -9c-8 28 -18 57 -27 85l-31 86c-16 44 -35 132 -50 176c-5 -16 -25 -167 -33 -214c-8 -45 -14 -88 -14 -131l5 -40c-13 0 -12 13 -23 8c-9 -3 -19 -12 -22 -13c-7 -3 -12 -5 -20 -2c-4 3 -10 11 -15 12c-12 1 -18 -11 -29 -18
c-7 -5 -13 0 -20 -5c-11 65 -24 129 -41 196l-48 170c-27 95 -46 194 -58 295v1c9 5 19 7 31 6c11 -1 22 -5 33 -2c8 1 17 -4 24 7c4 8 5 24 12 9c2 -6 3 -14 3 -24c3 -9 2 -17 5 -24c5 -12 11 -13 18 -17c-1 15 -6 48 -4 59l2 14c3 -11 4 -32 7 -47c4 -15 7 -30 10 -47
c8 -51 21 -99 36 -150c4 -20 9 -40 14 -60c7 27 14 51 22 78c13 49 26 97 34 145c7 35 10 65 15 100c10 -5 8 -16 19 -15c11 3 24 6 25 6c8 0 15 2 20 -2c4 -4 8 -14 13 -17c11 -3 20 4 31 11c8 4 16 -4 23 -1l-13 -81c3 -3 7 -3 10 -6c-1 12 -1 23 0 33c0 9 2 18 3 29
c5 -10 2 -27 3 -40l8 -41c3 -20 7 -41 12 -64c7 -21 11 -42 18 -65l22 -81c11 56 23 114 38 170c15 57 26 83 33 108c15 47 39 90 65 133c-3 1 -7 1 -10 2c-78 12 -179 22 -376 22c-89 0 -174 -22 -228 -57c1 1 1 1 1 2c1 1 1 3 -1 7c-3 3 -3 5 -2 7c0 1 2 3 3 3
c9 11 22 21 32 28c7 5 13 10 13 12c0 6 -1 6 -4 6l-25 -2l-30 -7c-4 -3 -8 -2 -8 -1c-2 1 -3 3 -3 4l4 10c0 2 6 8 13 14c6 7 14 15 19 23c4 5 3 8 1 10c-2 1 -3 2 -6 2c-4 0 -9 0 -19 -3l-18 -7c5 22 130 53 277 53c245 0 362 -20 429 -29c51 69 134 132 239 143
c46 2 61 -1 103 -22c-1 -1 -1 -3 0 -8c0 -4 0 -7 -3 -9l-6 -1c-4 -3 -6 -7 -6 -10c1 -4 4 -7 8 -10c3 -3 4 -6 7 -8c1 -1 1 -2 1 -4c0 -4 -3 -10 -3 -13c0 1 -2 -1 -4 -5c-3 -4 -5 -7 -7 -11s-3 -7 -3 -9l1 -17c-1 -7 0 -15 1 -20c0 -3 0 -5 1 -5c1 -1 3 -2 4 -2
c2 0 3 0 4 -1c0 -1 2 -2 4 -2s4 1 5 2l3 1h4zM842 781c34 -1 58 7 81 20c31 22 40 27 44 40c-5 3 -10 6 -16 9c-23 3 -54 1 -77 -6c-30 -10 -59 -31 -84 -57c18 -3 36 -5 52 -6zM964 811c6 7 10 22 8 29c-3 -14 -19 -30 -31 -38l-27 -15c-12 -7 -27 -13 -45 -18l18 -3l12 2
c3 1 9 2 16 5s16 8 24 14zM-17 679c0 0 0 -1 -1 -1z" />
    <glyph glyph-name="A.ss02" horiz-adv-x="2043" 
d="M1997 490c4 -15 5 -30 5 -45v-12c-1 -19 -4 -36 -11 -53c-5 -15 -11 -30 -20 -45c-7 -15 -16 -27 -25 -39c-17 -24 -36 -45 -56 -65s-40 -37 -61 -56c-43 -35 -84 -65 -127 -96l-58 -36c-19 -13 -38 -24 -58 -36c-39 -23 -78 -44 -121 -64c-43 -21 -85 -38 -128 -53
c-44 -15 -88 -28 -135 -37c-36 -8 -73 -13 -112 -17c-25 -2 -50 -3 -74 -3c-13 0 -27 0 -40 1c-39 1 -76 4 -113 11c-39 7 -75 14 -111 25l-14 4l-40 13l-53 20c-36 15 -71 31 -104 52c-32 19 -79 55 -85 62c-28 24 -36 34 -55 65l-23 35l-187 -39l-3 -24
c-4 -35 -6 -68 -9 -101c-6 5 -4 13 -11 13l-7 -1c-11 -3 -21 -9 -24 -9c-2 -1 -5 -1 -10 -1c-3 0 -6 1 -8 2c-7 5 -8 12 -13 15l-5 1c-11 0 -43 -11 -45 -15c1 39 5 73 10 108s9 69 16 104c11 60 24 117 35 174l2 12c8 43 16 84 23 125c7 47 11 89 12 136c5 2 10 3 15 3
s8 -1 15 -2c11 -3 20 -5 29 -5l13 -1c5 0 8 2 11 5c5 4 6 16 9 16c1 0 3 -2 4 -6c1 -8 1 -14 1 -25l29 1c8 3 19 0 23 11c3 4 2 15 5 15c2 0 4 -2 5 -6l12 -44c5 -11 12 -11 19 -14c-7 27 -14 53 -9 68c7 -31 17 -56 24 -88c11 -47 21 -92 36 -137l21 -69
c5 -19 11 -37 18 -53l12 -30l34 6c-4 -10 -11 -5 -10 -12c1 -4 2 -7 4 -9c4 -10 11 -20 11 -21c1 -2 1 -5 2 -10c1 -4 1 -7 0 -8c0 -5 -8 -11 -8 -15l1 -3c6 -11 13 -21 20 -31c18 -25 43 -52 62 -71c31 -25 29 -21 67 -42c31 -17 65 -30 100 -42c8 -3 17 -5 26 -8l27 -8
c19 -5 34 -10 53 -13c36 -8 72 -13 109 -16c20 -3 39 -2 59 -2c16 0 33 0 49 1c77 4 152 18 226 42c75 23 145 54 216 93c33 19 65 37 97 57l47 31l46 32c31 23 60 44 87 69c15 12 27 24 39 37c12 12 23 24 34 39c7 9 14 17 19 28c7 9 10 18 14 27c3 9 5 17 6 25l1 11l-1 10
c-3 7 -4 12 -8 19c-5 8 -10 15 -15 20c-7 6 -14 13 -23 20c-7 5 -13 9 -20 13c4 -2 8 -4 11 -5c5 -2 8 -3 11 -3c5 0 8 4 8 11s-2 14 -5 21s-6 12 -6 13c-1 1 -1 2 -1 5c0 2 0 4 1 5c0 3 3 5 8 5c6 0 14 -2 23 -7c9 -3 17 -6 20 -6c3 1 5 3 5 6c-1 3 -2 7 -5 12
c-7 11 -15 21 -22 30c-2 3 -3 5 -3 6c0 2 2 4 5 6c2 2 3 3 3 4s-1 3 -3 6c13 -8 26 -15 38 -24c13 -9 25 -20 37 -31c12 -12 22 -25 33 -41c9 -16 17 -33 22 -52zM1817 529l-8 5zM216 215c25 4 49 7 75 12c11 3 22 5 33 7l-19 44c-7 20 -14 38 -19 57
c-11 31 -18 103 -26 134l-17 -90c-6 -31 -6 -72 -14 -104zM547 76l21 -5c-17 12 -31 24 -44 36l-8 7c-3 -2 -6 -5 -8 -8c-1 -3 -2 -4 -2 -4l10 -9c13 -9 23 -15 31 -17z" />
    <glyph glyph-name="R.ss02" horiz-adv-x="509" 
d="M1290 -237c2 -6 3 -11 3 -14s-1 -4 -1 -5c0 -3 -1 -6 -4 -9l-3 -1c-3 0 -7 2 -12 5l-20 10c-2 1 -5 1 -8 1c-4 0 -7 -1 -8 -2s-3 -1 -6 -1c-1 0 -3 -1 -6 -2c-1 -1 -1 -3 -1 -6c0 -5 2 -10 3 -17l21 6c-10 -3 -16 -6 -17 -11c-1 -1 -1 -2 -1 -3s1 -4 4 -8
c4 -4 9 -7 14 -11s8 -6 8 -5c3 -3 7 -7 7 -11c0 -2 0 -3 -1 -4c-3 -4 -6 -7 -11 -10c-4 -3 -9 -6 -9 -10c0 -3 3 -7 10 -10l21 -6c5 -1 5 -4 6 -8c0 -5 1 -7 4 -8c-29 -11 -60 -18 -91 -23s-62 -8 -92 -9h-27c-51 0 -102 4 -153 11c-51 8 -100 20 -149 35
c-51 15 -97 32 -144 53c-39 19 -74 36 -110 59l-16 10l-19 -3l-19 -2l-20 -4c-52 -9 -105 -18 -158 -29c-225 -43 -447 -84 -680 -103c-56 -4 -109 -7 -165 -8h-38c-43 0 -83 1 -126 4c-56 4 -110 9 -165 20c-56 11 -110 23 -165 40c-37 12 -73 27 -109 44
c-37 17 -71 36 -104 58c-33 23 -62 47 -93 75c-28 25 -54 53 -78 84l22 -25c7 -7 13 -9 16 -12c1 -1 3 -1 5 -1c3 0 4 3 4 10c-1 9 -4 20 -7 29s-6 17 -6 18l2 11c1 1 3 2 4 2s4 -1 7 -3c5 -3 15 -12 24 -19c11 -8 19 -15 22 -16c3 0 5 1 5 4s-2 8 -5 16
c-5 11 -13 27 -17 40c-1 1 -1 3 -1 5s2 4 5 5s5 3 5 5c0 1 0 2 -1 4c40 -52 86 -97 141 -136c55 -37 113 -65 177 -88s128 -37 196 -48s136 -15 205 -16h31c49 0 98 2 147 5c60 3 119 9 179 16c120 15 238 34 357 57l145 27c48 9 97 19 145 27l13 3c-19 19 -37 40 -56 63
c-1 3 -2 4 -5 7c-28 36 -76 130 -99 187c-11 26 -20 52 -28 78l-3 14c-13 -3 -26 -4 -39 -5c-8 -3 -16 -2 -24 -3c1 -31 1 -60 4 -91c3 -32 6 -63 7 -95c0 7 -3 10 -10 10c-11 0 -25 -10 -28 -11c-4 -1 -7 -3 -11 -3c-1 0 -3 1 -6 2c-4 3 -8 11 -15 12c-8 0 -15 -9 -22 -14
l-18 -3c-5 63 -7 125 -10 186l-7 160c-4 85 -4 171 -9 259c5 3 10 4 16 4c13 0 26 -5 38 -5h13l1 10c0 5 -3 9 -8 12c-7 3 -19 3 -19 6c0 1 2 2 7 3c9 3 20 3 31 4c12 0 24 0 32 1c16 3 18 8 25 15h-91c19 3 38 4 58 5c12 1 25 2 38 2l28 -1c17 -1 33 -1 52 -4l54 -10
c19 -5 37 -11 56 -19l27 -17c8 -5 17 -11 27 -20c9 -8 17 -17 24 -27c7 -11 13 -22 17 -34c5 -11 7 -23 10 -34c2 -11 3 -23 3 -35v-9c0 -7 0 -15 -1 -22s-2 -11 -2 -16l-3 -12v-4c-5 -20 -13 -40 -23 -61c-11 -19 -23 -35 -38 -49c-15 -15 -30 -27 -46 -38
c-11 -7 -22 -12 -33 -17c7 -19 13 -38 22 -57c11 -27 20 -52 32 -79c11 -24 23 -49 38 -72c11 -16 20 -31 29 -48l6 -8c25 -29 55 -56 86 -81l22 -15c46 5 92 9 138 12c51 3 101 5 152 5h35c39 0 77 -1 117 -4c25 -3 50 -4 77 -8c25 -3 51 -7 78 -14l39 -12
c15 -5 28 -10 41 -18c15 -7 28 -15 41 -25c7 -5 12 -10 19 -17s11 -14 18 -22zM245 332c15 6 28 14 40 25c21 17 35 37 40 60c1 1 1 2 1 4l2 9c1 1 1 3 1 6c1 7 2 12 2 19c0 11 -2 22 -5 33c-3 8 -7 14 -11 19c-5 5 -12 11 -21 16c-9 6 -19 10 -28 13s-21 7 -35 10
c-27 5 -53 8 -78 8c-13 1 -25 1 -38 1c1 -7 1 -12 1 -19l8 -142c1 -28 2 -58 2 -86c23 1 46 3 69 8c18 4 35 9 50 16zM139 10v-1v1zM-1354 8v0zM1198 -285c7 1 11 1 18 4l-3 6l-12 14c-5 4 -10 9 -17 13c-15 8 -30 14 -45 21c-17 5 -31 9 -44 11c-12 3 -21 3 -29 4h-20
l-30 -4c31 -4 57 -7 80 -14l34 -11c11 -4 20 -8 29 -12c8 -5 16 -9 23 -14c6 -4 11 -9 14 -15c1 -1 2 -2 2 -3zM1170 -291c11 3 18 2 27 5l-2 3c-2 3 -5 6 -9 9c-9 7 -20 13 -32 18c-13 5 -27 10 -40 14l-45 11c-16 3 -32 3 -49 6c-32 4 -66 5 -101 8c-20 1 -41 1 -61 1
c-33 0 -65 -1 -98 -2l-54 -3l20 -8c41 -17 80 -30 123 -41c40 -10 80 -18 120 -24c30 -4 60 -6 90 -6c11 0 19 0 30 1c29 1 54 4 81 8z" />
    <glyph glyph-name="a" unicode="a" horiz-adv-x="493" 
d="M438 113c15 -20 29 -37 45 -53c-2 2 -4 3 -6 3s-3 0 -4 -1s-4 -3 -7 -7s-6 -9 -6 -12c-2 -2 -3 -4 -3 -7c-3 -3 -5 -10 -13 -10l-9 1c-2 0 -3 0 -4 -1c-3 -3 -5 -7 -5 -10c-1 -7 -2 -11 -2 -14c-1 -3 -3 -5 -7 -8c-1 -3 -10 -21 -10 -24c-44 30 -55 61 -70 85
c-6 9 -14 19 -21 28c-3 0 -6 -1 -9 -1c-31 -2 -52 0 -89 -6c-9 0 -18 0 -27 -1l-31 -4l-6 -42c-3 -29 -4 -55 -7 -82c0 7 -3 11 -9 11l-6 -1c-9 -3 -16 -8 -19 -8h-8c-3 0 -5 0 -7 1c-4 4 -6 11 -10 12l-4 1c-7 0 -13 -6 -20 -10c-1 -1 -3 -2 -4 -2l-9 2c-2 0 -3 -1 -4 -2
c-21 31 -18 59 -14 87c5 29 9 57 13 85c9 47 20 93 29 140c1 3 1 6 1 10c7 35 14 68 19 101c7 39 9 71 10 110c4 2 30 3 34 3s7 -1 12 -2c8 -1 16 -4 23 -4l20 1c3 0 6 1 9 4c4 4 6 13 7 13c2 0 3 -2 3 -5c1 -7 1 -12 1 -20l27 1c7 3 15 0 18 9c3 3 1 12 4 12c2 0 3 -2 4 -5
l15 -35c4 -9 14 -4 19 -7c-4 23 -10 39 -3 50c5 -24 13 -44 20 -71c11 -47 14 -73 29 -109l23 -56c6 -15 9 -28 14 -43l12 -28c8 -1 17 -1 26 -2l1 -4c1 -8 1 -16 0 -25c-2 -10 -3 -17 -3 -22c5 -9 11 -18 18 -26zM208 180c25 3 40 5 63 7l-10 28c-34 88 -37 102 -51 156
c-15 -87 -19 -124 -27 -160l-6 -35z" />
    <glyph glyph-name="aacute" unicode="&#xe1;" horiz-adv-x="493" 
d="M334 658c-15 -12 -26 -30 -41 -46c-9 -11 -18 -19 -27 -30c-11 -12 -22 -25 -35 -36c-3 4 -9 6 -13 13s-8 14 -15 19l-12 6c-3 3 -8 7 -11 12c-3 3 -21 25 -27 25c4 7 10 10 17 15c9 8 16 19 23 28l24 32c8 8 18 16 27 27c7 7 15 8 22 15c-4 -5 -6 -10 -11 -17
c4 -3 9 -6 13 -6l10 7c3 0 4 -1 5 -3l1 -6c3 -5 7 -10 13 -15c12 -13 28 -25 37 -40zM438 113c15 -20 29 -37 45 -53c-2 2 -4 3 -6 3s-3 0 -4 -1s-4 -3 -7 -7s-6 -9 -6 -12c-2 -2 -3 -4 -3 -7c-3 -3 -5 -10 -13 -10l-9 1c-2 0 -3 0 -4 -1c-3 -3 -5 -7 -5 -10
c-1 -7 -2 -11 -2 -14c-1 -3 -3 -5 -7 -8c-1 -3 -10 -21 -10 -24c-44 30 -55 61 -70 85c-6 9 -14 19 -21 28c-3 0 -6 -1 -9 -1c-31 -2 -52 0 -89 -6c-9 0 -18 0 -27 -1l-31 -4l-6 -42c-3 -29 -4 -55 -7 -82c0 7 -3 11 -9 11l-6 -1c-9 -3 -16 -8 -19 -8h-8c-3 0 -5 0 -7 1
c-4 4 -6 11 -10 12l-4 1c-7 0 -13 -6 -20 -10c-1 -1 -3 -2 -4 -2l-9 2c-2 0 -3 -1 -4 -2c-21 31 -18 59 -14 87c5 29 9 57 13 85c9 47 20 93 29 140c1 3 1 6 1 10c7 35 14 68 19 101c7 39 9 71 10 110c4 2 30 3 34 3s7 -1 12 -2c8 -1 16 -4 23 -4l20 1c3 0 6 1 9 4
c4 4 6 13 7 13c2 0 3 -2 3 -5c1 -7 1 -12 1 -20l27 1c7 3 15 0 18 9c3 3 1 12 4 12c2 0 3 -2 4 -5l15 -35c4 -9 14 -4 19 -7c-4 23 -10 39 -3 50c5 -24 13 -44 20 -71c11 -47 14 -73 29 -109l23 -56c6 -15 9 -28 14 -43l12 -28c8 -1 17 -1 26 -2l1 -4c1 -8 1 -16 0 -25
c-2 -10 -3 -17 -3 -22c5 -9 11 -18 18 -26zM208 180c25 3 40 5 63 7l-10 28c-34 88 -37 102 -51 156c-15 -87 -19 -124 -27 -160l-6 -35z" />
    <glyph glyph-name="abreve" unicode="&#x103;" horiz-adv-x="493" 
d="M66 618c2 3 4 6 9 11l17 19l12 15c3 3 4 6 6 9c-1 5 -4 9 -2 12c0 0 2 0 5 -1c2 0 4 -2 9 -5l6 -6c2 -3 5 -4 6 -5c14 -3 10 6 -9 34c34 -37 59 -59 100 -59c39 0 59 14 91 55c6 -5 4 -9 10 -15c6 -7 15 -13 17 -15c4 -2 9 -14 13 -16l3 -4c0 -5 1 -10 6 -17
c4 -5 9 -3 15 -9c2 -2 3 -2 6 -4c-61 -54 -111 -78 -163 -78c-53 0 -101 24 -157 79zM438 113c15 -20 29 -37 45 -53c-2 2 -4 3 -6 3s-3 0 -4 -1s-4 -3 -7 -7s-6 -9 -6 -12c-2 -2 -3 -4 -3 -7c-3 -3 -5 -10 -13 -10l-9 1c-2 0 -3 0 -4 -1c-3 -3 -5 -7 -5 -10
c-1 -7 -2 -11 -2 -14c-1 -3 -3 -5 -7 -8c-1 -3 -10 -21 -10 -24c-44 30 -55 61 -70 85c-6 9 -14 19 -21 28c-3 0 -6 -1 -9 -1c-31 -2 -52 0 -89 -6c-9 0 -18 0 -27 -1l-31 -4l-6 -42c-3 -29 -4 -55 -7 -82c0 7 -3 11 -9 11l-6 -1c-9 -3 -16 -8 -19 -8h-8c-3 0 -5 0 -7 1
c-4 4 -6 11 -10 12l-4 1c-7 0 -13 -6 -20 -10c-1 -1 -3 -2 -4 -2l-9 2c-2 0 -3 -1 -4 -2c-21 31 -18 59 -14 87c5 29 9 57 13 85c9 47 20 93 29 140c1 3 1 6 1 10c7 35 14 68 19 101c7 39 9 71 10 110c4 2 30 3 34 3s7 -1 12 -2c8 -1 16 -4 23 -4l20 1c3 0 6 1 9 4
c4 4 6 13 7 13c2 0 3 -2 3 -5c1 -7 1 -12 1 -20l27 1c7 3 15 0 18 9c3 3 1 12 4 12c2 0 3 -2 4 -5l15 -35c4 -9 14 -4 19 -7c-4 23 -10 39 -3 50c5 -24 13 -44 20 -71c11 -47 14 -73 29 -109l23 -56c6 -15 9 -28 14 -43l12 -28c8 -1 17 -1 26 -2l1 -4c1 -8 1 -16 0 -25
c-2 -10 -3 -17 -3 -22c5 -9 11 -18 18 -26zM208 180c25 3 40 5 63 7l-10 28c-34 88 -37 102 -51 156c-15 -87 -19 -124 -27 -160l-6 -35z" />
    <glyph glyph-name="acircumflex" unicode="&#xe2;" horiz-adv-x="493" 
d="M91 656c-12 -8 -26 -18 -37 -14c12 8 28 19 43 26c26 11 47 23 70 35l51 25h17c13 -9 38 -23 52 -30c13 -6 23 -9 35 -16c20 -9 35 -21 52 -27c-2 -16 -12 -32 -18 -47c-3 -7 -5 -13 -6 -18l1 -6c0 -3 -1 -4 -4 -5l-11 3c-3 -2 -6 -7 -9 -9c7 -5 11 -9 16 -12
c-9 4 -17 1 -25 6c-12 6 -23 9 -34 14l-63 29c-60 -22 -90 -37 -110 -48c-8 8 -1 2 -5 9c-2 10 -8 18 -11 27c-4 6 -6 13 -15 17c-4 2 -9 3 -11 3c-1 0 -1 3 -1 4c5 9 17 10 24 18c3 6 -1 10 -1 16zM438 113c15 -20 29 -37 45 -53c-2 2 -4 3 -6 3s-3 0 -4 -1s-4 -3 -7 -7
s-6 -9 -6 -12c-2 -2 -3 -4 -3 -7c-3 -3 -5 -10 -13 -10l-9 1c-2 0 -3 0 -4 -1c-3 -3 -5 -7 -5 -10c-1 -7 -2 -11 -2 -14c-1 -3 -3 -5 -7 -8c-1 -3 -10 -21 -10 -24c-44 30 -55 61 -70 85c-6 9 -14 19 -21 28c-3 0 -6 -1 -9 -1c-31 -2 -52 0 -89 -6c-9 0 -18 0 -27 -1l-31 -4
l-6 -42c-3 -29 -4 -55 -7 -82c0 7 -3 11 -9 11l-6 -1c-9 -3 -16 -8 -19 -8h-8c-3 0 -5 0 -7 1c-4 4 -6 11 -10 12l-4 1c-7 0 -13 -6 -20 -10c-1 -1 -3 -2 -4 -2l-9 2c-2 0 -3 -1 -4 -2c-21 31 -18 59 -14 87c5 29 9 57 13 85c9 47 20 93 29 140c1 3 1 6 1 10
c7 35 14 68 19 101c7 39 9 71 10 110c4 2 30 3 34 3s7 -1 12 -2c8 -1 16 -4 23 -4l20 1c3 0 6 1 9 4c4 4 6 13 7 13c2 0 3 -2 3 -5c1 -7 1 -12 1 -20l27 1c7 3 15 0 18 9c3 3 1 12 4 12c2 0 3 -2 4 -5l15 -35c4 -9 14 -4 19 -7c-4 23 -10 39 -3 50c5 -24 13 -44 20 -71
c11 -47 14 -73 29 -109l23 -56c6 -15 9 -28 14 -43l12 -28c8 -1 17 -1 26 -2l1 -4c1 -8 1 -16 0 -25c-2 -10 -3 -17 -3 -22c5 -9 11 -18 18 -26zM208 180c25 3 40 5 63 7l-10 28c-34 88 -37 102 -51 156c-15 -87 -19 -124 -27 -160l-6 -35z" />
    <glyph glyph-name="adieresis" unicode="&#xe4;" horiz-adv-x="493" 
d="M202 687c-3 -22 -3 -38 -2 -56c1 -17 2 -34 -1 -51c-4 2 -10 -1 -18 1c-8 3 -16 5 -23 4l-14 -4c-5 0 -10 0 -16 2c-4 -1 -32 3 -37 -2c-2 9 1 16 2 24c2 11 -3 24 -1 36c0 19 0 32 1 32c-1 11 4 17 5 27c0 -6 2 -12 4 -20c4 0 11 1 13 4l3 13c1 1 3 1 5 0l6 -4
c5 -1 11 -2 19 -1c18 -2 37 0 54 -5zM244 696c2 -4 3 -9 15 -12l2 12c2 2 3 2 5 1l6 -4c6 -1 11 -2 20 -1c17 -1 36 0 54 -6c-5 -21 -3 -37 -2 -55c0 -16 1 -34 -1 -51l-8 5l-5 10c-3 -9 -22 -9 -29 -10l-14 -3c-4 0 -9 -2 -16 1c-3 -1 -32 3 -36 -1c-3 8 0 15 2 23
c1 12 -4 24 -2 36c0 19 1 32 1 32c0 9 3 14 4 21zM438 113c15 -20 29 -37 45 -53c-2 2 -4 3 -6 3s-3 0 -4 -1s-4 -3 -7 -7s-6 -9 -6 -12c-2 -2 -3 -4 -3 -7c-3 -3 -5 -10 -13 -10l-9 1c-2 0 -3 0 -4 -1c-3 -3 -5 -7 -5 -10c-1 -7 -2 -11 -2 -14c-1 -3 -3 -5 -7 -8
c-1 -3 -10 -21 -10 -24c-44 30 -55 61 -70 85c-6 9 -14 19 -21 28c-3 0 -6 -1 -9 -1c-31 -2 -52 0 -89 -6c-9 0 -18 0 -27 -1l-31 -4l-6 -42c-3 -29 -4 -55 -7 -82c0 7 -3 11 -9 11l-6 -1c-9 -3 -16 -8 -19 -8h-8c-3 0 -5 0 -7 1c-4 4 -6 11 -10 12l-4 1
c-7 0 -13 -6 -20 -10c-1 -1 -3 -2 -4 -2l-9 2c-2 0 -3 -1 -4 -2c-21 31 -18 59 -14 87c5 29 9 57 13 85c9 47 20 93 29 140c1 3 1 6 1 10c7 35 14 68 19 101c7 39 9 71 10 110c4 2 30 3 34 3s7 -1 12 -2c8 -1 16 -4 23 -4l20 1c3 0 6 1 9 4c4 4 6 13 7 13c2 0 3 -2 3 -5
c1 -7 1 -12 1 -20l27 1c7 3 15 0 18 9c3 3 1 12 4 12c2 0 3 -2 4 -5l15 -35c4 -9 14 -4 19 -7c-4 23 -10 39 -3 50c5 -24 13 -44 20 -71c11 -47 14 -73 29 -109l23 -56c6 -15 9 -28 14 -43l12 -28c8 -1 17 -1 26 -2l1 -4c1 -8 1 -16 0 -25c-2 -10 -3 -17 -3 -22
c5 -9 11 -18 18 -26zM208 180c25 3 40 5 63 7l-10 28c-34 88 -37 102 -51 156c-15 -87 -19 -124 -27 -160l-6 -35z" />
    <glyph glyph-name="agrave" unicode="&#xe0;" horiz-adv-x="493" 
d="M144 658c9 15 25 27 37 40c6 5 10 10 13 15l1 6c1 2 2 3 5 3l10 -7c4 0 9 3 13 6c-5 7 -7 12 -11 17c7 -7 15 -8 22 -15c9 -11 19 -19 27 -27l24 -32c7 -9 14 -20 23 -28c7 -5 13 -8 17 -15c-6 0 -24 -22 -27 -25c-3 -5 -8 -9 -11 -12l-12 -6c-7 -5 -11 -12 -15 -19
s-10 -9 -13 -13c-13 11 -24 24 -35 36c-9 11 -18 19 -27 30c-15 16 -26 34 -41 46zM438 113c15 -20 29 -37 45 -53c-2 2 -4 3 -6 3s-3 0 -4 -1s-4 -3 -7 -7s-6 -9 -6 -12c-2 -2 -3 -4 -3 -7c-3 -3 -5 -10 -13 -10l-9 1c-2 0 -3 0 -4 -1c-3 -3 -5 -7 -5 -10
c-1 -7 -2 -11 -2 -14c-1 -3 -3 -5 -7 -8c-1 -3 -10 -21 -10 -24c-44 30 -55 61 -70 85c-6 9 -14 19 -21 28c-3 0 -6 -1 -9 -1c-31 -2 -52 0 -89 -6c-9 0 -18 0 -27 -1l-31 -4l-6 -42c-3 -29 -4 -55 -7 -82c0 7 -3 11 -9 11l-6 -1c-9 -3 -16 -8 -19 -8h-8c-3 0 -5 0 -7 1
c-4 4 -6 11 -10 12l-4 1c-7 0 -13 -6 -20 -10c-1 -1 -3 -2 -4 -2l-9 2c-2 0 -3 -1 -4 -2c-21 31 -18 59 -14 87c5 29 9 57 13 85c9 47 20 93 29 140c1 3 1 6 1 10c7 35 14 68 19 101c7 39 9 71 10 110c4 2 30 3 34 3s7 -1 12 -2c8 -1 16 -4 23 -4l20 1c3 0 6 1 9 4
c4 4 6 13 7 13c2 0 3 -2 3 -5c1 -7 1 -12 1 -20l27 1c7 3 15 0 18 9c3 3 1 12 4 12c2 0 3 -2 4 -5l15 -35c4 -9 14 -4 19 -7c-4 23 -10 39 -3 50c5 -24 13 -44 20 -71c11 -47 14 -73 29 -109l23 -56c6 -15 9 -28 14 -43l12 -28c8 -1 17 -1 26 -2l1 -4c1 -8 1 -16 0 -25
c-2 -10 -3 -17 -3 -22c5 -9 11 -18 18 -26zM208 180c25 3 40 5 63 7l-10 28c-34 88 -37 102 -51 156c-15 -87 -19 -124 -27 -160l-6 -35z" />
    <glyph glyph-name="amacron" unicode="&#x101;" horiz-adv-x="493" 
d="M70 584c0 3 -1 7 0 13l1 29l-1 12c0 4 0 7 -1 14c-4 3 -8 4 -8 7l3 3c2 0 6 1 10 1h8c2 -2 5 -1 7 -1c6 3 6 9 10 13c-14 0 -23 2 -37 6l49 3c38 -8 74 -5 111 -7l143 -1c1 -6 -2 -8 -2 -14c-1 -9 2 -24 2 -26c1 -3 0 -6 1 -10v-5c-2 -4 -5 -6 -7 -14c1 -7 6 -8 6 -15
c0 -10 0 -11 1 -14h-115c-32 2 -61 6 -95 6h-86zM438 113c15 -20 29 -37 45 -53c-2 2 -4 3 -6 3s-3 0 -4 -1s-4 -3 -7 -7s-6 -9 -6 -12c-2 -2 -3 -4 -3 -7c-3 -3 -5 -10 -13 -10l-9 1c-2 0 -3 0 -4 -1c-3 -3 -5 -7 -5 -10c-1 -7 -2 -11 -2 -14c-1 -3 -3 -5 -7 -8
c-1 -3 -10 -21 -10 -24c-44 30 -55 61 -70 85c-6 9 -14 19 -21 28c-3 0 -6 -1 -9 -1c-31 -2 -52 0 -89 -6c-9 0 -18 0 -27 -1l-31 -4l-6 -42c-3 -29 -4 -55 -7 -82c0 7 -3 11 -9 11l-6 -1c-9 -3 -16 -8 -19 -8h-8c-3 0 -5 0 -7 1c-4 4 -6 11 -10 12l-4 1
c-7 0 -13 -6 -20 -10c-1 -1 -3 -2 -4 -2l-9 2c-2 0 -3 -1 -4 -2c-21 31 -18 59 -14 87c5 29 9 57 13 85c9 47 20 93 29 140c1 3 1 6 1 10c7 35 14 68 19 101c7 39 9 71 10 110c4 2 30 3 34 3s7 -1 12 -2c8 -1 16 -4 23 -4l20 1c3 0 6 1 9 4c4 4 6 13 7 13c2 0 3 -2 3 -5
c1 -7 1 -12 1 -20l27 1c7 3 15 0 18 9c3 3 1 12 4 12c2 0 3 -2 4 -5l15 -35c4 -9 14 -4 19 -7c-4 23 -10 39 -3 50c5 -24 13 -44 20 -71c11 -47 14 -73 29 -109l23 -56c6 -15 9 -28 14 -43l12 -28c8 -1 17 -1 26 -2l1 -4c1 -8 1 -16 0 -25c-2 -10 -3 -17 -3 -22
c5 -9 11 -18 18 -26zM208 180c25 3 40 5 63 7l-10 28c-34 88 -37 102 -51 156c-15 -87 -19 -124 -27 -160l-6 -35z" />
    <glyph glyph-name="aogonek" unicode="&#x105;" horiz-adv-x="482" 
d="M465 -188c3 -3 3 -6 7 -7c-46 -33 -87 -54 -136 -55c-80 0 -117 57 -122 102c-2 18 6 60 17 77c17 27 41 52 68 83l26 29l-8 14c-6 9 -14 19 -21 28c-3 0 -6 -1 -9 -1c-31 -2 -52 0 -89 -6c-9 0 -18 0 -27 -1l-31 -4l-6 -42c-3 -29 -4 -55 -7 -82c0 7 -3 11 -9 11l-6 -1
c-9 -3 -16 -8 -19 -8h-8c-3 0 -5 0 -7 1c-4 4 -6 11 -10 12l-4 1c-7 0 -13 -6 -20 -10c-1 -1 -3 -2 -4 -2l-9 2c-2 0 -3 -1 -4 -2c-21 31 -18 59 -14 87c5 29 9 57 13 85c9 47 20 93 29 140c1 3 1 6 1 10c7 35 14 68 19 101c7 39 9 71 10 110c4 2 30 3 34 3s7 -1 12 -2
c8 -1 16 -4 23 -4l20 1c3 0 6 1 9 4c4 4 6 13 7 13c2 0 3 -2 3 -5c1 -7 1 -12 1 -20l27 1c7 3 15 0 18 9c3 3 1 12 4 12c2 0 3 -2 4 -5l15 -35c4 -9 14 -4 19 -7c-4 23 -10 39 -3 50c5 -24 13 -44 20 -71c11 -47 14 -73 29 -109l23 -56c6 -15 9 -28 14 -43l12 -28
c8 -1 17 -1 26 -2l1 -4c1 -8 1 -16 0 -25c-2 -10 -3 -17 -3 -22c5 -9 11 -18 18 -26c15 -20 29 -37 45 -53c-2 2 -4 3 -6 3s-3 0 -4 -1s-4 -3 -7 -7s-6 -9 -6 -12c-12 -11 -82 -88 -97 -109c-14 -20 -26 -39 -26 -59c0 -16 8 -31 26 -31c19 0 38 11 70 33l9 -3l8 -12
c-3 -2 16 -29 23 -30c5 -1 9 -16 12 -20zM188 180c25 3 40 5 63 7l-10 28c-34 88 -37 102 -51 156c-15 -87 -19 -124 -27 -160l-6 -35z" />
    <glyph glyph-name="aring" unicode="&#xe5;" horiz-adv-x="493" 
d="M438 113c15 -20 29 -37 45 -53c-2 2 -4 3 -6 3s-3 0 -4 -1s-4 -3 -7 -7s-6 -9 -6 -12c-2 -2 -3 -4 -3 -7c-3 -3 -5 -10 -13 -10l-9 1c-2 0 -3 0 -4 -1c-3 -3 -5 -7 -5 -10c-1 -7 -2 -11 -2 -14c-1 -3 -3 -5 -7 -8c-1 -3 -10 -21 -10 -24c-44 30 -55 61 -70 85
c-6 9 -14 19 -21 28c-3 0 -6 -1 -9 -1c-31 -2 -52 0 -89 -6c-9 0 -18 0 -27 -1l-31 -4l-6 -42c-3 -29 -4 -55 -7 -82c0 7 -3 11 -9 11l-6 -1c-9 -3 -16 -8 -19 -8h-8c-3 0 -5 0 -7 1c-4 4 -6 11 -10 12l-4 1c-7 0 -13 -6 -20 -10c-1 -1 -3 -2 -4 -2l-9 2c-2 0 -3 -1 -4 -2
c-21 31 -18 59 -14 87c5 29 9 57 13 85c9 47 20 93 29 140c1 3 1 6 1 10c7 35 14 68 19 101c5 27 7 51 9 76c-23 28 -27 69 -23 97c4 44 26 70 33 80c17 20 49 36 74 47h7l27 5c10 1 18 1 24 1c9 0 12 2 17 2l10 -3l15 -8l5 -6c2 -2 5 -4 8 -8l13 -15c10 -19 20 -35 25 -59
c3 -11 -2 -49 -2 -53c-3 -29 -13 -53 -28 -72l9 -30c11 -47 14 -73 29 -109l23 -56c6 -15 9 -28 14 -43l12 -28c8 -1 17 -1 26 -2l1 -4c1 -8 1 -16 0 -25c-2 -10 -3 -17 -3 -22c5 -9 11 -18 18 -26zM213 589c-24 0 -44 -21 -44 -47s5 -46 44 -46c23 0 48 21 43 58
c-5 35 -20 35 -43 35zM208 180c25 3 40 5 63 7l-10 28c-34 88 -37 102 -51 156c-15 -87 -19 -124 -27 -160l-6 -35z" />
    <glyph glyph-name="atilde" unicode="&#xe3;" horiz-adv-x="493" 
d="M109 716c18 -19 42 -33 66 -33c36 0 62 32 107 32c42 0 91 -29 106 -48c-3 -3 -4 -3 -5 -7c-5 -5 -10 -4 -14 -9c-4 -7 -3 -12 -3 -17l-3 -5c-4 -3 -7 -16 -10 -19c-2 -1 -10 -8 -16 -16c-4 -8 -2 -10 -6 -17c-19 17 -35 33 -70 33c-37 0 -53 -32 -99 -32
c-41 0 -90 23 -109 51c2 3 3 7 8 13l14 21l12 24c2 5 2 8 4 11c-1 5 -5 8 -4 11c0 0 3 0 5 1c2 -1 6 -2 10 -5l7 -4c2 -3 5 -4 7 -5l-9 19zM438 113c15 -20 29 -37 45 -53c-2 2 -4 3 -6 3s-3 0 -4 -1s-4 -3 -7 -7s-6 -9 -6 -12c-2 -2 -3 -4 -3 -7c-3 -3 -5 -10 -13 -10l-9 1
c-2 0 -3 0 -4 -1c-3 -3 -5 -7 -5 -10c-1 -7 -2 -11 -2 -14c-1 -3 -3 -5 -7 -8c-1 -3 -10 -21 -10 -24c-44 30 -55 61 -70 85c-6 9 -14 19 -21 28c-3 0 -6 -1 -9 -1c-31 -2 -52 0 -89 -6c-9 0 -18 0 -27 -1l-31 -4l-6 -42c-3 -29 -4 -55 -7 -82c0 7 -3 11 -9 11l-6 -1
c-9 -3 -16 -8 -19 -8h-8c-3 0 -5 0 -7 1c-4 4 -6 11 -10 12l-4 1c-7 0 -13 -6 -20 -10c-1 -1 -3 -2 -4 -2l-9 2c-2 0 -3 -1 -4 -2c-21 31 -18 59 -14 87c5 29 9 57 13 85c9 47 20 93 29 140c1 3 1 6 1 10c7 35 14 68 19 101c7 39 9 71 10 110c4 2 30 3 34 3s7 -1 12 -2
c8 -1 16 -4 23 -4l20 1c3 0 6 1 9 4c4 4 6 13 7 13c2 0 3 -2 3 -5c1 -7 1 -12 1 -20l27 1c7 3 15 0 18 9c3 3 1 12 4 12c2 0 3 -2 4 -5l15 -35c4 -9 14 -4 19 -7c-4 23 -10 39 -3 50c5 -24 13 -44 20 -71c11 -47 14 -73 29 -109l23 -56c6 -15 9 -28 14 -43l12 -28
c8 -1 17 -1 26 -2l1 -4c1 -8 1 -16 0 -25c-2 -10 -3 -17 -3 -22c5 -9 11 -18 18 -26zM208 180c25 3 40 5 63 7l-10 28c-34 88 -37 102 -51 156c-15 -87 -19 -124 -27 -160l-6 -35z" />
    <glyph glyph-name="ae" unicode="&#xe6;" horiz-adv-x="651" 
d="M546 109c25 -7 49 -12 74 -19v-4c0 -9 -1 -17 -4 -25c-4 -11 -8 -19 -11 -30c-1 -5 -4 -11 -4 -18l1 -5c3 -4 6 -6 6 -9c0 -1 -1 -2 -4 -3c-1 -1 -2 -1 -4 -1c-7 0 -13 5 -20 5c-7 -3 -9 -8 -14 -12c15 -5 36 -7 35 -16c-16 4 -31 4 -48 9c-79 14 -137 23 -152 23h-9
l-10 -2l-8 -2c-11 -3 -19 -9 -22 -9c-3 -1 -7 -3 -10 -3c-1 0 -3 1 -6 2l-17 14c-9 0 -15 -8 -23 -15c-3 -1 -5 -2 -6 -2l-8 1c-2 0 -4 0 -5 -1c-1 36 -2 72 -2 108v6c-41 -4 -93 -8 -109 -5c-18 -38 -41 -95 -60 -150c1 7 -1 12 -6 13h-7c-9 -1 -17 -4 -20 -3l-8 1
c-3 1 -5 1 -6 3c-3 4 -4 12 -8 13l-3 2c-7 2 -14 -3 -22 -5c-1 -1 -3 -2 -4 -2l-5 3c-14 35 -5 62 4 88c11 28 21 54 31 81c18 44 48 84 57 131c2 2 3 5 3 9c14 33 28 64 40 95c15 37 24 68 35 109c4 2 22 3 26 3s7 -1 12 -2c8 -1 16 -4 23 -4l20 1c3 0 6 1 9 4
c4 4 4 8 9 12c5 3 11 4 18 4l9 -1c9 -1 16 -3 24 -3h4l11 -1c4 0 7 2 10 6c4 5 4 15 7 15c1 0 3 -2 4 -6c3 -7 3 -17 3 -26h57c33 0 69 -3 97 -7c23 -4 44 -7 67 -12v-5c0 -8 -1 -16 -3 -24c-3 -11 -4 -20 -7 -29c-1 -7 -2 -12 -2 -17c0 -3 0 -6 1 -8c1 -3 5 -5 5 -8
c0 -1 -1 -2 -3 -3c-1 -1 -3 -1 -6 -1l-15 1c-7 -1 -7 -8 -10 -13c12 -3 28 -1 30 -10l-41 2c-25 3 -78 10 -117 10c-9 1 -18 2 -27 2l-4 -60l14 1l90 4c15 3 28 4 40 5c-2 0 -3 -3 -3 -8c0 -12 6 -32 6 -35c1 -4 1 -9 1 -13v-5c-1 -7 -5 -9 -5 -18s4 -17 7 -25l1 -20
l-108 -9c-16 -3 -34 -4 -51 -5l-1 -18l-1 -32c23 0 94 -8 158 -17zM279 222c-5 48 9 97 9 143c-24 -31 -58 -110 -75 -149c9 1 55 6 66 6zM542 314v0z" />
    <glyph glyph-name="b" unicode="b" horiz-adv-x="517" 
d="M481 182c6 -14 7 -37 4 -60l-4 -14c0 -9 -2 -12 -2 -9c-2 -6 -6 -14 -10 -21c-5 -7 -9 -15 -15 -22s-13 -13 -19 -18c-9 -6 -16 -10 -24 -15c-16 -10 -33 -16 -47 -19c-18 -5 -33 -6 -48 -8c-15 -3 -31 -3 -44 -5h-185c5 0 9 1 11 3c1 2 2 3 2 4s-1 3 -2 5
c-2 6 -10 13 -10 15s-2 5 -2 7l-2 1c-3 -3 -3 -3 -7 -5c-2 -2 -3 -2 -5 -2c-3 0 -5 1 -8 1c-1 0 -2 0 -3 -1c-1 47 -1 92 -1 141v36c0 28 0 58 1 87c2 65 8 126 18 194c2 1 4 1 8 1c5 0 10 -1 15 -2c7 -3 6 -2 13 -3l41 3c0 1 0 1 -1 2h-1c-3 2 -38 3 -38 5c0 1 2 2 33 3
c5 1 11 2 16 2c1 1 1 2 3 2s2 -1 2 -2h13c10 2 10 6 16 9c-19 1 -70 -3 -83 3l64 2c8 0 16 -2 35 -2h11c21 -1 40 -3 61 -6c10 -2 22 -3 33 -6l33 -11c6 -5 9 -7 18 -10c2 -3 6 -4 8 -7c1 0 3 -1 5 -4c2 0 4 -2 5 -3c6 -6 11 -12 16 -20c4 -8 12 -22 13 -29
c1 -1 1 -25 1 -28c0 -5 -1 -10 -2 -16c-1 -3 -1 -8 -4 -11l-1 -6l-16 -20c-2 -5 -8 -8 -12 -12c-7 -9 -15 -14 -25 -20c-3 -2 -3 -3 -6 -4c39 0 47 -17 70 -31c12 -10 25 -22 34 -33c10 -15 21 -28 24 -41zM192 391c-3 -27 -7 -51 -8 -79l34 10c9 4 46 16 56 20
c16 6 29 13 34 24c-4 4 -28 14 -34 17c-6 2 -12 3 -20 5c-13 4 -28 6 -44 9h-18v-6zM350 120c15 12 18 26 6 43c-23 31 -23 55 -99 50c-1 2 -2 5 -2 7c-13 -6 -27 -9 -39 -12c0 9 10 7 4 13c-5 7 -12 13 -12 13c-3 4 -5 7 -5 11c1 4 5 8 5 12c0 2 -2 25 -25 28
c-3 -41 -3 -122 -3 -123c0 -7 1 -14 2 -21v-50h22c18 0 35 0 50 1c16 1 32 3 45 6c11 1 21 4 31 8c8 3 15 8 20 14z" />
    <glyph glyph-name="c" unicode="c" horiz-adv-x="482" 
d="M432 450c0 -9 -6 -16 -13 -21c-8 -7 -18 -14 -22 -22l-9 -8c-1 -1 -1 -3 -1 -6c0 -4 1 -8 4 -11l16 -15c1 -1 1 -2 1 -4c-2 0 -5 1 -10 3c-11 3 -24 11 -37 18c-13 8 -26 14 -37 17c-6 2 -11 3 -15 3c-3 0 -4 -1 -5 -1c-7 -1 -9 -3 -13 -4c9 -3 22 -14 31 -14l28 -12
c15 -11 51 -20 43 -32c-22 14 -45 26 -69 35c-13 5 -23 8 -35 13c-16 6 -26 5 -43 5c-7 0 -11 0 -14 -1c-7 -1 -12 -3 -17 -6c-7 -3 -11 -6 -15 -10c-5 -4 -10 -9 -13 -14c-6 -6 -10 -13 -13 -19c-21 -43 -28 -131 -12 -179c11 -34 32 -47 76 -54c36 -6 80 1 159 52
c-1 -12 -11 -14 -11 -19c0 -3 -1 -5 4 -9c4 -3 12 -5 16 -6c13 -5 18 -5 18 -14c-3 -3 -5 -9 -9 -14c-3 -5 -5 -8 -5 -11c1 -4 5 -7 14 -9c7 -1 15 -1 22 -1c5 -1 5 -4 8 -8c3 -3 4 -6 8 -7c-48 -34 -106 -61 -152 -70c-16 -3 -35 -4 -54 -4c-20 0 -38 1 -59 5
c-19 5 -40 12 -57 23c-16 8 -30 20 -45 32c-38 41 -65 115 -65 197c0 33 10 98 18 122c11 26 28 53 40 70c10 11 21 21 32 29c13 9 25 17 40 24c13 7 28 9 41 12c15 4 29 5 44 5c48 0 81 -4 124 -21c19 -9 40 -19 60 -31z" />
    <glyph glyph-name="cacute" unicode="&#x107;" horiz-adv-x="482" 
d="M368 658c-15 -12 -26 -30 -41 -46c-9 -11 -18 -19 -27 -30c-11 -12 -22 -25 -35 -36c-3 4 -9 6 -13 13s-8 14 -15 19l-12 6c-3 3 -8 7 -11 12c-3 3 -21 25 -27 25c4 7 10 10 17 15c9 8 16 19 23 28l24 32c8 8 18 16 27 27c7 7 15 8 22 15c-4 -5 -6 -10 -11 -17
c4 -3 9 -6 13 -6l10 7c3 0 4 -1 5 -3l1 -6c3 -5 7 -10 13 -15c12 -13 28 -25 37 -40zM432 450c0 -9 -6 -16 -13 -21c-8 -7 -18 -14 -22 -22l-9 -8c-1 -1 -1 -3 -1 -6c0 -4 1 -8 4 -11l16 -15c1 -1 1 -2 1 -4c-2 0 -5 1 -10 3c-11 3 -24 11 -37 18c-13 8 -26 14 -37 17
c-6 2 -11 3 -15 3c-3 0 -4 -1 -5 -1c-7 -1 -9 -3 -13 -4c9 -3 22 -14 31 -14l28 -12c15 -11 51 -20 43 -32c-22 14 -45 26 -69 35c-13 5 -23 8 -35 13c-16 6 -26 5 -43 5c-7 0 -11 0 -14 -1c-7 -1 -12 -3 -17 -6c-7 -3 -11 -6 -15 -10c-5 -4 -10 -9 -13 -14
c-6 -6 -10 -13 -13 -19c-21 -43 -28 -131 -12 -179c11 -34 32 -47 76 -54c36 -6 80 1 159 52c-1 -12 -11 -14 -11 -19c0 -3 -1 -5 4 -9c4 -3 12 -5 16 -6c13 -5 18 -5 18 -14c-3 -3 -5 -9 -9 -14c-3 -5 -5 -8 -5 -11c1 -4 5 -7 14 -9c7 -1 15 -1 22 -1c5 -1 5 -4 8 -8
c3 -3 4 -6 8 -7c-48 -34 -106 -61 -152 -70c-16 -3 -35 -4 -54 -4c-20 0 -38 1 -59 5c-19 5 -40 12 -57 23c-16 8 -30 20 -45 32c-38 41 -65 115 -65 197c0 33 10 98 18 122c11 26 28 53 40 70c10 11 21 21 32 29c13 9 25 17 40 24c13 7 28 9 41 12c15 4 29 5 44 5
c48 0 81 -4 124 -21c19 -9 40 -19 60 -31z" />
    <glyph glyph-name="ccaron" unicode="&#x10d;" horiz-adv-x="482" 
d="M385 625c12 8 26 18 37 14c-12 -8 -28 -19 -43 -26c-26 -11 -47 -23 -70 -35l-51 -25h-17c-13 9 -38 23 -52 30c-13 6 -23 9 -35 16c-20 9 -35 21 -52 27c2 16 12 32 18 47c3 7 5 13 6 18l-1 6c0 3 1 4 4 5l11 -3c3 2 6 7 9 9c-7 5 -11 9 -16 12c9 -4 17 -1 25 -6
c12 -6 23 -9 34 -14l63 -29c60 22 90 37 110 48c8 -8 1 -2 5 -9c2 -10 8 -18 11 -27c4 -6 6 -13 15 -17c4 -2 9 -3 11 -3c1 0 1 -3 1 -4c-5 -9 -17 -10 -24 -18c-3 -6 1 -10 1 -16zM432 450c0 -9 -6 -16 -13 -21c-8 -7 -18 -14 -22 -22l-9 -8c-1 -1 -1 -3 -1 -6
c0 -4 1 -8 4 -11l16 -15c1 -1 1 -2 1 -4c-2 0 -5 1 -10 3c-11 3 -24 11 -37 18c-13 8 -26 14 -37 17c-6 2 -11 3 -15 3c-3 0 -4 -1 -5 -1c-7 -1 -9 -3 -13 -4c9 -3 22 -14 31 -14l28 -12c15 -11 51 -20 43 -32c-22 14 -45 26 -69 35c-13 5 -23 8 -35 13c-16 6 -26 5 -43 5
c-7 0 -11 0 -14 -1c-7 -1 -12 -3 -17 -6c-7 -3 -11 -6 -15 -10c-5 -4 -10 -9 -13 -14c-6 -6 -10 -13 -13 -19c-21 -43 -28 -131 -12 -179c11 -34 32 -47 76 -54c36 -6 80 1 159 52c-1 -12 -11 -14 -11 -19c0 -3 -1 -5 4 -9c4 -3 12 -5 16 -6c13 -5 18 -5 18 -14
c-3 -3 -5 -9 -9 -14c-3 -5 -5 -8 -5 -11c1 -4 5 -7 14 -9c7 -1 15 -1 22 -1c5 -1 5 -4 8 -8c3 -3 4 -6 8 -7c-48 -34 -106 -61 -152 -70c-16 -3 -35 -4 -54 -4c-20 0 -38 1 -59 5c-19 5 -40 12 -57 23c-16 8 -30 20 -45 32c-38 41 -65 115 -65 197c0 33 10 98 18 122
c11 26 28 53 40 70c10 11 21 21 32 29c13 9 25 17 40 24c13 7 28 9 41 12c15 4 29 5 44 5c48 0 81 -4 124 -21c19 -9 40 -19 60 -31z" />
    <glyph glyph-name="ccedilla" unicode="&#xe7;" horiz-adv-x="482" 
d="M348 -74c11 -17 20 -35 21 -60c1 -28 -5 -47 -10 -57c-14 -50 -75 -59 -114 -59c-49 1 -91 23 -138 56c4 1 5 4 8 7c3 4 3 7 8 8c7 0 22 28 19 31l8 11l10 3c28 -20 51 -34 83 -34c23 0 33 11 37 30c4 21 -18 49 -58 23c-4 2 -8 6 -15 14c-3 3 -8 7 -11 12
c-3 3 -21 25 -27 25l32 54l3 5c-2 0 -5 1 -7 1c-19 5 -40 12 -57 23c-16 8 -30 20 -45 32c-38 41 -65 115 -65 197c0 33 10 98 18 122c11 26 28 53 40 70c10 11 21 21 32 29c13 9 25 17 40 24c13 7 28 9 41 12c15 4 29 5 44 5c48 0 81 -4 124 -21c19 -9 40 -19 60 -31l3 -8
c0 -9 -6 -16 -13 -21c-8 -7 -18 -14 -22 -22l-9 -8c-1 -1 -1 -3 -1 -6c0 -4 1 -8 4 -11l16 -15c1 -1 1 -2 1 -4c-2 0 -5 1 -10 3c-11 3 -24 11 -37 18c-13 8 -26 14 -37 17c-6 2 -11 3 -15 3c-3 0 -4 -1 -5 -1c-7 -1 -9 -3 -13 -4c9 -3 22 -14 31 -14l28 -12
c15 -11 51 -20 43 -32c-22 14 -45 26 -69 35c-13 5 -23 8 -35 13c-16 6 -26 5 -43 5c-7 0 -11 0 -14 -1c-7 -1 -12 -3 -17 -6c-7 -3 -11 -6 -15 -10c-5 -4 -10 -9 -13 -14c-6 -6 -10 -13 -13 -19c-21 -43 -28 -131 -12 -179c11 -34 32 -47 76 -54c36 -6 80 1 159 52
c-1 -12 -11 -14 -11 -19c0 -3 -1 -5 4 -9c4 -3 12 -5 16 -6c13 -5 18 -5 18 -14c-3 -3 -5 -9 -9 -14c-3 -5 -5 -8 -5 -11c1 -4 5 -7 14 -9c7 -1 15 -1 22 -1c5 -1 5 -4 8 -8c3 -3 4 -6 8 -7c-48 -34 -106 -61 -152 -70l-23 -3c-5 -8 -12 -18 -20 -29c17 3 35 -2 50 -10
c14 -8 25 -11 31 -27z" />
    <glyph glyph-name="cdotaccent" unicode="&#x10b;" horiz-adv-x="482" 
d="M307 689c-5 -22 -3 -40 -2 -58c0 -18 1 -36 -1 -53c-5 1 -12 -2 -20 0c-8 3 -16 5 -24 4l-14 -3c-5 0 -11 -1 -18 1c-3 -1 -33 3 -38 -1c-2 9 0 16 2 24c2 13 -3 25 -2 38c0 20 1 34 1 34c0 11 5 17 6 28c0 -6 2 -12 4 -21c5 0 11 1 15 4l2 13c2 2 3 2 6 1l5 -4
c6 -2 12 -3 21 -2c19 -1 39 0 57 -5zM432 450c0 -9 -6 -16 -13 -21c-8 -7 -18 -14 -22 -22l-9 -8c-1 -1 -1 -3 -1 -6c0 -4 1 -8 4 -11l16 -15c1 -1 1 -2 1 -4c-2 0 -5 1 -10 3c-11 3 -24 11 -37 18c-13 8 -26 14 -37 17c-6 2 -11 3 -15 3c-3 0 -4 -1 -5 -1
c-7 -1 -9 -3 -13 -4c9 -3 22 -14 31 -14l28 -12c15 -11 51 -20 43 -32c-22 14 -45 26 -69 35c-13 5 -23 8 -35 13c-16 6 -26 5 -43 5c-7 0 -11 0 -14 -1c-7 -1 -12 -3 -17 -6c-7 -3 -11 -6 -15 -10c-5 -4 -10 -9 -13 -14c-6 -6 -10 -13 -13 -19c-21 -43 -28 -131 -12 -179
c11 -34 32 -47 76 -54c36 -6 80 1 159 52c-1 -12 -11 -14 -11 -19c0 -3 -1 -5 4 -9c4 -3 12 -5 16 -6c13 -5 18 -5 18 -14c-3 -3 -5 -9 -9 -14c-3 -5 -5 -8 -5 -11c1 -4 5 -7 14 -9c7 -1 15 -1 22 -1c5 -1 5 -4 8 -8c3 -3 4 -6 8 -7c-48 -34 -106 -61 -152 -70
c-16 -3 -35 -4 -54 -4c-20 0 -38 1 -59 5c-19 5 -40 12 -57 23c-16 8 -30 20 -45 32c-38 41 -65 115 -65 197c0 33 10 98 18 122c11 26 28 53 40 70c10 11 21 21 32 29c13 9 25 17 40 24c13 7 28 9 41 12c15 4 29 5 44 5c48 0 81 -4 124 -21c19 -9 40 -19 60 -31z" />
    <glyph glyph-name="d" unicode="d" horiz-adv-x="516" 
d="M120 27c-3 -3 -7 -6 -10 -8l-23 -3c-7 60 -14 119 -19 180l-18 277c7 3 11 4 18 4l49 -2l13 1c1 3 2 5 2 7c-1 3 -3 7 -11 10c-7 4 -27 4 -27 7l11 3l12 2c11 1 22 0 41 1h31l8 1c13 1 21 3 24 5c7 1 8 4 15 7c-31 4 -50 4 -73 5c-12 1 -22 1 -22 2s6 1 46 4
c185 0 279 -97 298 -250c2 -15 1 -28 0 -40c0 -25 -4 -52 -11 -79c-3 -15 -5 -25 -12 -40l-2 -3c-7 -11 -10 -22 -21 -33c-9 -15 -17 -24 -28 -36c-11 -9 -23 -19 -36 -26c-12 -8 -27 -14 -39 -22l-119 -25l-96 -8c12 11 25 7 25 15c0 3 -2 4 -3 7c-5 8 -15 19 -18 22
s-5 6 -5 9v6zM338 315c-7 13 -15 43 -26 59c-22 32 -72 36 -120 36c-3 0 -5 0 -5 -1l16 -220c3 -23 3 -45 6 -68l3 -24c45 7 85 20 106 36c5 4 10 13 13 17c3 7 8 13 11 22c3 15 8 32 9 53c0 8 -1 18 -2 29l-3 32z" />
    <glyph glyph-name="eth" unicode="&#xf0;" horiz-adv-x="575" 
d="M544 280c2 -15 1 -28 0 -40c0 -25 -4 -52 -11 -79c-3 -15 -5 -25 -12 -40l-2 -3c-7 -11 -10 -22 -21 -33c-9 -15 -17 -24 -28 -36c-11 -9 -23 -19 -36 -26c-12 -8 -27 -14 -39 -22l-119 -25l-96 -8c12 11 25 7 25 15c0 3 -2 4 -3 7c-5 8 -15 19 -18 22s-5 6 -5 9v6
c-3 -3 -7 -6 -10 -8l-23 -3c-7 60 -14 119 -19 180l-63 -7l-26 -2c-4 4 -2 29 -3 41l-1 11c0 4 -1 6 -5 9s-10 3 -10 6c0 1 1 2 3 3c4 2 8 3 11 4h15l6 2c9 4 9 10 12 15c-20 -2 -31 0 -50 3l105 11l-12 181c7 3 11 4 18 4l49 -2l13 1c1 3 2 5 2 7c-1 3 -3 7 -11 10
c-7 4 -27 4 -27 7l11 3l12 2c11 1 22 0 41 1h31l8 1c13 1 21 3 24 5c7 1 8 4 15 7c-31 4 -50 4 -73 5c-12 1 -22 1 -22 2s6 1 46 4c185 0 279 -97 298 -250zM401 172c3 15 8 32 9 53c0 8 -1 18 -2 29l-3 32l-8 29c-7 13 -15 43 -26 59c-22 32 -72 36 -120 36
c-3 0 -5 0 -5 -1l7 -103l103 11c-6 -1 -9 -4 -8 -11c1 -11 9 -25 10 -27s2 -5 2 -9c0 -3 1 -6 0 -7c-3 -5 -7 -9 -8 -16c1 -8 6 -3 14 -26l-106 -11l2 -21c3 -23 3 -45 6 -68l3 -24c45 7 85 20 106 36c5 4 10 13 13 17c3 7 8 13 11 22z" />
    <glyph glyph-name="dcaron" unicode="&#x10f;" horiz-adv-x="516" 
d="M388 651c12 8 26 18 37 14c-12 -8 -28 -19 -43 -26c-26 -11 -47 -23 -70 -35l-51 -25h-17c-13 9 -38 23 -52 30c-13 6 -23 9 -35 16c-20 9 -35 21 -52 27c2 16 12 32 18 47c3 7 5 13 6 18l-1 6c0 3 1 4 4 5l11 -3c3 2 6 7 9 9c-7 5 -11 9 -16 12c9 -4 17 -1 25 -6
c12 -6 23 -9 34 -14l63 -29c60 22 90 37 110 48c8 -8 1 -2 5 -9c2 -10 8 -18 11 -27c4 -6 6 -13 15 -17c4 -2 9 -3 11 -3c1 0 1 -3 1 -4c-5 -9 -17 -10 -24 -18c-3 -6 1 -10 1 -16zM120 27c-3 -3 -7 -6 -10 -8l-23 -3c-7 60 -14 119 -19 180l-18 277c7 3 11 4 18 4l49 -2
l13 1c1 3 2 5 2 7c-1 3 -3 7 -11 10c-7 4 -27 4 -27 7l11 3l12 2c11 1 22 0 41 1h31l8 1c13 1 21 3 24 5c7 1 8 4 15 7c-31 4 -50 4 -73 5c-12 1 -22 1 -22 2s6 1 46 4c185 0 279 -97 298 -250c2 -15 1 -28 0 -40c0 -25 -4 -52 -11 -79c-3 -15 -5 -25 -12 -40l-2 -3
c-7 -11 -10 -22 -21 -33c-9 -15 -17 -24 -28 -36c-11 -9 -23 -19 -36 -26c-12 -8 -27 -14 -39 -22l-119 -25l-96 -8c12 11 25 7 25 15c0 3 -2 4 -3 7c-5 8 -15 19 -18 22s-5 6 -5 9v6zM338 315c-7 13 -15 43 -26 59c-22 32 -72 36 -120 36c-3 0 -5 0 -5 -1l16 -220
c3 -23 3 -45 6 -68l3 -24c45 7 85 20 106 36c5 4 10 13 13 17c3 7 8 13 11 22c3 15 8 32 9 53c0 8 -1 18 -2 29l-3 32z" />
    <glyph glyph-name="dcroat" unicode="&#x111;" horiz-adv-x="575" 
d="M544 280c2 -15 1 -28 0 -40c0 -25 -4 -52 -11 -79c-3 -15 -5 -25 -12 -40l-2 -3c-7 -11 -10 -22 -21 -33c-9 -15 -17 -24 -28 -36c-11 -9 -23 -19 -36 -26c-12 -8 -27 -14 -39 -22l-119 -25l-96 -8c12 11 25 7 25 15c0 3 -2 4 -3 7c-5 8 -15 19 -18 22s-5 6 -5 9v6
c-3 -3 -7 -6 -10 -8l-23 -3c-7 60 -14 119 -19 180l-63 -7l-26 -2c-4 4 -2 29 -3 41l-1 11c0 4 -1 6 -5 9s-10 3 -10 6c0 1 1 2 3 3c4 2 8 3 11 4h15l6 2c9 4 9 10 12 15c-20 -2 -31 0 -50 3l105 11l-12 181c7 3 11 4 18 4l49 -2l13 1c1 3 2 5 2 7c-1 3 -3 7 -11 10
c-7 4 -27 4 -27 7l11 3l12 2c11 1 22 0 41 1h31l8 1c13 1 21 3 24 5c7 1 8 4 15 7c-31 4 -50 4 -73 5c-12 1 -22 1 -22 2s6 1 46 4c185 0 279 -97 298 -250zM401 172c3 15 8 32 9 53c0 8 -1 18 -2 29l-3 32l-8 29c-7 13 -15 43 -26 59c-22 32 -72 36 -120 36
c-3 0 -5 0 -5 -1l7 -103l103 11c-6 -1 -9 -4 -8 -11c1 -11 9 -25 10 -27s2 -5 2 -9c0 -3 1 -6 0 -7c-3 -5 -7 -9 -8 -16c1 -8 6 -3 14 -26l-106 -11l2 -21c3 -23 3 -45 6 -68l3 -24c45 7 85 20 106 36c5 4 10 13 13 17c3 7 8 13 11 22z" />
    </font>
</defs>
</svg>
